<svg xmlns="http://www.w3.org/2000/svg" xmlns:xlink="http://www.w3.org/1999/xlink" width="144" zoomAndPan="magnify" viewBox="0 0 108 37.5" height="50" preserveAspectRatio="xMidYMid meet" version="1.2"><defs><clipPath id="54329355b5"><path d="M 73 20 L 107 20 L 107 27 L 73 27 Z M 73 20 "/></clipPath><clipPath id="80076c3292"><path d="M 73.5625 20.265625 L 106.121094 20.960938 L 105.996094 26.878906 L 73.4375 26.183594 Z M 73.5625 20.265625 "/></clipPath><clipPath id="e8824eb225"><path d="M 106.046875 26.578125 L 71.269531 25.839844 L 71.394531 19.917969 L 106.175781 20.660156 Z M 106.046875 26.578125 "/></clipPath><clipPath id="c8ad6c17e3"><path d="M 1 22 L 35 22 L 35 28 L 1 28 Z M 1 22 "/></clipPath><clipPath id="121d02932b"><path d="M 34.429688 27.929688 L 1.871094 27.289062 L 1.988281 21.371094 L 34.546875 22.011719 Z M 34.429688 27.929688 "/></clipPath><clipPath id="77366414e3"><path d="M 1.9375 21.667969 L 36.714844 22.355469 L 36.597656 28.273438 L 1.820312 27.589844 Z M 1.9375 21.667969 "/></clipPath></defs><g id="351f5fe523"><g clip-rule="nonzero" clip-path="url(#54329355b5)"><g clip-rule="nonzero" clip-path="url(#80076c3292)"><g clip-rule="nonzero" clip-path="url(#e8824eb225)"><path style=" stroke:none;fill-rule:nonzero;fill:#000000;fill-opacity:1;" d="M 106.054688 20.667969 C 105.613281 22.851562 103.640625 24.320312 101.640625 25.015625 C 99.226562 25.855469 96.597656 25.765625 94.117188 25.285156 C 91.476562 24.777344 88.960938 23.808594 86.414062 22.976562 C 84.011719 22.195312 81.539062 21.523438 78.996094 21.496094 C 76.761719 21.476562 74.453125 21.9375 72.570312 23.191406 C 72.332031 23.347656 72.105469 23.515625 71.886719 23.691406 C 71.859375 23.714844 71.882812 23.910156 71.882812 23.945312 C 71.878906 23.980469 71.90625 24.179688 71.875 24.199219 C 73.640625 22.761719 75.898438 22.121094 78.148438 22.019531 C 80.640625 21.902344 83.085938 22.453125 85.457031 23.179688 C 88.035156 23.976562 90.550781 24.984375 93.1875 25.59375 C 95.648438 26.167969 98.265625 26.414062 100.746094 25.785156 C 102.824219 25.257812 104.992188 24.023438 105.816406 21.929688 C 105.914062 21.683594 105.984375 21.429688 106.035156 21.167969 C 106.070312 21.003906 106.015625 20.824219 106.046875 20.660156 Z M 106.054688 20.667969 "/></g></g></g><g clip-rule="nonzero" clip-path="url(#c8ad6c17e3)"><g clip-rule="nonzero" clip-path="url(#121d02932b)"><g clip-rule="nonzero" clip-path="url(#77366414e3)"><path style=" stroke:none;fill-rule:nonzero;fill:#000000;fill-opacity:1;" d="M 1.941406 27.578125 C 2.378906 25.398438 4.347656 23.925781 6.34375 23.226562 C 8.757812 22.382812 11.386719 22.46875 13.867188 22.945312 C 16.507812 23.449219 19.027344 24.414062 21.574219 25.242188 C 23.980469 26.019531 26.453125 26.6875 28.996094 26.707031 C 31.230469 26.726562 33.535156 26.261719 35.421875 25.007812 C 35.65625 24.847656 35.882812 24.679688 36.101562 24.5 C 36.128906 24.480469 36.105469 24.28125 36.105469 24.246094 C 36.109375 24.210938 36.082031 24.015625 36.113281 23.992188 C 34.347656 25.433594 32.09375 26.078125 29.84375 26.1875 C 27.351562 26.304688 24.902344 25.761719 22.535156 25.035156 C 19.953125 24.246094 17.433594 23.242188 14.800781 22.632812 C 12.335938 22.066406 9.71875 21.820312 7.242188 22.457031 C 5.164062 22.984375 2.996094 24.222656 2.175781 26.316406 C 2.078125 26.566406 2.007812 26.820312 1.957031 27.078125 C 1.921875 27.242188 1.980469 27.425781 1.945312 27.585938 Z M 1.941406 27.578125 "/></g></g></g><g style="fill:#000000;fill-opacity:1;"><g transform="translate(56.854303, 25.502213)"><path style="stroke:none" d="M 27.875 -5.640625 L 26.703125 -3.84375 C 22.546875 2.082031 17.378906 6.117188 11.203125 8.265625 C 10.609375 8.472656 9.988281 8.65625 9.34375 8.8125 C 8.695312 8.976562 8.023438 9.0625 7.328125 9.0625 C 6.640625 9.0625 5.953125 8.96875 5.265625 8.78125 C 3.972656 8.4375 3 7.816406 2.34375 6.921875 C 1.675781 6.046875 1.425781 5.050781 1.59375 3.9375 C 1.882812 1.800781 3.140625 0.0625 5.359375 -1.28125 C 6.609375 -2.039062 7.554688 -3.257812 8.203125 -4.9375 C 9.003906 -6.945312 9.847656 -8.988281 10.734375 -11.0625 C 11.628906 -13.132812 12.660156 -15.117188 13.828125 -17.015625 C 13.828125 -17.035156 13.851562 -17.070312 13.90625 -17.125 C 13.976562 -17.1875 14.046875 -17.257812 14.109375 -17.34375 C 14.179688 -17.425781 14.191406 -17.515625 14.140625 -17.609375 C 14.054688 -17.765625 13.835938 -17.890625 13.484375 -17.984375 C 13.398438 -18.003906 13.351562 -18.03125 13.34375 -18.0625 C 13.300781 -18.144531 13.316406 -18.25 13.390625 -18.375 C 13.453125 -18.488281 13.5 -18.546875 13.53125 -18.546875 C 13.632812 -18.628906 13.738281 -18.710938 13.84375 -18.796875 C 13.945312 -18.878906 14.054688 -18.96875 14.171875 -19.0625 C 14.316406 -19.21875 14.46875 -19.359375 14.625 -19.484375 C 14.789062 -19.617188 14.96875 -19.6875 15.15625 -19.6875 C 15.351562 -19.6875 15.5625 -19.59375 15.78125 -19.40625 C 16.113281 -19.15625 16.242188 -18.898438 16.171875 -18.640625 C 16.109375 -18.390625 15.960938 -18.09375 15.734375 -17.75 C 15.671875 -17.675781 15.609375 -17.597656 15.546875 -17.515625 C 15.492188 -17.429688 15.453125 -17.347656 15.421875 -17.265625 C 15.117188 -16.640625 14.804688 -16.019531 14.484375 -15.40625 C 14.160156 -14.789062 13.835938 -14.175781 13.515625 -13.5625 L 12.71875 -12.0625 L 12.875 -11.90625 L 13.171875 -12.171875 C 14.046875 -12.960938 14.914062 -13.726562 15.78125 -14.46875 C 16.65625 -15.21875 17.582031 -15.878906 18.5625 -16.453125 C 19.539062 -17.035156 20.640625 -17.488281 21.859375 -17.8125 C 22.253906 -17.925781 22.664062 -18.035156 23.09375 -18.140625 C 23.519531 -18.242188 23.953125 -18.296875 24.390625 -18.296875 L 24.59375 -18.296875 C 26.25 -18.296875 27.585938 -17.789062 28.609375 -16.78125 C 29.660156 -15.738281 30.164062 -14.382812 30.125 -12.71875 C 30.082031 -11.664062 29.910156 -10.679688 29.609375 -9.765625 C 29.304688 -8.859375 28.960938 -7.988281 28.578125 -7.15625 C 28.503906 -7 28.429688 -6.835938 28.359375 -6.671875 C 28.285156 -6.515625 28.207031 -6.34375 28.125 -6.15625 Z M 18.640625 -4.984375 C 18.773438 -4.960938 18.851562 -4.882812 18.875 -4.75 C 18.90625 -4.625 18.894531 -4.523438 18.84375 -4.453125 C 18.820312 -4.429688 18.800781 -4.410156 18.78125 -4.390625 C 18.726562 -4.367188 18.671875 -4.359375 18.609375 -4.359375 C 18.554688 -4.359375 18.5 -4.359375 18.4375 -4.359375 C 18.09375 -4.378906 17.753906 -4.382812 17.421875 -4.375 C 17.085938 -4.363281 16.757812 -4.335938 16.4375 -4.296875 C 16.269531 -4.296875 16.101562 -4.285156 15.9375 -4.265625 C 15.78125 -4.253906 15.617188 -4.238281 15.453125 -4.21875 C 15.296875 -4.195312 15.128906 -4.171875 14.953125 -4.140625 C 14.785156 -4.117188 14.628906 -4.109375 14.484375 -4.109375 C 14.078125 -4.046875 13.679688 -3.972656 13.296875 -3.890625 C 12.910156 -3.804688 12.523438 -3.707031 12.140625 -3.59375 C 11.117188 -3.269531 10.175781 -2.789062 9.3125 -2.15625 C 8.457031 -1.519531 7.84375 -0.71875 7.46875 0.25 C 7.40625 0.363281 7.347656 0.472656 7.296875 0.578125 C 7.253906 0.679688 7.1875 0.773438 7.09375 0.859375 C 7.019531 0.910156 6.910156 0.9375 6.765625 0.9375 C 6.628906 0.9375 6.503906 0.890625 6.390625 0.796875 C 6.210938 0.628906 6.140625 0.441406 6.171875 0.234375 C 6.210938 0.0234375 6.257812 -0.179688 6.3125 -0.390625 C 6.363281 -0.609375 6.3125 -0.800781 6.15625 -0.96875 C 5.351562 -0.34375 4.59375 0.335938 3.875 1.078125 C 3.15625 1.816406 2.703125 2.722656 2.515625 3.796875 C 2.429688 4.210938 2.425781 4.664062 2.5 5.15625 C 2.582031 5.65625 2.800781 6.101562 3.15625 6.5 C 3.539062 6.9375 4.015625 7.238281 4.578125 7.40625 C 5.140625 7.582031 5.675781 7.6875 6.1875 7.71875 C 7.726562 7.8125 9.160156 7.632812 10.484375 7.1875 C 11.816406 6.75 13.082031 6.207031 14.28125 5.5625 C 16.863281 4.15625 19.222656 2.484375 21.359375 0.546875 C 23.492188 -1.390625 25.320312 -3.578125 26.84375 -6.015625 C 27.457031 -6.984375 27.988281 -7.992188 28.4375 -9.046875 C 28.894531 -10.097656 29.171875 -11.234375 29.265625 -12.453125 C 29.328125 -13.210938 29.234375 -14.019531 28.984375 -14.875 C 28.734375 -15.726562 28.238281 -16.410156 27.5 -16.921875 C 27.0625 -17.234375 26.601562 -17.4375 26.125 -17.53125 C 25.65625 -17.625 25.191406 -17.671875 24.734375 -17.671875 C 23.785156 -17.648438 22.882812 -17.507812 22.03125 -17.25 C 21.175781 -17 20.367188 -16.664062 19.609375 -16.25 C 17.921875 -15.351562 16.441406 -14.222656 15.171875 -12.859375 C 13.910156 -11.503906 12.796875 -10.015625 11.828125 -8.390625 C 10.859375 -6.765625 9.957031 -5.109375 9.125 -3.421875 C 9.21875 -3.421875 9.304688 -3.4375 9.390625 -3.46875 C 9.472656 -3.507812 9.554688 -3.539062 9.640625 -3.5625 C 9.828125 -3.601562 10.003906 -3.640625 10.171875 -3.671875 C 10.554688 -3.765625 10.914062 -3.84375 11.25 -3.90625 C 11.976562 -4.050781 12.703125 -4.191406 13.421875 -4.328125 C 13.515625 -4.328125 13.601562 -4.335938 13.6875 -4.359375 C 13.78125 -4.378906 13.875 -4.398438 13.96875 -4.421875 C 14.15625 -4.453125 14.332031 -4.476562 14.5 -4.5 C 14.90625 -4.570312 15.285156 -4.628906 15.640625 -4.671875 C 16.097656 -4.742188 16.5625 -4.804688 17.03125 -4.859375 C 17.507812 -4.910156 17.988281 -4.953125 18.46875 -4.984375 C 18.539062 -5.003906 18.597656 -5.003906 18.640625 -4.984375 Z M 18.640625 -4.984375 "/></g></g><g style="fill:#000000;fill-opacity:1;"><g transform="translate(44.265626, 28.928231)"><path style="stroke:none" d="M 10.5625 -5.9375 C 10.613281 -5.832031 10.617188 -5.753906 10.578125 -5.703125 C 10.535156 -5.660156 10.472656 -5.617188 10.390625 -5.578125 L 10.3125 -5.53125 C 9.757812 -5.238281 9.253906 -4.898438 8.796875 -4.515625 C 8.335938 -4.140625 7.894531 -3.765625 7.46875 -3.390625 L 7.09375 -3.046875 C 6.882812 -2.859375 6.800781 -2.679688 6.84375 -2.515625 C 6.875 -2.359375 7.023438 -2.179688 7.296875 -1.984375 C 7.804688 -1.628906 8.273438 -1.28125 8.703125 -0.9375 C 8.785156 -0.863281 8.851562 -0.796875 8.90625 -0.734375 C 8.96875 -0.671875 8.972656 -0.609375 8.921875 -0.546875 C 8.890625 -0.503906 8.851562 -0.484375 8.8125 -0.484375 C 8.769531 -0.484375 8.722656 -0.492188 8.671875 -0.515625 C 8.617188 -0.535156 8.566406 -0.5625 8.515625 -0.59375 C 7.816406 -0.945312 7.242188 -1.335938 6.796875 -1.765625 C 6.578125 -1.972656 6.394531 -2.078125 6.25 -2.078125 C 6.113281 -2.078125 5.972656 -2.003906 5.828125 -1.859375 C 5.484375 -1.523438 5.082031 -1.203125 4.625 -0.890625 C 4.164062 -0.578125 3.617188 -0.359375 2.984375 -0.234375 C 2.847656 -0.210938 2.710938 -0.203125 2.578125 -0.203125 C 2.367188 -0.203125 2.15625 -0.234375 1.9375 -0.296875 C 1.5625 -0.421875 1.300781 -0.585938 1.15625 -0.796875 C 1.007812 -0.984375 0.960938 -1.226562 1.015625 -1.53125 C 1.097656 -2.050781 1.347656 -2.539062 1.765625 -3 C 2.085938 -3.34375 2.414062 -3.691406 2.75 -4.046875 C 3.082031 -4.398438 3.4375 -4.75 3.8125 -5.09375 C 4.0625 -5.34375 4.148438 -5.664062 4.078125 -6.0625 C 3.859375 -7.289062 3.953125 -8.378906 4.359375 -9.328125 C 4.765625 -10.285156 5.425781 -10.976562 6.34375 -11.40625 C 6.875 -11.644531 7.414062 -11.785156 7.96875 -11.828125 L 8.171875 -11.828125 C 8.359375 -11.828125 8.601562 -11.796875 8.90625 -11.734375 C 9.207031 -11.671875 9.453125 -11.519531 9.640625 -11.28125 C 10.015625 -10.800781 10.082031 -10.269531 9.84375 -9.6875 C 9.65625 -9.25 9.40625 -8.875 9.09375 -8.5625 C 8.78125 -8.257812 8.472656 -7.988281 8.171875 -7.75 C 7.835938 -7.476562 7.492188 -7.210938 7.140625 -6.953125 C 6.796875 -6.703125 6.453125 -6.457031 6.109375 -6.21875 C 5.984375 -6.132812 5.851562 -6.039062 5.71875 -5.9375 C 5.582031 -5.84375 5.453125 -5.753906 5.328125 -5.671875 C 5.222656 -5.578125 5.132812 -5.484375 5.0625 -5.390625 C 5 -5.304688 5.015625 -5.160156 5.109375 -4.953125 C 5.140625 -4.898438 5.164062 -4.84375 5.1875 -4.78125 C 5.207031 -4.71875 5.238281 -4.660156 5.28125 -4.609375 C 5.363281 -4.390625 5.460938 -4.171875 5.578125 -3.953125 C 5.691406 -3.734375 5.851562 -3.53125 6.0625 -3.34375 C 6.113281 -3.3125 6.164062 -3.296875 6.21875 -3.296875 C 6.28125 -3.296875 6.332031 -3.316406 6.375 -3.359375 C 6.414062 -3.398438 6.460938 -3.445312 6.515625 -3.5 C 6.535156 -3.539062 6.554688 -3.570312 6.578125 -3.59375 L 6.78125 -3.78125 C 7.113281 -4.113281 7.457031 -4.4375 7.8125 -4.75 C 8.164062 -5.070312 8.5625 -5.359375 9 -5.609375 C 9.3125 -5.796875 9.644531 -5.941406 10 -6.046875 C 10.039062 -6.054688 10.082031 -6.066406 10.125 -6.078125 C 10.175781 -6.097656 10.226562 -6.109375 10.28125 -6.109375 C 10.40625 -6.109375 10.5 -6.050781 10.5625 -5.9375 Z M 5.71875 -10 C 4.945312 -9.039062 4.625 -7.929688 4.75 -6.671875 C 4.75 -6.660156 4.757812 -6.609375 4.78125 -6.515625 C 4.789062 -6.453125 4.804688 -6.375 4.828125 -6.28125 C 4.847656 -6.1875 4.859375 -6.128906 4.859375 -6.109375 L 4.953125 -6.03125 L 6 -6.796875 C 6.40625 -7.109375 6.800781 -7.410156 7.1875 -7.703125 C 7.582031 -7.992188 7.976562 -8.289062 8.375 -8.59375 C 8.832031 -8.957031 9.191406 -9.382812 9.453125 -9.875 C 9.535156 -10.03125 9.582031 -10.222656 9.59375 -10.453125 C 9.613281 -10.679688 9.5625 -10.878906 9.4375 -11.046875 C 9.394531 -11.109375 9.320312 -11.179688 9.21875 -11.265625 C 9.113281 -11.347656 8.972656 -11.398438 8.796875 -11.421875 C 8.703125 -11.429688 8.609375 -11.4375 8.515625 -11.4375 C 8.210938 -11.4375 7.925781 -11.390625 7.65625 -11.296875 C 7.382812 -11.203125 7.164062 -11.117188 7 -11.046875 C 6.507812 -10.804688 6.082031 -10.457031 5.71875 -10 Z M 4.859375 -1.84375 C 5.140625 -2.09375 5.328125 -2.296875 5.421875 -2.453125 C 5.523438 -2.609375 5.535156 -2.785156 5.453125 -2.984375 C 5.367188 -3.179688 5.210938 -3.488281 4.984375 -3.90625 C 4.921875 -4.007812 4.859375 -4.113281 4.796875 -4.21875 C 4.734375 -4.320312 4.671875 -4.4375 4.609375 -4.5625 L 4.390625 -5 L 4.34375 -4.953125 C 3.789062 -4.515625 3.253906 -4.050781 2.734375 -3.5625 C 2.210938 -3.082031 1.796875 -2.507812 1.484375 -1.84375 L 1.453125 -1.75 C 1.390625 -1.625 1.34375 -1.488281 1.3125 -1.34375 C 1.28125 -1.195312 1.347656 -1.039062 1.515625 -0.875 C 1.734375 -0.65625 2 -0.546875 2.3125 -0.546875 C 2.425781 -0.546875 2.546875 -0.5625 2.671875 -0.59375 C 3.148438 -0.6875 3.5625 -0.847656 3.90625 -1.078125 C 4.257812 -1.316406 4.578125 -1.570312 4.859375 -1.84375 Z M 4.859375 -1.84375 "/></g></g><g style="fill:#000000;fill-opacity:1;"><g transform="translate(17.48187, 25.957725)"><path style="stroke:none" d="M 7.09375 8.75 C 7 8.75 6.90625 8.726562 6.8125 8.6875 C 6.414062 8.570312 6.15625 8.363281 6.03125 8.0625 C 5.90625 7.757812 5.84375 7.523438 5.84375 7.359375 L 5.78125 7.015625 C 5.75 6.671875 5.722656 6.320312 5.703125 5.96875 C 5.679688 5.613281 5.71875 5.296875 5.8125 5.015625 C 6.132812 4.085938 6.140625 3.144531 5.828125 2.1875 C 5.515625 1.238281 5.09375 0.253906 4.5625 -0.765625 C 4.03125 -1.816406 3.515625 -2.921875 3.015625 -4.078125 C 2.523438 -5.234375 2.125 -6.414062 1.8125 -7.625 C 1.5 -8.832031 1.351562 -10.039062 1.375 -11.25 C 1.46875 -16.40625 4.316406 -19.539062 9.921875 -20.65625 L 10.0625 -20.6875 C 10.289062 -20.75 10.523438 -20.796875 10.765625 -20.828125 C 11.015625 -20.867188 11.273438 -20.910156 11.546875 -20.953125 C 11.710938 -20.953125 11.910156 -20.953125 12.140625 -20.953125 L 13.140625 -20.953125 C 14.316406 -20.910156 15.550781 -20.796875 16.84375 -20.609375 C 18.132812 -20.421875 19.441406 -20.070312 20.765625 -19.5625 C 22.097656 -19.0625 23.421875 -18.304688 24.734375 -17.296875 C 26.203125 -16.179688 27.140625 -14.925781 27.546875 -13.53125 C 27.953125 -12.144531 27.765625 -10.851562 26.984375 -9.65625 C 26.316406 -8.632812 25.414062 -7.800781 24.28125 -7.15625 C 23.144531 -6.507812 21.703125 -6.015625 19.953125 -5.671875 C 19.097656 -5.503906 18.207031 -5.351562 17.28125 -5.21875 C 16.363281 -5.082031 15.429688 -5.015625 14.484375 -5.015625 C 13.453125 -5.015625 12.441406 -5.109375 11.453125 -5.296875 C 11.335938 -5.316406 11.234375 -5.328125 11.140625 -5.328125 C 10.859375 -5.328125 10.644531 -5.238281 10.5 -5.0625 C 10.351562 -4.894531 10.242188 -4.695312 10.171875 -4.46875 L 9.46875 -2.828125 C 9.21875 -2.210938 8.96875 -1.601562 8.71875 -1 C 8.46875 -0.40625 8.222656 0.191406 7.984375 0.796875 C 7.679688 1.578125 7.457031 2.367188 7.3125 3.171875 C 7.164062 3.984375 7.3125 4.882812 7.75 5.875 C 7.882812 6.21875 7.9375 6.550781 7.90625 6.875 C 7.875 7.207031 7.832031 7.53125 7.78125 7.84375 C 7.738281 8.0625 7.671875 8.265625 7.578125 8.453125 C 7.484375 8.648438 7.320312 8.75 7.09375 8.75 Z M 21.890625 -18.5 C 19.128906 -19.8125 16.34375 -20.46875 13.53125 -20.46875 C 12.351562 -20.46875 11.164062 -20.351562 9.96875 -20.125 C 6.550781 -19.476562 4.207031 -17.910156 2.9375 -15.421875 C 1.300781 -12.191406 1.632812 -8.144531 3.9375 -3.28125 C 4.175781 -2.769531 4.421875 -2.257812 4.671875 -1.75 C 4.921875 -1.25 5.171875 -0.734375 5.421875 -0.203125 L 6.296875 1.5625 L 6.390625 1.375 C 6.503906 1.0625 6.617188 0.757812 6.734375 0.46875 C 6.859375 0.175781 6.976562 -0.113281 7.09375 -0.40625 C 7.363281 -1.0625 7.628906 -1.710938 7.890625 -2.359375 C 8.160156 -3.003906 8.4375 -3.632812 8.71875 -4.25 C 8.757812 -4.320312 8.847656 -4.507812 8.984375 -4.8125 C 9.128906 -5.113281 9.289062 -5.453125 9.46875 -5.828125 C 9.65625 -6.210938 9.816406 -6.554688 9.953125 -6.859375 C 10.097656 -7.171875 10.191406 -7.375 10.234375 -7.46875 L 10.34375 -7.75 C 11.050781 -9.15625 11.816406 -10.660156 12.640625 -12.265625 C 13.460938 -13.867188 14.347656 -15.472656 15.296875 -17.078125 L 15.84375 -17.984375 C 15.9375 -18.148438 16.054688 -18.3125 16.203125 -18.46875 C 16.347656 -18.625 16.515625 -18.707031 16.703125 -18.71875 C 16.773438 -18.707031 16.804688 -18.632812 16.796875 -18.5 C 16.785156 -18.363281 16.695312 -18.125 16.53125 -17.78125 L 16.5 -17.671875 C 16.289062 -17.171875 16.070312 -16.675781 15.84375 -16.1875 C 15.613281 -15.707031 15.382812 -15.234375 15.15625 -14.765625 L 14.9375 -14.25 C 14.726562 -13.8125 14.515625 -13.378906 14.296875 -12.953125 C 14.078125 -12.523438 13.863281 -12.101562 13.65625 -11.6875 C 13.476562 -11.320312 13.300781 -10.96875 13.125 -10.625 C 12.957031 -10.289062 12.789062 -9.953125 12.625 -9.609375 C 12.351562 -9.054688 12.09375 -8.507812 11.84375 -7.96875 C 11.601562 -7.425781 11.359375 -6.878906 11.109375 -6.328125 L 11.0625 -6.1875 L 11.234375 -6.15625 C 12.046875 -6.0625 12.867188 -6.015625 13.703125 -6.015625 C 14.460938 -6.015625 15.1875 -6.046875 15.875 -6.109375 C 16.570312 -6.179688 17.273438 -6.265625 17.984375 -6.359375 C 18.722656 -6.429688 19.503906 -6.554688 20.328125 -6.734375 C 21.160156 -6.921875 21.984375 -7.1875 22.796875 -7.53125 C 23.617188 -7.882812 24.378906 -8.359375 25.078125 -8.953125 C 25.535156 -9.347656 25.941406 -9.785156 26.296875 -10.265625 C 26.660156 -10.753906 26.890625 -11.316406 26.984375 -11.953125 C 27.078125 -12.585938 26.945312 -13.332031 26.59375 -14.1875 C 26.269531 -14.945312 25.835938 -15.609375 25.296875 -16.171875 C 24.753906 -16.734375 24.175781 -17.195312 23.5625 -17.5625 C 22.957031 -17.9375 22.398438 -18.25 21.890625 -18.5 Z M 21.890625 -18.5 "/></g></g></g></svg>