<svg xmlns="http://www.w3.org/2000/svg" xmlns:xlink="http://www.w3.org/1999/xlink" width="512" zoomAndPan="magnify" viewBox="0 0 384 383.999986" height="512" preserveAspectRatio="xMidYMid meet" version="1.2"><defs><clipPath id="18515c8329"><path d="M 10.210938 53 L 373 53 L 373 340.089844 L 10.210938 340.089844 Z M 10.210938 53 "/></clipPath><clipPath id="4608d8e710"><path d="M 10.210938 53 L 373 53 L 373 340.089844 L 10.210938 340.089844 Z M 10.210938 53 "/></clipPath></defs><g id="0d8cf9f166"><path style=" stroke:none;fill-rule:nonzero;fill:#000000;fill-opacity:1;" d="M 13.457031 196.558594 C 13.457031 196.558594 13.402344 197.097656 13.296875 198.113281 C 13.21875 199.128906 13.164062 200.652344 13.351562 202.566406 C 13.53125 204.488281 14.003906 206.808594 14.917969 209.359375 C 15.820312 211.914062 17.199219 214.683594 19.144531 217.410156 C 21.0625 220.160156 23.53125 222.890625 26.605469 225.25 C 27.355469 225.8125 28.03125 226.4375 28.878906 226.980469 C 29.722656 227.53125 30.566406 228.089844 31.425781 228.652344 C 33.1875 229.640625 34.96875 230.679688 36.890625 231.507812 C 40.679688 233.273438 44.769531 234.6875 49 235.71875 C 50.046875 236.019531 51.121094 236.222656 52.183594 236.476562 L 53.855469 236.84375 L 55.457031 237.097656 C 57.59375 237.4375 59.738281 237.765625 61.886719 238.101562 C 62.425781 238.175781 62.953125 238.277344 63.5 238.339844 L 65.160156 238.453125 L 68.472656 238.691406 C 69.570312 238.765625 70.675781 238.84375 71.773438 238.917969 C 72.316406 238.953125 72.863281 239.007812 73.414062 239.023438 L 75.042969 239 C 77.207031 238.957031 79.359375 238.914062 81.480469 238.871094 L 83.066406 238.835938 L 84.636719 238.6875 C 85.679688 238.582031 86.710938 238.480469 87.734375 238.375 C 89.785156 238.144531 91.8125 238.007812 93.757812 237.660156 C 95.707031 237.289062 97.613281 236.925781 99.464844 236.574219 C 100.390625 236.398438 101.304688 236.21875 102.203125 236.050781 C 103.097656 235.851562 103.957031 235.566406 104.8125 235.339844 C 106.519531 234.855469 108.164062 234.382812 109.742188 233.933594 C 110.535156 233.707031 111.304688 233.484375 112.058594 233.265625 C 112.792969 232.984375 113.511719 232.707031 114.207031 232.441406 C 115.601562 231.898438 116.921875 231.386719 118.171875 230.90625 C 119.402344 230.402344 120.582031 230.023438 121.621094 229.519531 C 122.65625 229.011719 123.609375 228.546875 124.464844 228.132812 C 127.894531 226.445312 129.816406 225.457031 129.816406 225.457031 C 129.816406 225.457031 127.765625 226.199219 124.21875 227.539062 C 123.332031 227.886719 122.355469 228.261719 121.289062 228.671875 C 120.226562 229.082031 119.015625 229.363281 117.757812 229.753906 C 116.492188 230.125 115.148438 230.523438 113.734375 230.941406 C 113.027344 231.148438 112.300781 231.363281 111.558594 231.582031 C 110.800781 231.75 110.03125 231.921875 109.238281 232.097656 C 107.660156 232.445312 106.019531 232.808594 104.316406 233.175781 C 103.460938 233.355469 102.613281 233.582031 101.722656 233.722656 C 100.832031 233.851562 99.929688 233.984375 99.015625 234.117188 C 97.1875 234.382812 95.3125 234.65625 93.394531 234.9375 C 91.476562 235.207031 89.488281 235.21875 87.484375 235.402344 C 86.480469 235.480469 85.472656 235.550781 84.453125 235.628906 L 82.917969 235.738281 L 81.371094 235.730469 C 79.304688 235.714844 77.210938 235.699219 75.105469 235.691406 L 73.519531 235.691406 C 72.992188 235.664062 72.46875 235.609375 71.945312 235.578125 C 70.890625 235.492188 69.839844 235.40625 68.785156 235.324219 L 65.613281 235.082031 L 64.027344 234.957031 C 63.492188 234.890625 62.953125 234.789062 62.421875 234.707031 C 60.273438 234.371094 58.128906 234.023438 55.996094 233.6875 L 54.394531 233.445312 L 52.90625 233.128906 C 51.871094 232.894531 50.828125 232.707031 49.820312 232.429688 C 45.738281 231.445312 41.816406 230.171875 38.164062 228.632812 C 36.320312 227.90625 34.605469 226.964844 32.925781 226.097656 C 32.121094 225.617188 31.324219 225.144531 30.542969 224.675781 C 29.746094 224.242188 28.984375 223.609375 28.222656 223.089844 C 25.261719 221.046875 22.816406 218.597656 20.816406 216.15625 C 16.785156 211.226562 14.84375 206.113281 14.074219 202.457031 C 13.707031 200.613281 13.542969 199.136719 13.496094 198.121094 C 13.46875 197.101562 13.457031 196.558594 13.457031 196.558594 "/><path style=" stroke:none;fill-rule:nonzero;fill:#000000;fill-opacity:1;" d="M 108.648438 113.414062 C 107.808594 113.9375 106.894531 114.503906 105.921875 115.105469 C 103.976562 116.328125 101.742188 117.644531 99.453125 119.308594 C 98.292969 120.117188 97.082031 120.957031 95.832031 121.828125 C 94.59375 122.722656 93.363281 123.710938 92.078125 124.695312 C 89.472656 126.632812 86.894531 128.894531 84.199219 131.195312 C 81.617188 133.621094 78.859375 136.039062 76.3125 138.761719 C 73.675781 141.390625 71.214844 144.265625 68.707031 147.097656 C 66.316406 150.027344 63.933594 152.96875 61.761719 155.996094 C 60.648438 157.484375 59.550781 158.96875 58.566406 160.5 C 57.558594 162.019531 56.53125 163.496094 55.582031 164.992188 C 53.710938 167.996094 51.875 170.886719 50.328125 173.730469 C 49.539062 175.144531 48.765625 176.519531 48.019531 177.84375 C 47.316406 179.199219 46.644531 180.503906 45.992188 181.761719 C 44.660156 184.246094 43.582031 186.605469 42.605469 188.683594 C 41.613281 190.757812 40.800781 192.574219 40.144531 194.085938 C 38.820312 197.089844 38.105469 198.832031 38.105469 198.832031 C 38.105469 198.832031 39.046875 197.203125 40.625 194.320312 C 41.402344 192.871094 42.371094 191.121094 43.523438 189.152344 C 44.675781 187.179688 45.921875 184.929688 47.375 182.523438 C 48.8125 180.105469 50.367188 177.496094 52.089844 174.78125 C 53.757812 172.039062 55.683594 169.25 57.589844 166.316406 C 58.566406 164.867188 59.621094 163.433594 60.65625 161.957031 C 61.683594 160.480469 62.75 159.011719 63.871094 157.558594 C 66.027344 154.582031 68.429688 151.730469 70.761719 148.828125 C 73.210938 146.023438 75.613281 143.171875 78.1875 140.558594 C 80.660156 137.84375 83.292969 135.378906 85.789062 132.929688 C 88.402344 130.621094 90.820312 128.242188 93.324219 126.234375 C 94.554688 125.203125 95.753906 124.199219 96.910156 123.230469 C 98.097656 122.296875 99.25 121.398438 100.351562 120.535156 C 102.539062 118.777344 104.632812 117.28125 106.46875 115.921875 C 107.390625 115.246094 108.25 114.613281 109.050781 114.027344 C 109.867188 113.46875 110.617188 112.960938 111.296875 112.5 C 114.007812 110.644531 115.539062 109.558594 115.539062 109.558594 C 115.539062 109.558594 113.890625 110.449219 111.023438 112.066406 C 110.308594 112.476562 109.515625 112.925781 108.648438 113.414062 "/><g clip-rule="nonzero" clip-path="url(#18515c8329)"><path style=" stroke:none;fill-rule:nonzero;fill:#000000;fill-opacity:1;" d="M 126.058594 196.058594 C 126.085938 196.921875 126.117188 197.789062 126.148438 198.660156 C 126.226562 199.65625 126.328125 200.390625 126.417969 201.273438 C 126.457031 201.640625 126.503906 202.011719 126.542969 202.378906 C 94.035156 220.1875 60.675781 225.207031 41.53125 220.511719 C 41.574219 220.078125 41.628906 219.484375 41.703125 218.722656 C 41.804688 216.957031 42.269531 214.503906 42.894531 211.394531 C 43.335938 209.851562 43.707031 208.113281 44.320312 206.285156 C 44.964844 204.460938 45.578125 202.460938 46.492188 200.417969 C 48.152344 196.273438 50.382812 191.730469 53.121094 186.929688 C 53.464844 186.328125 53.808594 185.722656 54.15625 185.109375 C 54.464844 184.589844 54.910156 183.925781 55.277344 183.332031 C 56.058594 182.113281 56.855469 180.871094 57.667969 179.605469 C 59.308594 177.097656 60.898438 174.402344 62.738281 171.824219 C 66.535156 166.78125 70.234375 161.246094 74.917969 156.132812 C 76.046875 154.824219 77.175781 153.503906 78.320312 152.167969 C 78.898438 151.507812 79.449219 150.816406 80.054688 150.179688 L 81.929688 148.292969 C 84.4375 145.773438 86.972656 143.21875 89.535156 140.648438 C 94.832031 135.648438 100.414062 130.871094 106.292969 126.394531 C 112.191406 121.96875 118.285156 117.78125 124.488281 113.992188 C 130.734375 110.230469 136.960938 106.789062 143.203125 103.683594 C 149.390625 100.617188 155.570312 97.988281 161.574219 95.980469 C 167.578125 93.953125 173.429688 92.578125 178.917969 91.84375 C 180.300781 91.601562 181.640625 91.488281 182.949219 91.371094 C 184.265625 91.257812 185.542969 91.089844 186.808594 91.097656 C 188.070312 91.0625 189.292969 91.027344 190.492188 90.992188 C 191.683594 91.042969 192.839844 91.082031 193.96875 91.125 C 194.527344 91.148438 195.082031 91.171875 195.625 91.195312 C 196.167969 91.253906 196.699219 91.3125 197.222656 91.371094 C 198.265625 91.492188 199.273438 91.609375 200.242188 91.71875 C 202.167969 92.027344 203.917969 92.417969 205.511719 92.707031 C 207.074219 93.136719 208.46875 93.523438 209.683594 93.855469 C 210.910156 94.164062 211.878906 94.636719 212.707031 94.910156 C 214.339844 95.523438 215.207031 95.84375 215.207031 95.84375 C 215.207031 95.84375 214.351562 95.484375 212.75 94.800781 C 211.933594 94.488281 210.980469 93.964844 209.769531 93.601562 C 208.5625 93.21875 207.175781 92.773438 205.625 92.273438 C 204.03125 91.917969 202.28125 91.46875 200.347656 91.089844 C 199.375 90.941406 198.359375 90.789062 197.3125 90.632812 C 196.78125 90.550781 196.25 90.472656 195.699219 90.394531 C 195.15625 90.347656 194.597656 90.308594 194.027344 90.265625 C 192.890625 90.179688 191.71875 90.097656 190.511719 90.003906 C 189.300781 90 188.054688 89.988281 186.777344 89.976562 C 185.496094 89.929688 184.179688 90.050781 182.835938 90.121094 C 181.484375 90.195312 180.101562 90.261719 178.730469 90.46875 C 173.15625 91.078125 167.160156 92.335938 161.023438 94.25 C 154.863281 96.148438 148.566406 98.652344 142.191406 101.625 C 140.59375 102.351562 139.035156 103.144531 137.4375 103.910156 C 135.824219 104.710938 134.273438 105.566406 132.667969 106.402344 C 131.066406 107.226562 129.476562 108.097656 127.902344 109.011719 C 126.324219 109.929688 124.71875 110.804688 123.140625 111.753906 C 116.820312 115.515625 110.601562 119.679688 104.566406 124.101562 C 98.5625 128.5625 92.785156 133.394531 87.390625 138.371094 C 84.792969 140.992188 82.21875 143.585938 79.675781 146.148438 L 77.777344 148.070312 C 77.164062 148.726562 76.605469 149.421875 76.015625 150.09375 C 74.863281 151.453125 73.710938 152.800781 72.574219 154.136719 C 67.851562 159.328125 64.050781 165.03125 60.195312 170.203125 L 59.488281 171.175781 L 58.871094 172.191406 C 58.460938 172.863281 58.054688 173.53125 57.648438 174.195312 C 56.84375 175.515625 56.046875 176.820312 55.265625 178.101562 C 54.476562 179.386719 53.710938 180.640625 52.953125 181.882812 C 52.570312 182.523438 52.21875 183.0625 51.816406 183.773438 C 51.476562 184.40625 51.140625 185.027344 50.808594 185.648438 C 48.144531 190.59375 45.898438 195.261719 44.359375 199.589844 C 43.507812 201.71875 42.949219 203.800781 42.363281 205.695312 C 41.804688 207.605469 41.488281 209.414062 41.097656 211.011719 C 40.546875 214.292969 40.210938 216.890625 40.214844 218.613281 C 40.1875 219.226562 40.164062 219.730469 40.144531 220.136719 C 36.507812 219.117188 33.433594 217.71875 31.050781 215.972656 C 26.339844 205.003906 25.429688 192.546875 27.390625 180.738281 C 29.535156 167.882812 34.910156 155.738281 41.664062 144.59375 C 46.679688 136.316406 52.457031 128.542969 58.414062 120.90625 C 64.363281 114.691406 70.957031 108.304688 78.191406 101.773438 C 100.554688 81.582031 127.46875 66.625 153.980469 59.667969 C 177.523438 53.484375 197.441406 54.933594 205.957031 63.445312 C 208.175781 65.671875 210.070312 68.039062 211.652344 70.542969 C 215.027344 76.515625 216.925781 83.464844 217.058594 90.304688 C 217.265625 101.160156 213.863281 111.660156 208.910156 121.421875 C 207.652344 123.796875 206.265625 126.199219 204.75 128.636719 L 204.75 128.617188 C 204.75 128.617188 204.265625 128.542969 203.328125 128.398438 C 202.390625 128.253906 201.011719 128.003906 199.136719 127.863281 C 195.421875 127.515625 189.9375 127.292969 183.050781 128.324219 C 176.191406 129.375 167.910156 131.710938 159.449219 136.539062 C 151.011719 141.3125 142.453125 148.800781 136.1875 159.089844 C 133.066406 164.21875 130.480469 169.96875 128.652344 176.195312 C 126.933594 182.433594 125.878906 189.140625 126.058594 196.058594 Z M 159.023438 172.601562 C 162.160156 170.652344 165.808594 169.578125 169.503906 169.492188 C 166.589844 172.191406 163.539062 174.90625 160.371094 177.636719 C 159.824219 175.953125 159.375 174.277344 159.023438 172.601562 Z M 158.160156 165.414062 C 158.125 163.675781 158.21875 161.964844 158.414062 160.296875 C 162.03125 149.6875 169.28125 140.957031 177.945312 137.96875 C 185.398438 135.398438 193.382812 133.972656 201.316406 133.855469 C 193.753906 144.808594 183.585938 156.296875 170.941406 168.144531 C 166.695312 167.960938 162.410156 169.015625 158.746094 171.171875 C 158.40625 169.230469 158.199219 167.300781 158.160156 165.414062 Z M 185.945312 217.992188 C 187.097656 217.070312 188.789062 215.710938 190.886719 213.859375 C 191.949219 212.960938 193.089844 211.917969 194.316406 210.785156 C 195.5625 209.664062 196.875 208.414062 198.25 207.050781 C 201.039062 204.359375 204.050781 201.195312 207.21875 197.628906 C 210.34375 194.023438 213.605469 190.019531 216.855469 185.628906 C 218.933594 182.769531 221.011719 179.746094 223.046875 176.59375 C 223.355469 176.699219 223.8125 176.863281 224.421875 177.082031 C 225.628906 177.496094 227.378906 178.136719 229.582031 178.992188 C 231.78125 179.847656 234.445312 180.929688 237.457031 182.273438 C 240.476562 183.609375 243.832031 185.21875 247.433594 187.085938 C 251.039062 188.945312 254.859375 191.125 258.828125 193.546875 C 262.792969 195.964844 266.863281 198.703125 270.957031 201.683594 C 279.148438 207.65625 287.398438 214.703125 294.910156 222.464844 C 302.441406 230.210938 309.25 238.636719 314.949219 246.996094 C 317.804688 251.164062 320.371094 255.332031 322.652344 259.363281 C 324.933594 263.398438 327 267.257812 328.539062 270.941406 C 330.105469 274.625 331.253906 278.101562 331.980469 281.230469 C 332.722656 284.363281 333.054688 287.136719 333.132812 289.40625 C 333.242188 291.683594 333.039062 293.449219 332.898438 294.640625 C 332.796875 295.257812 332.714844 295.71875 332.667969 296.019531 C 331.195312 296.15625 329.714844 296.25 328.226562 296.277344 C 319.980469 296.40625 311.699219 294.929688 303.5625 292.902344 C 287.261719 288.824219 271.429688 282.839844 256.71875 275.257812 C 241.984375 267.726562 228.359375 258.632812 216.191406 248.621094 C 204.640625 239.152344 194.429688 228.835938 185.644531 218.234375 C 185.75 218.152344 185.832031 218.085938 185.945312 217.992188 Z M 226.339844 171.296875 C 229.386719 166.171875 232.261719 160.710938 234.875 155.03125 C 237.117188 150.238281 239.148438 145.234375 240.832031 140.09375 C 240.929688 140.125 241.007812 140.148438 241.117188 140.179688 C 242.09375 140.496094 243.554688 140.894531 245.421875 141.542969 C 249.179688 142.769531 254.636719 144.75 261.394531 147.707031 C 268.148438 150.664062 276.15625 154.722656 284.910156 160.105469 C 293.648438 165.5 303.089844 172.28125 312.597656 180.601562 C 322.089844 188.9375 331.664062 198.796875 340.503906 210.25 C 344.925781 215.96875 349.171875 222.082031 353.121094 228.558594 C 357 235.039062 360.890625 241.851562 363.566406 249.140625 C 364.898438 252.785156 365.933594 256.574219 366.390625 260.4375 C 366.855469 264.285156 366.703125 268.253906 365.730469 271.964844 C 365.160156 274.269531 364.238281 276.460938 363.0625 278.511719 C 363.101562 278.226562 363.140625 277.949219 363.179688 277.648438 C 363.300781 276.707031 363.472656 275.6875 363.527344 274.601562 C 363.714844 272.417969 363.789062 269.960938 363.683594 267.28125 C 363.660156 266.609375 363.628906 265.925781 363.605469 265.230469 C 363.535156 264.53125 363.472656 263.820312 363.402344 263.097656 C 363.347656 262.375 363.257812 261.644531 363.125 260.898438 C 362.984375 260.128906 362.929688 259.433594 362.710938 258.585938 C 362.335938 257.125 361.949219 255.625 361.554688 254.097656 C 361.070312 252.558594 360.464844 250.992188 359.902344 249.398438 C 358.652344 246.28125 357.207031 243.164062 355.53125 240.105469 C 354.742188 238.542969 353.765625 237.058594 352.898438 235.5625 C 351.980469 234.074219 351.152344 232.539062 350.148438 231.074219 C 348.199219 228.125 346.316406 225.140625 344.246094 222.363281 C 343.230469 220.960938 342.25 219.546875 341.226562 218.191406 C 340.183594 216.851562 339.152344 215.53125 338.136719 214.230469 C 336.160156 211.597656 334.007812 209.238281 332.074219 206.917969 C 331.113281 205.75 330.105469 204.675781 329.132812 203.644531 C 328.167969 202.605469 327.226562 201.601562 326.332031 200.636719 C 325.445312 199.65625 324.53125 198.789062 323.660156 197.960938 C 322.796875 197.128906 321.976562 196.339844 321.203125 195.597656 C 320.421875 194.867188 319.726562 194.144531 319.023438 193.546875 C 318.320312 192.941406 317.671875 192.386719 317.089844 191.886719 C 314.753906 189.894531 313.417969 188.757812 313.417969 188.757812 C 313.417969 188.757812 314.707031 189.949219 316.960938 192.03125 C 317.523438 192.550781 318.148438 193.128906 318.820312 193.757812 C 319.496094 194.386719 320.164062 195.132812 320.910156 195.894531 C 322.371094 197.457031 324.121094 199.109375 325.824219 201.113281 C 326.6875 202.097656 327.59375 203.125 328.523438 204.1875 C 329.460938 205.246094 330.433594 206.339844 331.351562 207.53125 C 333.207031 209.894531 335.273438 212.296875 337.164062 214.980469 C 338.136719 216.300781 339.121094 217.644531 340.113281 219.003906 C 341.09375 220.378906 342.019531 221.8125 342.988281 223.234375 C 344.960938 226.050781 346.738281 229.054688 348.566406 232.011719 C 349.507812 233.46875 350.296875 235.050781 351.167969 236.558594 C 352.007812 238.109375 352.910156 239.5625 353.632812 241.109375 C 355.214844 244.132812 356.582031 247.210938 357.730469 250.210938 C 358.234375 251.726562 358.777344 253.1875 359.222656 254.671875 C 359.59375 256.207031 359.957031 257.710938 360.308594 259.175781 C 360.460938 259.789062 360.523438 260.582031 360.636719 261.257812 C 360.757812 261.953125 360.828125 262.652344 360.867188 263.34375 C 360.921875 264.03125 360.976562 264.714844 361.023438 265.378906 C 361.042969 266.050781 361.058594 266.707031 361.074219 267.351562 C 361.132812 269.925781 361 272.289062 360.820312 274.367188 C 360.773438 275.410156 360.597656 276.371094 360.484375 277.261719 C 360.425781 277.707031 360.367188 278.136719 360.3125 278.542969 C 360.226562 278.933594 360.148438 279.304688 360.074219 279.65625 C 359.925781 280.363281 359.789062 280.984375 359.675781 281.535156 C 359.492188 282.101562 359.332031 282.582031 359.210938 282.972656 C 358.976562 283.691406 358.847656 284.085938 358.828125 284.148438 C 356.671875 286.425781 354.175781 288.421875 351.464844 290.070312 C 348.039062 292.140625 344.265625 293.738281 340.367188 294.734375 C 338.9375 295.09375 337.488281 295.367188 336.03125 295.597656 C 336.054688 295.425781 336.085938 295.261719 336.113281 295.058594 C 336.253906 293.722656 336.457031 291.757812 336.3125 289.277344 C 336.199219 286.800781 335.800781 283.8125 334.980469 280.503906 C 334.175781 277.195312 332.933594 273.566406 331.269531 269.765625 C 329.621094 265.941406 327.46875 262.019531 325.109375 257.953125 C 322.742188 253.882812 320.097656 249.679688 317.144531 245.480469 C 311.269531 237.066406 304.269531 228.601562 296.5625 220.84375 C 288.867188 213.070312 280.449219 206.039062 272.105469 200.09375 C 267.9375 197.125 263.792969 194.40625 259.761719 192.007812 C 255.726562 189.609375 251.847656 187.453125 248.183594 185.617188 C 244.535156 183.769531 241.132812 182.183594 238.070312 180.875 C 235.019531 179.550781 232.324219 178.492188 230.085938 177.652344 C 227.84375 176.800781 226.078125 176.183594 224.871094 175.78125 C 224.433594 175.628906 224.089844 175.515625 223.804688 175.414062 C 224.660156 174.070312 225.503906 172.699219 226.339844 171.296875 Z M 371.59375 260.238281 C 370.308594 253.453125 368.238281 248.40625 366.722656 245.066406 C 365.964844 243.386719 365.292969 242.144531 364.832031 241.3125 C 364.382812 240.476562 364.148438 240.046875 364.148438 240.046875 C 364.148438 240.046875 364.367188 240.488281 364.789062 241.335938 C 365.214844 242.183594 365.835938 243.449219 366.527344 245.152344 C 367.921875 248.527344 369.761719 253.628906 370.859375 260.371094 C 371.957031 267.082031 372.253906 275.496094 370.308594 284.757812 C 368.367188 293.988281 363.992188 304.007812 356.472656 312.84375 C 352.769531 317.289062 348.226562 321.320312 343.101562 324.835938 C 340.496094 326.515625 337.75 328.148438 334.886719 329.46875 C 334.199219 329.832031 333.402344 330.121094 332.65625 330.453125 L 331.515625 330.933594 L 331.226562 331.058594 C 331.195312 331.066406 331.09375 331.113281 331.121094 331.097656 L 330.976562 331.144531 L 330.398438 331.339844 C 328.847656 331.859375 327.292969 332.378906 325.722656 332.902344 C 319.378906 334.742188 312.664062 336.078125 305.703125 336.507812 C 304.835938 336.578125 303.96875 336.652344 303.09375 336.726562 C 302.222656 336.789062 301.339844 336.765625 300.460938 336.785156 C 298.703125 336.808594 296.933594 336.828125 295.152344 336.847656 C 291.605469 336.625 287.992188 336.582031 284.441406 336.058594 C 280.890625 335.75 277.222656 334.972656 273.554688 334.316406 C 270.078125 333.4375 266.363281 332.609375 262.777344 331.617188 C 255.582031 329.519531 248.367188 327.15625 241.300781 324.222656 C 239.53125 323.496094 237.761719 322.765625 235.980469 322.03125 C 234.222656 321.261719 232.488281 320.425781 230.738281 319.625 C 228.996094 318.792969 227.222656 318.039062 225.503906 317.144531 L 220.335938 314.496094 C 216.855469 312.777344 213.53125 310.800781 210.121094 308.953125 C 206.730469 307.046875 203.382812 304.964844 200.015625 302.980469 C 186.910156 294.84375 174.996094 284.644531 164.925781 273.210938 C 154.914062 261.707031 146.652344 249.003906 140.546875 235.824219 C 137.546875 229.285156 134.878906 222.535156 132.871094 215.898438 C 132.414062 214.222656 131.953125 212.550781 131.492188 210.894531 C 131.152344 209.238281 130.808594 207.589844 130.46875 205.953125 L 130.21875 204.722656 L 130.0625 203.441406 C 129.960938 202.589844 129.855469 201.738281 129.757812 200.894531 C 129.664062 200.078125 129.53125 199.125 129.46875 198.4375 C 129.4375 197.609375 129.402344 196.789062 129.363281 195.972656 C 129.117188 189.410156 130.054688 183.011719 131.636719 177.03125 C 133.316406 171.074219 135.734375 165.539062 138.667969 160.589844 C 141.640625 155.644531 145.09375 151.355469 148.847656 147.65625 C 152.589844 143.976562 156.609375 140.980469 160.640625 138.582031 C 168.71875 133.769531 176.703125 131.339844 183.351562 130.195312 C 190.023438 129.070312 195.402344 129.101562 198.992188 129.359375 C 200.789062 129.441406 202.191406 129.65625 203.132812 129.773438 C 203.476562 129.820312 203.746094 129.851562 203.964844 129.882812 C 203.710938 130.277344 203.449219 130.679688 203.1875 131.078125 L 203.191406 131.066406 C 203.191406 131.066406 202.683594 130.921875 201.699219 130.640625 C 200.699219 130.367188 199.117188 130.042969 197.113281 129.820312 C 193.089844 129.441406 187.03125 129.585938 179.816406 131.90625 C 176.242188 133.085938 172.316406 134.828125 168.636719 137.539062 C 164.882812 140.28125 161.414062 144.082031 159.074219 148.9375 C 156.734375 153.769531 155.4375 159.453125 155.484375 165.410156 C 155.523438 171.457031 157.03125 177.640625 159.507812 183.628906 C 161.976562 189.636719 165.347656 195.46875 169.164062 201.214844 C 172.914062 206.960938 177.125 212.78125 181.703125 218.484375 C 190.890625 229.894531 201.6875 241.082031 214.066406 251.214844 C 226.429688 261.347656 240.265625 270.546875 255.238281 278.160156 C 270.175781 285.820312 286.25 291.859375 302.808594 295.96875 C 311.082031 298.007812 319.625 299.53125 328.28125 299.382812 C 332.59375 299.3125 336.925781 298.792969 341.117188 297.726562 C 345.347656 296.632812 349.359375 294.925781 353.058594 292.675781 C 356.738281 290.410156 360.09375 287.585938 362.789062 284.199219 C 365.496094 280.839844 367.53125 276.867188 368.5625 272.734375 C 369.632812 268.527344 369.746094 264.234375 369.230469 260.089844 C 368.714844 255.945312 367.59375 251.964844 366.183594 248.171875 C 364.761719 244.378906 363.050781 240.757812 361.203125 237.28125 C 360.28125 235.53125 359.289062 233.84375 358.359375 232.167969 C 357.390625 230.488281 356.375 228.820312 355.386719 227.167969 C 351.335938 220.632812 347.003906 214.464844 342.492188 208.699219 C 333.472656 197.171875 323.75 187.226562 314.058594 178.921875 C 304.363281 170.609375 294.753906 163.863281 285.882812 158.511719 C 276.992188 153.171875 268.875 149.15625 262.027344 146.246094 C 255.183594 143.328125 249.660156 141.394531 245.859375 140.199219 C 243.972656 139.566406 242.492188 139.175781 241.507812 138.867188 C 241.410156 138.839844 241.339844 138.820312 241.25 138.792969 C 241.410156 138.296875 241.582031 137.800781 241.730469 137.300781 C 243.566406 131.179688 244.753906 124.824219 245 118.5 C 245.257812 112.167969 244.519531 105.925781 243.089844 100.101562 C 241.675781 94.265625 239.535156 88.824219 236.894531 84.003906 C 234.273438 79.175781 231.183594 74.960938 227.933594 71.449219 C 224.679688 67.941406 221.296875 65.109375 218.050781 62.984375 C 214.824219 60.84375 211.800781 59.3125 209.253906 58.222656 C 206.699219 57.15625 204.625 56.488281 203.203125 56.082031 C 201.773438 55.691406 201.011719 55.488281 201.011719 55.488281 C 201.011719 55.488281 201.757812 55.730469 203.167969 56.191406 C 204.5625 56.667969 206.589844 57.453125 209.082031 58.605469 C 211.570312 59.785156 214.492188 61.421875 217.582031 63.664062 C 220.679688 65.894531 223.90625 68.773438 227 72.289062 C 230.074219 75.816406 232.972656 80.023438 235.390625 84.796875 C 237.800781 89.574219 239.800781 94.890625 241.082031 100.578125 C 242.375 106.257812 242.988281 112.292969 242.636719 118.386719 C 242.289062 124.476562 241.039062 130.601562 239.25 136.558594 C 237.4375 142.527344 235.085938 148.308594 232.4375 153.894531 C 229.828125 159.480469 226.96875 164.84375 223.941406 169.871094 C 220.9375 174.914062 217.816406 179.660156 214.660156 184.019531 C 211.480469 188.367188 208.289062 192.332031 205.230469 195.894531 C 202.113281 199.410156 199.226562 202.609375 196.511719 205.296875 C 195.171875 206.660156 193.898438 207.910156 192.683594 209.039062 C 191.492188 210.175781 190.382812 211.21875 189.355469 212.113281 C 187.335938 213.949219 185.695312 215.371094 184.558594 216.320312 C 184.445312 216.414062 184.359375 216.480469 184.261719 216.566406 C 184.234375 216.542969 184.210938 216.511719 184.1875 216.480469 C 182.816406 214.789062 181.496094 213.09375 180.199219 211.398438 C 180.535156 211.152344 180.925781 210.863281 181.378906 210.53125 C 182.171875 209.945312 183.144531 209.230469 184.253906 208.410156 C 184.8125 208 185.40625 207.566406 186.03125 207.105469 C 186.628906 206.589844 187.257812 206.046875 187.910156 205.476562 C 189.222656 204.347656 190.636719 203.113281 192.132812 201.820312 C 192.898438 201.191406 193.597656 200.453125 194.324219 199.722656 C 195.050781 198.984375 195.792969 198.238281 196.542969 197.472656 C 198.054688 195.945312 199.652344 194.410156 201.058594 192.648438 C 202.519531 190.945312 204.003906 189.207031 205.484375 187.472656 C 206.839844 185.636719 208.195312 183.800781 209.53125 181.996094 C 210.917969 180.230469 212.046875 178.332031 213.195312 176.53125 C 214.308594 174.714844 215.511719 173.03125 216.421875 171.296875 C 217.34375 169.574219 218.214844 167.949219 219.023438 166.445312 C 219.425781 165.691406 219.8125 164.976562 220.179688 164.292969 C 220.492188 163.582031 220.792969 162.910156 221.074219 162.273438 C 221.632812 161.007812 222.121094 159.90625 222.523438 159 C 223.328125 157.1875 223.789062 156.152344 223.789062 156.152344 C 223.789062 156.152344 223.285156 157.167969 222.398438 158.941406 C 221.960938 159.832031 221.425781 160.910156 220.808594 162.148438 C 220.5 162.761719 220.175781 163.417969 219.832031 164.109375 C 219.433594 164.777344 219.015625 165.480469 218.585938 166.207031 C 217.714844 167.664062 216.777344 169.242188 215.78125 170.914062 C 214.808594 172.597656 213.539062 174.214844 212.355469 175.96875 C 211.140625 177.703125 209.9375 179.53125 208.488281 181.214844 C 207.089844 182.941406 205.675781 184.699219 204.253906 186.449219 C 202.714844 188.101562 201.179688 189.746094 199.671875 191.363281 C 198.207031 193.03125 196.566406 194.476562 195.023438 195.910156 C 194.25 196.621094 193.488281 197.328125 192.746094 198.015625 C 192 198.703125 191.289062 199.394531 190.515625 199.964844 C 189.019531 201.15625 187.597656 202.285156 186.292969 203.320312 C 185.640625 203.839844 185.011719 204.335938 184.417969 204.8125 C 183.777344 205.242188 183.167969 205.652344 182.589844 206.039062 C 181.441406 206.804688 180.441406 207.476562 179.617188 208.03125 C 179.117188 208.367188 178.6875 208.652344 178.320312 208.894531 C 176.015625 205.78125 173.820312 202.65625 171.742188 199.515625 C 171.421875 199.03125 171.109375 198.550781 170.792969 198.070312 C 171.425781 197.589844 172.515625 196.765625 174.003906 195.640625 C 175.230469 194.746094 176.683594 193.566406 178.335938 192.179688 C 179.167969 191.496094 180.046875 190.769531 180.976562 190.003906 C 181.871094 189.203125 182.816406 188.363281 183.800781 187.480469 C 184.769531 186.59375 185.8125 185.703125 186.835938 184.71875 C 187.855469 183.726562 188.902344 182.699219 189.980469 181.648438 C 191.082031 180.613281 192.148438 179.492188 193.226562 178.328125 C 194.308594 177.171875 195.4375 176.011719 196.539062 174.792969 C 198.6875 172.300781 200.964844 169.78125 203.074219 167.046875 C 205.273438 164.386719 207.285156 161.515625 209.375 158.699219 C 211.3125 155.78125 213.335938 152.921875 215.082031 149.953125 C 216.933594 147.042969 218.53125 144.050781 220.140625 141.191406 C 220.910156 139.75 221.617188 138.300781 222.335938 136.890625 C 223.058594 135.492188 223.746094 134.109375 224.34375 132.730469 C 224.964844 131.363281 225.570312 130.03125 226.152344 128.746094 C 226.726562 127.453125 227.207031 126.179688 227.707031 124.96875 C 228.191406 123.75 228.660156 122.589844 229.105469 121.480469 C 229.5 120.351562 229.882812 119.285156 230.238281 118.285156 C 230.964844 116.28125 231.574219 114.53125 231.992188 113.0625 C 232.894531 110.144531 233.40625 108.480469 233.40625 108.480469 C 233.40625 108.480469 232.855469 110.136719 231.878906 113.023438 C 231.425781 114.484375 230.773438 116.21875 229.996094 118.195312 C 229.613281 119.1875 229.214844 120.238281 228.785156 121.351562 C 228.3125 122.445312 227.820312 123.597656 227.304688 124.800781 C 226.777344 125.992188 226.265625 127.257812 225.664062 128.527344 C 225.050781 129.792969 224.414062 131.105469 223.757812 132.453125 C 223.132812 133.808594 222.414062 135.164062 221.65625 136.542969 C 220.90625 137.925781 220.175781 139.347656 219.367188 140.769531 C 217.695312 143.570312 216.039062 146.503906 214.125 149.34375 C 212.316406 152.25 210.238281 155.046875 208.242188 157.882812 C 206.105469 160.628906 204.042969 163.421875 201.796875 166 C 199.640625 168.65625 197.320312 171.09375 195.140625 173.5 C 194.023438 174.683594 192.875 175.800781 191.78125 176.917969 C 190.691406 178.035156 189.601562 179.113281 188.492188 180.113281 C 187.40625 181.128906 186.34375 182.113281 185.320312 183.066406 C 184.28125 184.011719 183.230469 184.867188 182.246094 185.714844 C 181.257812 186.558594 180.3125 187.363281 179.410156 188.125 C 178.484375 188.855469 177.605469 189.542969 176.777344 190.191406 C 175.136719 191.496094 173.683594 192.621094 172.421875 193.496094 C 171.011719 194.503906 169.957031 195.261719 169.304688 195.734375 C 167.5 192.859375 165.839844 189.984375 164.363281 187.097656 C 177.800781 175.667969 189.230469 164.03125 200.363281 150.203125 C 211.910156 135.851562 220.261719 118.835938 222.246094 100.515625 C 223.347656 90.308594 222.015625 80.886719 216.824219 72.027344 C 213.699219 66.675781 209.84375 62.195312 205.042969 59.21875 C 183.113281 43.804688 122.28125 58.3125 76.375 99.765625 C 49.429688 124.101562 17.144531 159.390625 16.382812 189.332031 C 16.117188 199.761719 19.738281 208.808594 27.140625 216.210938 C 33.097656 222.167969 43.675781 225.023438 56.699219 225.023438 C 76.941406 225.023438 103.066406 218.109375 126.867188 205.265625 L 127.085938 206.417969 C 127.429688 208.167969 127.75 209.9375 128.121094 211.699219 C 128.574219 213.421875 129.03125 215.148438 129.488281 216.886719 C 129.960938 218.617188 130.566406 220.316406 131.105469 222.046875 L 131.523438 223.339844 L 131.632812 223.664062 L 131.753906 224.015625 L 131.992188 224.648438 L 132.933594 227.179688 L 133.875 229.722656 C 134.207031 230.570312 134.589844 231.421875 134.945312 232.277344 C 135.683594 233.972656 136.355469 235.722656 137.179688 237.386719 C 138.644531 240.566406 140.242188 243.714844 141.949219 246.835938 C 141.601562 246.949219 141.207031 247.089844 140.695312 247.257812 C 139.179688 247.773438 136.949219 248.523438 134.09375 249.421875 C 131.25 250.347656 127.753906 251.332031 123.753906 252.46875 C 119.742188 253.574219 115.191406 254.726562 110.191406 255.761719 C 105.1875 256.773438 99.75 257.796875 93.953125 258.46875 C 92.503906 258.636719 91.035156 258.761719 89.546875 258.914062 C 88.058594 259.011719 86.550781 259.113281 85.027344 259.214844 C 83.507812 259.246094 82 259.320312 80.429688 259.324219 C 78.878906 259.300781 77.191406 259.320312 75.703125 259.25 C 69.402344 259.039062 62.90625 258.066406 56.527344 256.28125 C 50.152344 254.492188 43.898438 251.847656 38.207031 248.285156 C 32.523438 244.71875 27.429688 240.214844 23.449219 234.96875 C 19.480469 229.710938 16.578125 223.785156 14.820312 217.714844 C 13.070312 211.636719 12.363281 205.484375 12.433594 199.664062 C 12.511719 193.851562 13.40625 188.332031 14.648438 183.390625 C 17.175781 173.460938 21.210938 165.78125 24.242188 160.632812 C 25.753906 158.042969 27.082031 156.082031 27.980469 154.75 C 28.898438 153.429688 29.394531 152.726562 29.394531 152.726562 C 29.394531 152.726562 28.871094 153.40625 27.890625 154.683594 C 26.925781 155.980469 25.519531 157.878906 23.886719 160.410156 C 20.652344 165.46875 16.3125 173.042969 13.375 183.046875 C 11.90625 188.046875 10.898438 193.609375 10.648438 199.613281 C 10.425781 205.59375 10.988281 211.957031 12.648438 218.316406 C 14.320312 224.65625 17.160156 230.988281 21.265625 236.59375 C 25.390625 242.191406 30.679688 247.011719 36.585938 250.832031 C 42.496094 254.65625 48.984375 257.507812 55.605469 259.476562 C 62.226562 261.429688 68.976562 262.542969 75.550781 262.859375 C 77.277344 262.96875 78.789062 262.914062 80.398438 262.945312 C 81.996094 262.933594 83.617188 262.855469 85.199219 262.8125 C 86.765625 262.703125 88.320312 262.597656 89.851562 262.488281 C 91.378906 262.332031 92.890625 262.199219 94.371094 262.019531 C 100.308594 261.289062 105.875 260.328125 110.929688 259.101562 C 115.988281 257.90625 120.574219 256.613281 124.609375 255.386719 C 128.640625 254.15625 132.089844 252.898438 134.929688 251.855469 C 137.765625 250.796875 139.972656 249.941406 141.460938 249.304688 C 142.109375 249.03125 142.601562 248.828125 142.980469 248.671875 C 148.320312 258.132812 154.722656 267.238281 162.070312 275.707031 C 172.386719 287.445312 184.496094 297.875 198.027344 306.304688 C 201.40625 308.304688 204.714844 310.371094 208.148438 312.308594 L 213.328125 315.1875 L 215.921875 316.617188 L 218.558594 317.945312 L 223.820312 320.59375 C 225.566406 321.484375 227.378906 322.238281 229.15625 323.066406 C 230.941406 323.867188 232.707031 324.703125 234.5 325.472656 C 236.3125 326.199219 238.121094 326.929688 239.925781 327.65625 C 247.136719 330.578125 254.503906 332.929688 261.84375 335.007812 C 263.675781 335.558594 265.542969 335.917969 267.382812 336.378906 C 269.246094 336.820312 271.101562 337.257812 272.953125 337.695312 C 276.636719 338.320312 280.234375 339.058594 284.019531 339.375 C 287.75 339.890625 291.4375 339.910156 295.097656 340.101562 C 296.925781 340.066406 298.746094 340.035156 300.5625 340 C 301.464844 339.96875 302.371094 339.984375 303.273438 339.914062 C 304.167969 339.832031 305.066406 339.746094 305.957031 339.667969 C 313.128906 339.203125 320.042969 337.632812 326.578125 335.621094 C 328.195312 335.046875 329.800781 334.480469 331.394531 333.914062 L 331.988281 333.703125 L 332.136719 333.648438 L 332.316406 333.570312 L 332.601562 333.445312 L 333.734375 332.941406 C 334.488281 332.59375 335.234375 332.308594 335.992188 331.902344 C 339.050781 330.425781 341.820312 328.699219 344.507812 326.894531 C 349.769531 323.144531 354.386719 318.882812 358.132812 314.222656 C 361.890625 309.585938 364.945312 304.691406 367.160156 299.722656 C 369.40625 294.753906 370.847656 289.808594 371.722656 285.039062 C 373.441406 275.515625 372.886719 266.996094 371.59375 260.238281 "/></g><path style=" stroke:none;fill-rule:nonzero;fill:#000000;fill-opacity:1;" d="M 301.292969 322.816406 C 297.523438 322.605469 293.285156 322.191406 288.691406 321.582031 C 284.09375 320.972656 279.152344 320.054688 273.96875 318.929688 C 268.789062 317.804688 263.382812 316.328125 257.863281 314.625 C 252.335938 312.925781 246.722656 310.875 241.117188 308.5625 C 235.519531 306.25 229.921875 303.621094 224.566406 300.691406 C 221.820312 299.195312 219.25 297.617188 216.589844 296.054688 C 214.011719 294.402344 211.414062 292.789062 208.953125 291.027344 C 203.984375 287.574219 199.226562 283.960938 194.824219 280.21875 C 190.398438 276.503906 186.296875 272.695312 182.53125 268.960938 C 181.589844 268.023438 180.664062 267.09375 179.761719 266.179688 C 178.875 265.238281 178.007812 264.308594 177.152344 263.398438 C 175.40625 261.605469 173.839844 259.769531 172.28125 258.046875 C 170.746094 256.3125 169.34375 254.582031 167.96875 252.96875 C 166.636719 251.316406 165.375 249.753906 164.1875 248.285156 C 161.890625 245.277344 159.882812 242.65625 158.316406 240.441406 C 156.703125 238.25 155.503906 236.472656 154.667969 235.273438 C 153.835938 234.078125 153.390625 233.433594 153.390625 233.433594 C 153.390625 233.433594 153.765625 234.117188 154.472656 235.398438 C 155.1875 236.667969 156.171875 238.574219 157.613281 240.898438 C 158.996094 243.257812 160.78125 246.054688 162.890625 249.226562 C 163.980469 250.792969 165.140625 252.453125 166.363281 254.210938 C 167.660156 255.910156 168.980469 257.738281 170.433594 259.578125 C 173.351562 263.261719 176.585938 267.203125 180.300781 271.117188 C 182.097656 273.132812 184.09375 275.050781 186.070312 277.089844 C 188.144531 279.015625 190.210938 281.054688 192.449219 282.96875 C 194.632812 284.953125 196.964844 286.835938 199.304688 288.765625 C 201.707031 290.617188 204.132812 292.511719 206.691406 294.261719 C 209.199219 296.082031 211.839844 297.753906 214.46875 299.472656 C 217.136719 301.078125 219.867188 302.757812 222.613281 304.214844 C 228.199219 307.214844 233.902344 309.839844 239.652344 312.164062 C 245.414062 314.4375 251.191406 316.378906 256.859375 317.992188 C 262.515625 319.628906 268.085938 320.84375 273.390625 321.824219 C 278.691406 322.808594 283.761719 323.429688 288.445312 323.828125 C 293.132812 324.234375 297.445312 324.339844 301.257812 324.316406 C 305.078125 324.296875 308.394531 324.050781 311.121094 323.8125 C 313.839844 323.566406 315.964844 323.238281 317.410156 323.015625 C 318.851562 322.777344 319.621094 322.648438 319.621094 322.648438 C 319.621094 322.648438 318.84375 322.703125 317.386719 322.808594 C 315.933594 322.90625 313.789062 322.988281 311.074219 323.035156 C 308.359375 323.066406 305.066406 323.019531 301.292969 322.816406 "/><path style=" stroke:none;fill-rule:nonzero;fill:#000000;fill-opacity:1;" d="M 134.320312 184.570312 C 134.796875 182.480469 135.144531 180.367188 135.730469 178.34375 C 136.210938 176.285156 136.929688 174.335938 137.53125 172.421875 C 137.898438 171.488281 138.253906 170.5625 138.609375 169.664062 C 138.777344 169.214844 138.949219 168.769531 139.117188 168.328125 C 139.3125 167.894531 139.5 167.46875 139.6875 167.042969 C 140.058594 166.203125 140.425781 165.382812 140.777344 164.589844 C 141.171875 163.8125 141.550781 163.066406 141.917969 162.347656 C 142.628906 160.902344 143.371094 159.628906 144.023438 158.492188 C 144.664062 157.34375 145.25 156.359375 145.785156 155.578125 C 146.804688 153.980469 147.382812 153.070312 147.382812 153.070312 C 147.382812 153.070312 146.71875 153.921875 145.550781 155.417969 C 144.960938 156.152344 144.296875 157.085938 143.570312 158.195312 C 143.199219 158.746094 142.804688 159.328125 142.386719 159.941406 C 141.980469 160.570312 141.617188 161.257812 141.199219 161.957031 C 140.800781 162.664062 140.378906 163.402344 139.945312 164.167969 C 139.550781 164.957031 139.144531 165.765625 138.722656 166.601562 C 137.828125 168.25 137.175781 170.125 136.382812 172.003906 C 135.734375 173.9375 134.980469 175.914062 134.457031 177.996094 C 133.828125 180.050781 133.417969 182.195312 132.992188 184.332031 C 132.699219 186.492188 132.332031 188.644531 132.226562 190.789062 C 132.003906 192.925781 132.03125 195.039062 131.984375 197.082031 C 132.003906 198.101562 132.085938 199.105469 132.132812 200.089844 C 132.160156 200.574219 132.183594 201.0625 132.214844 201.535156 C 132.269531 202.015625 132.324219 202.488281 132.378906 202.953125 C 132.488281 203.882812 132.597656 204.78125 132.695312 205.652344 C 132.828125 206.523438 132.996094 207.359375 133.136719 208.160156 C 133.378906 209.769531 133.761719 211.214844 134.097656 212.492188 C 134.410156 213.777344 134.71875 214.882812 135.035156 215.78125 C 135.632812 217.574219 135.972656 218.605469 135.972656 218.605469 C 135.972656 218.605469 135.722656 217.550781 135.28125 215.710938 C 135.027344 214.804688 134.796875 213.683594 134.574219 212.386719 C 134.449219 211.746094 134.328125 211.058594 134.1875 210.328125 C 134.066406 209.609375 133.992188 208.835938 133.871094 208.039062 C 133.769531 207.238281 133.632812 206.414062 133.539062 205.546875 C 133.476562 204.683594 133.40625 203.785156 133.335938 202.867188 C 133.140625 201.03125 133.238281 199.085938 133.164062 197.078125 C 133.238281 195.074219 133.234375 192.992188 133.484375 190.898438 C 133.621094 188.792969 134.011719 186.6875 134.320312 184.570312 "/><path style=" stroke:none;fill-rule:nonzero;fill:#000000;fill-opacity:1;" d="M 362.019531 288.828125 C 361.820312 289.050781 361.628906 289.277344 361.414062 289.5 C 358.496094 292.667969 354.195312 295.835938 348.652344 298.101562 C 343.105469 300.394531 336.363281 301.660156 329.007812 301.765625 C 321.632812 301.878906 313.664062 300.738281 305.429688 298.738281 C 297.203125 296.691406 288.613281 294.0625 279.953125 290.792969 C 271.273438 287.574219 262.496094 283.734375 253.847656 279.296875 C 245.207031 274.847656 236.691406 269.824219 228.527344 264.28125 C 220.355469 258.734375 212.542969 252.675781 205.179688 246.347656 C 197.8125 240.015625 190.964844 233.3125 184.730469 226.476562 C 181.59375 223.070312 178.664062 219.585938 175.832031 216.152344 C 173.074219 212.699219 170.359375 209.203125 167.871094 205.804688 C 162.875 198.964844 158.6875 192.097656 155.960938 185.261719 C 153.226562 178.4375 151.976562 171.707031 152.179688 165.742188 C 152.335938 159.769531 153.785156 154.632812 155.613281 150.746094 C 157.4375 146.839844 159.628906 144.175781 161.226562 142.507812 C 162.039062 141.683594 162.699219 141.085938 163.160156 140.699219 C 163.625 140.316406 163.859375 140.121094 163.859375 140.121094 C 163.859375 140.121094 163.613281 140.308594 163.132812 140.667969 C 162.652344 141.03125 161.964844 141.597656 161.105469 142.390625 C 159.429688 143.992188 157.074219 146.574219 155.097656 150.5 C 153.109375 154.386719 151.449219 159.570312 151.078125 165.691406 C 150.621094 171.820312 151.8125 178.808594 154.464844 185.84375 C 157.109375 192.914062 161.238281 200.003906 166.148438 207.03125 C 171.046875 214.050781 176.730469 221.121094 182.96875 228.070312 C 189.226562 235.015625 196.089844 241.835938 203.492188 248.289062 C 208.53125 252.730469 213.875 256.941406 219.382812 260.949219 C 219.308594 260.90625 219.234375 260.855469 219.160156 260.8125 C 235.738281 273.453125 250.367188 283.9375 269.390625 292.464844 C 288.414062 300.988281 309.0625 306.710938 329.914062 306.585938 C 338.75 306.53125 348.359375 304.605469 356.089844 300.308594 C 363.773438 296.027344 368.351562 286.789062 368.433594 277.992188 C 368.433594 277.988281 368.4375 277.976562 368.4375 277.976562 C 368.4375 277.976562 368.433594 277.988281 368.433594 277.988281 C 368.433594 277.949219 368.4375 277.902344 368.4375 277.859375 C 366.824219 281.792969 364.679688 285.542969 362.019531 288.828125 "/><path style=" stroke:none;fill-rule:nonzero;fill:#000000;fill-opacity:1;" d="M 259.199219 188.046875 C 261.398438 189.542969 263.894531 191.207031 266.625 193.007812 C 269.332031 194.847656 272.191406 196.941406 275.246094 199.105469 C 276.800781 200.15625 278.277344 201.394531 279.851562 202.574219 C 281.40625 203.765625 283.003906 204.988281 284.628906 206.226562 C 287.824219 208.761719 290.984375 211.5625 294.265625 214.3125 C 295.808594 215.789062 297.371094 217.28125 298.933594 218.777344 C 300.46875 220.308594 302.164062 221.691406 303.582031 223.335938 C 305.066406 224.929688 306.546875 226.519531 308.019531 228.109375 C 308.746094 228.910156 309.507812 229.675781 310.199219 230.496094 C 310.871094 231.339844 311.539062 232.179688 312.207031 233.015625 C 313.542969 234.691406 314.867188 236.347656 316.175781 237.984375 C 317.5 239.585938 318.640625 241.355469 319.859375 243 C 322.210938 246.34375 324.441406 249.578125 326.40625 252.765625 C 327.445312 254.324219 328.304688 255.925781 329.191406 257.449219 C 329.625 258.210938 330.054688 258.964844 330.476562 259.699219 C 330.855469 260.457031 331.234375 261.203125 331.597656 261.929688 C 333.132812 264.8125 334.289062 267.574219 335.347656 270.007812 C 336.320312 272.472656 337.035156 274.679688 337.675781 276.480469 C 338.671875 280.164062 339.234375 282.269531 339.234375 282.269531 C 339.234375 282.269531 338.773438 280.132812 337.96875 276.390625 C 337.398438 274.570312 336.773438 272.320312 335.890625 269.796875 C 334.914062 267.316406 333.898438 264.46875 332.40625 261.53125 C 332.054688 260.789062 331.691406 260.027344 331.328125 259.253906 C 330.921875 258.503906 330.507812 257.738281 330.085938 256.957031 C 329.234375 255.398438 328.398438 253.761719 327.402344 252.164062 C 325.492188 248.917969 323.339844 245.554688 321.015625 242.179688 C 319.804688 240.515625 318.707031 238.769531 317.355469 237.109375 C 316.050781 235.441406 314.726562 233.757812 313.390625 232.054688 C 312.722656 231.203125 312.054688 230.347656 311.382812 229.492188 C 310.691406 228.652344 309.921875 227.875 309.195312 227.058594 C 307.71875 225.449219 306.238281 223.824219 304.753906 222.203125 C 303.320312 220.539062 301.65625 219.101562 300.082031 217.585938 C 298.484375 216.089844 296.898438 214.597656 295.324219 213.125 C 291.992188 210.378906 288.78125 207.589844 285.539062 205.0625 C 282.234375 202.628906 279.117188 200.152344 275.988281 198.066406 C 272.859375 195.976562 269.929688 193.960938 267.164062 192.183594 C 264.382812 190.449219 261.824219 188.863281 259.542969 187.480469 C 257.273438 186.09375 255.230469 184.980469 253.585938 184.011719 C 250.261719 182.121094 248.359375 181.042969 248.359375 181.042969 C 248.359375 181.042969 250.191406 182.230469 253.40625 184.308594 C 255.007812 185.34375 256.996094 186.550781 259.199219 188.046875 "/><path style=" stroke:none;fill-rule:nonzero;fill:#000000;fill-opacity:1;" d="M 13.457031 196.558594 C 13.457031 196.558594 13.402344 197.097656 13.296875 198.113281 C 13.21875 199.128906 13.164062 200.652344 13.351562 202.566406 C 13.53125 204.488281 14.003906 206.808594 14.917969 209.359375 C 15.820312 211.914062 17.199219 214.683594 19.144531 217.410156 C 21.0625 220.160156 23.53125 222.890625 26.605469 225.25 C 27.355469 225.8125 28.03125 226.4375 28.878906 226.980469 C 29.722656 227.53125 30.566406 228.089844 31.425781 228.652344 C 33.1875 229.640625 34.96875 230.679688 36.890625 231.507812 C 40.679688 233.273438 44.769531 234.6875 49 235.71875 C 50.046875 236.019531 51.121094 236.222656 52.183594 236.476562 L 53.855469 236.84375 L 55.457031 237.097656 C 57.59375 237.4375 59.738281 237.765625 61.886719 238.101562 C 62.425781 238.175781 62.953125 238.277344 63.5 238.339844 L 65.160156 238.453125 L 68.472656 238.691406 C 69.570312 238.765625 70.675781 238.84375 71.773438 238.917969 C 72.316406 238.953125 72.863281 239.007812 73.414062 239.023438 L 75.042969 239 C 77.207031 238.957031 79.359375 238.914062 81.480469 238.871094 L 83.066406 238.835938 L 84.636719 238.6875 C 85.679688 238.582031 86.710938 238.480469 87.734375 238.375 C 89.785156 238.144531 91.8125 238.007812 93.757812 237.660156 C 95.707031 237.289062 97.613281 236.925781 99.464844 236.574219 C 100.390625 236.398438 101.304688 236.21875 102.203125 236.050781 C 103.097656 235.851562 103.957031 235.566406 104.8125 235.339844 C 106.519531 234.855469 108.164062 234.382812 109.742188 233.933594 C 110.535156 233.707031 111.304688 233.484375 112.058594 233.265625 C 112.792969 232.984375 113.511719 232.707031 114.207031 232.441406 C 115.601562 231.898438 116.921875 231.386719 118.171875 230.90625 C 119.402344 230.402344 120.582031 230.023438 121.621094 229.519531 C 122.65625 229.011719 123.609375 228.546875 124.464844 228.132812 C 127.894531 226.445312 129.816406 225.457031 129.816406 225.457031 C 129.816406 225.457031 127.765625 226.199219 124.21875 227.539062 C 123.332031 227.886719 122.355469 228.261719 121.289062 228.671875 C 120.226562 229.082031 119.015625 229.363281 117.757812 229.753906 C 116.492188 230.125 115.148438 230.523438 113.734375 230.941406 C 113.027344 231.148438 112.300781 231.363281 111.558594 231.582031 C 110.800781 231.75 110.03125 231.921875 109.238281 232.097656 C 107.660156 232.445312 106.019531 232.808594 104.316406 233.175781 C 103.460938 233.355469 102.613281 233.582031 101.722656 233.722656 C 100.832031 233.851562 99.929688 233.984375 99.015625 234.117188 C 97.1875 234.382812 95.3125 234.65625 93.394531 234.9375 C 91.476562 235.207031 89.488281 235.21875 87.484375 235.402344 C 86.480469 235.480469 85.472656 235.550781 84.453125 235.628906 L 82.917969 235.738281 L 81.371094 235.730469 C 79.304688 235.714844 77.210938 235.699219 75.105469 235.691406 L 73.519531 235.691406 C 72.992188 235.664062 72.46875 235.609375 71.945312 235.578125 C 70.890625 235.492188 69.839844 235.40625 68.785156 235.324219 L 65.613281 235.082031 L 64.027344 234.957031 C 63.492188 234.890625 62.953125 234.789062 62.421875 234.707031 C 60.273438 234.371094 58.128906 234.023438 55.996094 233.6875 L 54.394531 233.445312 L 52.90625 233.128906 C 51.871094 232.894531 50.828125 232.707031 49.820312 232.429688 C 45.738281 231.445312 41.816406 230.171875 38.164062 228.632812 C 36.320312 227.90625 34.605469 226.964844 32.925781 226.097656 C 32.121094 225.617188 31.324219 225.144531 30.542969 224.675781 C 29.746094 224.242188 28.984375 223.609375 28.222656 223.089844 C 25.261719 221.046875 22.816406 218.597656 20.816406 216.15625 C 16.785156 211.226562 14.84375 206.113281 14.074219 202.457031 C 13.707031 200.613281 13.542969 199.136719 13.496094 198.121094 C 13.46875 197.101562 13.457031 196.558594 13.457031 196.558594 "/><path style=" stroke:none;fill-rule:nonzero;fill:#000000;fill-opacity:1;" d="M 108.648438 113.414062 C 107.808594 113.9375 106.894531 114.503906 105.921875 115.105469 C 103.976562 116.328125 101.742188 117.644531 99.453125 119.308594 C 98.292969 120.117188 97.082031 120.957031 95.832031 121.828125 C 94.59375 122.722656 93.363281 123.710938 92.078125 124.695312 C 89.472656 126.632812 86.894531 128.894531 84.199219 131.195312 C 81.617188 133.621094 78.859375 136.039062 76.3125 138.761719 C 73.675781 141.390625 71.214844 144.265625 68.707031 147.097656 C 66.316406 150.027344 63.933594 152.96875 61.761719 155.996094 C 60.648438 157.484375 59.550781 158.96875 58.566406 160.5 C 57.558594 162.019531 56.53125 163.496094 55.582031 164.992188 C 53.710938 167.996094 51.875 170.886719 50.328125 173.730469 C 49.539062 175.144531 48.765625 176.519531 48.019531 177.84375 C 47.316406 179.199219 46.644531 180.503906 45.992188 181.761719 C 44.660156 184.246094 43.582031 186.605469 42.605469 188.683594 C 41.613281 190.757812 40.800781 192.574219 40.144531 194.085938 C 38.820312 197.089844 38.105469 198.832031 38.105469 198.832031 C 38.105469 198.832031 39.046875 197.203125 40.625 194.320312 C 41.402344 192.871094 42.371094 191.121094 43.523438 189.152344 C 44.675781 187.179688 45.921875 184.929688 47.375 182.523438 C 48.8125 180.105469 50.367188 177.496094 52.089844 174.78125 C 53.757812 172.039062 55.683594 169.25 57.589844 166.316406 C 58.566406 164.867188 59.621094 163.433594 60.65625 161.957031 C 61.683594 160.480469 62.75 159.011719 63.871094 157.558594 C 66.027344 154.582031 68.429688 151.730469 70.761719 148.828125 C 73.210938 146.023438 75.613281 143.171875 78.1875 140.558594 C 80.660156 137.84375 83.292969 135.378906 85.789062 132.929688 C 88.402344 130.621094 90.820312 128.242188 93.324219 126.234375 C 94.554688 125.203125 95.753906 124.199219 96.910156 123.230469 C 98.097656 122.296875 99.25 121.398438 100.351562 120.535156 C 102.539062 118.777344 104.632812 117.28125 106.46875 115.921875 C 107.390625 115.246094 108.25 114.613281 109.050781 114.027344 C 109.867188 113.46875 110.617188 112.960938 111.296875 112.5 C 114.007812 110.644531 115.539062 109.558594 115.539062 109.558594 C 115.539062 109.558594 113.890625 110.449219 111.023438 112.066406 C 110.308594 112.476562 109.515625 112.925781 108.648438 113.414062 "/><g clip-rule="nonzero" clip-path="url(#4608d8e710)"><path style=" stroke:none;fill-rule:nonzero;fill:#000000;fill-opacity:1;" d="M 126.058594 196.058594 C 126.085938 196.921875 126.117188 197.789062 126.148438 198.660156 C 126.226562 199.65625 126.328125 200.390625 126.417969 201.273438 C 126.457031 201.640625 126.503906 202.011719 126.542969 202.378906 C 94.035156 220.1875 60.675781 225.207031 41.53125 220.511719 C 41.574219 220.078125 41.628906 219.484375 41.703125 218.722656 C 41.804688 216.957031 42.269531 214.503906 42.894531 211.394531 C 43.335938 209.851562 43.707031 208.113281 44.320312 206.285156 C 44.964844 204.460938 45.578125 202.460938 46.492188 200.417969 C 48.152344 196.273438 50.382812 191.730469 53.121094 186.929688 C 53.464844 186.328125 53.808594 185.722656 54.15625 185.109375 C 54.464844 184.589844 54.910156 183.925781 55.277344 183.332031 C 56.058594 182.113281 56.855469 180.871094 57.667969 179.605469 C 59.308594 177.097656 60.898438 174.402344 62.738281 171.824219 C 66.535156 166.78125 70.234375 161.246094 74.917969 156.132812 C 76.046875 154.824219 77.175781 153.503906 78.320312 152.167969 C 78.898438 151.507812 79.449219 150.816406 80.054688 150.179688 L 81.929688 148.292969 C 84.4375 145.773438 86.972656 143.21875 89.535156 140.648438 C 94.832031 135.648438 100.414062 130.871094 106.292969 126.394531 C 112.191406 121.96875 118.285156 117.78125 124.488281 113.992188 C 130.734375 110.230469 136.960938 106.789062 143.203125 103.683594 C 149.390625 100.617188 155.570312 97.988281 161.574219 95.980469 C 167.578125 93.953125 173.429688 92.578125 178.917969 91.84375 C 180.300781 91.601562 181.640625 91.488281 182.949219 91.371094 C 184.265625 91.257812 185.542969 91.089844 186.808594 91.097656 C 188.070312 91.0625 189.292969 91.027344 190.492188 90.992188 C 191.683594 91.042969 192.839844 91.082031 193.96875 91.125 C 194.527344 91.148438 195.082031 91.171875 195.625 91.195312 C 196.167969 91.253906 196.699219 91.3125 197.222656 91.371094 C 198.265625 91.492188 199.273438 91.609375 200.242188 91.71875 C 202.167969 92.027344 203.917969 92.417969 205.511719 92.707031 C 207.074219 93.136719 208.46875 93.523438 209.683594 93.855469 C 210.910156 94.164062 211.878906 94.636719 212.707031 94.910156 C 214.339844 95.523438 215.207031 95.84375 215.207031 95.84375 C 215.207031 95.84375 214.351562 95.484375 212.75 94.800781 C 211.933594 94.488281 210.980469 93.964844 209.769531 93.601562 C 208.5625 93.21875 207.175781 92.773438 205.625 92.273438 C 204.03125 91.917969 202.28125 91.46875 200.347656 91.089844 C 199.375 90.941406 198.359375 90.789062 197.3125 90.632812 C 196.78125 90.550781 196.25 90.472656 195.699219 90.394531 C 195.15625 90.347656 194.597656 90.308594 194.027344 90.265625 C 192.890625 90.179688 191.71875 90.097656 190.511719 90.003906 C 189.300781 90 188.054688 89.988281 186.777344 89.976562 C 185.496094 89.929688 184.179688 90.050781 182.835938 90.121094 C 181.484375 90.195312 180.101562 90.261719 178.730469 90.46875 C 173.15625 91.078125 167.160156 92.335938 161.023438 94.25 C 154.863281 96.148438 148.566406 98.652344 142.191406 101.625 C 140.59375 102.351562 139.035156 103.144531 137.4375 103.910156 C 135.824219 104.710938 134.273438 105.566406 132.667969 106.402344 C 131.066406 107.226562 129.476562 108.097656 127.902344 109.011719 C 126.324219 109.929688 124.71875 110.804688 123.140625 111.753906 C 116.820312 115.515625 110.601562 119.679688 104.566406 124.101562 C 98.5625 128.5625 92.785156 133.394531 87.390625 138.371094 C 84.792969 140.992188 82.21875 143.585938 79.675781 146.148438 L 77.777344 148.070312 C 77.164062 148.726562 76.605469 149.421875 76.015625 150.09375 C 74.863281 151.453125 73.710938 152.800781 72.574219 154.136719 C 67.851562 159.328125 64.050781 165.03125 60.195312 170.203125 L 59.488281 171.175781 L 58.871094 172.191406 C 58.460938 172.863281 58.054688 173.53125 57.648438 174.195312 C 56.84375 175.515625 56.046875 176.820312 55.265625 178.101562 C 54.476562 179.386719 53.710938 180.640625 52.953125 181.882812 C 52.570312 182.523438 52.21875 183.0625 51.816406 183.773438 C 51.476562 184.40625 51.140625 185.027344 50.808594 185.648438 C 48.144531 190.59375 45.898438 195.261719 44.359375 199.589844 C 43.507812 201.71875 42.949219 203.800781 42.363281 205.695312 C 41.804688 207.605469 41.488281 209.414062 41.097656 211.011719 C 40.546875 214.292969 40.210938 216.890625 40.214844 218.613281 C 40.1875 219.226562 40.164062 219.730469 40.144531 220.136719 C 36.507812 219.117188 33.433594 217.71875 31.050781 215.972656 C 26.339844 205.003906 25.429688 192.546875 27.390625 180.738281 C 29.535156 167.882812 34.910156 155.738281 41.664062 144.59375 C 46.679688 136.316406 52.457031 128.542969 58.414062 120.90625 C 64.363281 114.691406 70.957031 108.304688 78.191406 101.773438 C 100.554688 81.582031 127.46875 66.625 153.980469 59.667969 C 177.523438 53.484375 197.441406 54.933594 205.957031 63.445312 C 208.175781 65.671875 210.070312 68.039062 211.652344 70.542969 C 215.027344 76.515625 216.925781 83.464844 217.058594 90.304688 C 217.265625 101.160156 213.863281 111.660156 208.910156 121.421875 C 207.652344 123.796875 206.265625 126.199219 204.75 128.636719 L 204.75 128.617188 C 204.75 128.617188 204.265625 128.542969 203.328125 128.398438 C 202.390625 128.253906 201.011719 128.003906 199.136719 127.863281 C 195.421875 127.515625 189.9375 127.292969 183.050781 128.324219 C 176.191406 129.375 167.910156 131.710938 159.449219 136.539062 C 151.011719 141.3125 142.453125 148.800781 136.1875 159.089844 C 133.066406 164.21875 130.480469 169.96875 128.652344 176.195312 C 126.933594 182.433594 125.878906 189.140625 126.058594 196.058594 Z M 159.023438 172.601562 C 162.160156 170.652344 165.808594 169.578125 169.503906 169.492188 C 166.589844 172.191406 163.539062 174.90625 160.371094 177.636719 C 159.824219 175.953125 159.375 174.277344 159.023438 172.601562 Z M 158.160156 165.414062 C 158.125 163.675781 158.21875 161.964844 158.414062 160.296875 C 162.03125 149.6875 169.28125 140.957031 177.945312 137.96875 C 185.398438 135.398438 193.382812 133.972656 201.316406 133.855469 C 193.753906 144.808594 183.585938 156.296875 170.941406 168.144531 C 166.695312 167.960938 162.410156 169.015625 158.746094 171.171875 C 158.40625 169.230469 158.199219 167.300781 158.160156 165.414062 Z M 185.945312 217.992188 C 187.097656 217.070312 188.789062 215.710938 190.886719 213.859375 C 191.949219 212.960938 193.089844 211.917969 194.316406 210.785156 C 195.5625 209.664062 196.875 208.414062 198.25 207.050781 C 201.039062 204.359375 204.050781 201.195312 207.21875 197.628906 C 210.34375 194.023438 213.605469 190.019531 216.855469 185.628906 C 218.933594 182.769531 221.011719 179.746094 223.046875 176.59375 C 223.355469 176.699219 223.8125 176.863281 224.421875 177.082031 C 225.628906 177.496094 227.378906 178.136719 229.582031 178.992188 C 231.78125 179.847656 234.445312 180.929688 237.457031 182.273438 C 240.476562 183.609375 243.832031 185.21875 247.433594 187.085938 C 251.039062 188.945312 254.859375 191.125 258.828125 193.546875 C 262.792969 195.964844 266.863281 198.703125 270.957031 201.683594 C 279.148438 207.65625 287.398438 214.703125 294.910156 222.464844 C 302.441406 230.210938 309.25 238.636719 314.949219 246.996094 C 317.804688 251.164062 320.371094 255.332031 322.652344 259.363281 C 324.933594 263.398438 327 267.257812 328.539062 270.941406 C 330.105469 274.625 331.253906 278.101562 331.980469 281.230469 C 332.722656 284.363281 333.054688 287.136719 333.132812 289.40625 C 333.242188 291.683594 333.039062 293.449219 332.898438 294.640625 C 332.796875 295.257812 332.714844 295.71875 332.667969 296.019531 C 331.195312 296.15625 329.714844 296.25 328.226562 296.277344 C 319.980469 296.40625 311.699219 294.929688 303.5625 292.902344 C 287.261719 288.824219 271.429688 282.839844 256.71875 275.257812 C 241.984375 267.726562 228.359375 258.632812 216.191406 248.621094 C 204.640625 239.152344 194.429688 228.835938 185.644531 218.234375 C 185.75 218.152344 185.832031 218.085938 185.945312 217.992188 Z M 226.339844 171.296875 C 229.386719 166.171875 232.261719 160.710938 234.875 155.03125 C 237.117188 150.238281 239.148438 145.234375 240.832031 140.09375 C 240.929688 140.125 241.007812 140.148438 241.117188 140.179688 C 242.09375 140.496094 243.554688 140.894531 245.421875 141.542969 C 249.179688 142.769531 254.636719 144.75 261.394531 147.707031 C 268.148438 150.664062 276.15625 154.722656 284.910156 160.105469 C 293.648438 165.5 303.089844 172.28125 312.597656 180.601562 C 322.089844 188.9375 331.664062 198.796875 340.503906 210.25 C 344.925781 215.96875 349.171875 222.082031 353.121094 228.558594 C 357 235.039062 360.890625 241.851562 363.566406 249.140625 C 364.898438 252.785156 365.933594 256.574219 366.390625 260.4375 C 366.855469 264.285156 366.703125 268.253906 365.730469 271.964844 C 365.160156 274.269531 364.238281 276.460938 363.0625 278.511719 C 363.101562 278.226562 363.140625 277.949219 363.179688 277.648438 C 363.300781 276.707031 363.472656 275.6875 363.527344 274.601562 C 363.714844 272.417969 363.789062 269.960938 363.683594 267.28125 C 363.660156 266.609375 363.628906 265.925781 363.605469 265.230469 C 363.535156 264.53125 363.472656 263.820312 363.402344 263.097656 C 363.347656 262.375 363.257812 261.644531 363.125 260.898438 C 362.984375 260.128906 362.929688 259.433594 362.710938 258.585938 C 362.335938 257.125 361.949219 255.625 361.554688 254.097656 C 361.070312 252.558594 360.464844 250.992188 359.902344 249.398438 C 358.652344 246.28125 357.207031 243.164062 355.53125 240.105469 C 354.742188 238.542969 353.765625 237.058594 352.898438 235.5625 C 351.980469 234.074219 351.152344 232.539062 350.148438 231.074219 C 348.199219 228.125 346.316406 225.140625 344.246094 222.363281 C 343.230469 220.960938 342.25 219.546875 341.226562 218.191406 C 340.183594 216.851562 339.152344 215.53125 338.136719 214.230469 C 336.160156 211.597656 334.007812 209.238281 332.074219 206.917969 C 331.113281 205.75 330.105469 204.675781 329.132812 203.644531 C 328.167969 202.605469 327.226562 201.601562 326.332031 200.636719 C 325.445312 199.65625 324.53125 198.789062 323.660156 197.960938 C 322.796875 197.128906 321.976562 196.339844 321.203125 195.597656 C 320.421875 194.867188 319.726562 194.144531 319.023438 193.546875 C 318.320312 192.941406 317.671875 192.386719 317.089844 191.886719 C 314.753906 189.894531 313.417969 188.757812 313.417969 188.757812 C 313.417969 188.757812 314.707031 189.949219 316.960938 192.03125 C 317.523438 192.550781 318.148438 193.128906 318.820312 193.757812 C 319.496094 194.386719 320.164062 195.132812 320.910156 195.894531 C 322.371094 197.457031 324.121094 199.109375 325.824219 201.113281 C 326.6875 202.097656 327.59375 203.125 328.523438 204.1875 C 329.460938 205.246094 330.433594 206.339844 331.351562 207.53125 C 333.207031 209.894531 335.273438 212.296875 337.164062 214.980469 C 338.136719 216.300781 339.121094 217.644531 340.113281 219.003906 C 341.09375 220.378906 342.019531 221.8125 342.988281 223.234375 C 344.960938 226.050781 346.738281 229.054688 348.566406 232.011719 C 349.507812 233.46875 350.296875 235.050781 351.167969 236.558594 C 352.007812 238.109375 352.910156 239.5625 353.632812 241.109375 C 355.214844 244.132812 356.582031 247.210938 357.730469 250.210938 C 358.234375 251.726562 358.777344 253.1875 359.222656 254.671875 C 359.59375 256.207031 359.957031 257.710938 360.308594 259.175781 C 360.460938 259.789062 360.523438 260.582031 360.636719 261.257812 C 360.757812 261.953125 360.828125 262.652344 360.867188 263.34375 C 360.921875 264.03125 360.976562 264.714844 361.023438 265.378906 C 361.042969 266.050781 361.058594 266.707031 361.074219 267.351562 C 361.132812 269.925781 361 272.289062 360.820312 274.367188 C 360.773438 275.410156 360.597656 276.371094 360.484375 277.261719 C 360.425781 277.707031 360.367188 278.136719 360.3125 278.542969 C 360.226562 278.933594 360.148438 279.304688 360.074219 279.65625 C 359.925781 280.363281 359.789062 280.984375 359.675781 281.535156 C 359.492188 282.101562 359.332031 282.582031 359.210938 282.972656 C 358.976562 283.691406 358.847656 284.085938 358.828125 284.148438 C 356.671875 286.425781 354.175781 288.421875 351.464844 290.070312 C 348.039062 292.140625 344.265625 293.738281 340.367188 294.734375 C 338.9375 295.09375 337.488281 295.367188 336.03125 295.597656 C 336.054688 295.425781 336.085938 295.261719 336.113281 295.058594 C 336.253906 293.722656 336.457031 291.757812 336.3125 289.277344 C 336.199219 286.800781 335.800781 283.8125 334.980469 280.503906 C 334.175781 277.195312 332.933594 273.566406 331.269531 269.765625 C 329.621094 265.941406 327.46875 262.019531 325.109375 257.953125 C 322.742188 253.882812 320.097656 249.679688 317.144531 245.480469 C 311.269531 237.066406 304.269531 228.601562 296.5625 220.84375 C 288.867188 213.070312 280.449219 206.039062 272.105469 200.09375 C 267.9375 197.125 263.792969 194.40625 259.761719 192.007812 C 255.726562 189.609375 251.847656 187.453125 248.183594 185.617188 C 244.535156 183.769531 241.132812 182.183594 238.070312 180.875 C 235.019531 179.550781 232.324219 178.492188 230.085938 177.652344 C 227.84375 176.800781 226.078125 176.183594 224.871094 175.78125 C 224.433594 175.628906 224.089844 175.515625 223.804688 175.414062 C 224.660156 174.070312 225.503906 172.699219 226.339844 171.296875 Z M 371.59375 260.238281 C 370.308594 253.453125 368.238281 248.40625 366.722656 245.066406 C 365.964844 243.386719 365.292969 242.144531 364.832031 241.3125 C 364.382812 240.476562 364.148438 240.046875 364.148438 240.046875 C 364.148438 240.046875 364.367188 240.488281 364.789062 241.335938 C 365.214844 242.183594 365.835938 243.449219 366.527344 245.152344 C 367.921875 248.527344 369.761719 253.628906 370.859375 260.371094 C 371.957031 267.082031 372.253906 275.496094 370.308594 284.757812 C 368.367188 293.988281 363.992188 304.007812 356.472656 312.84375 C 352.769531 317.289062 348.226562 321.320312 343.101562 324.835938 C 340.496094 326.515625 337.75 328.148438 334.886719 329.46875 C 334.199219 329.832031 333.402344 330.121094 332.65625 330.453125 L 331.515625 330.933594 L 331.226562 331.058594 C 331.195312 331.066406 331.09375 331.113281 331.121094 331.097656 L 330.976562 331.144531 L 330.398438 331.339844 C 328.847656 331.859375 327.292969 332.378906 325.722656 332.902344 C 319.378906 334.742188 312.664062 336.078125 305.703125 336.507812 C 304.835938 336.578125 303.96875 336.652344 303.09375 336.726562 C 302.222656 336.789062 301.339844 336.765625 300.460938 336.785156 C 298.703125 336.808594 296.933594 336.828125 295.152344 336.847656 C 291.605469 336.625 287.992188 336.582031 284.441406 336.058594 C 280.890625 335.75 277.222656 334.972656 273.554688 334.316406 C 270.078125 333.4375 266.363281 332.609375 262.777344 331.617188 C 255.582031 329.519531 248.367188 327.15625 241.300781 324.222656 C 239.53125 323.496094 237.761719 322.765625 235.980469 322.03125 C 234.222656 321.261719 232.488281 320.425781 230.738281 319.625 C 228.996094 318.792969 227.222656 318.039062 225.503906 317.144531 L 220.335938 314.496094 C 216.855469 312.777344 213.53125 310.800781 210.121094 308.953125 C 206.730469 307.046875 203.382812 304.964844 200.015625 302.980469 C 186.910156 294.84375 174.996094 284.644531 164.925781 273.210938 C 154.914062 261.707031 146.652344 249.003906 140.546875 235.824219 C 137.546875 229.285156 134.878906 222.535156 132.871094 215.898438 C 132.414062 214.222656 131.953125 212.550781 131.492188 210.894531 C 131.152344 209.238281 130.808594 207.589844 130.46875 205.953125 L 130.21875 204.722656 L 130.0625 203.441406 C 129.960938 202.589844 129.855469 201.738281 129.757812 200.894531 C 129.664062 200.078125 129.53125 199.125 129.46875 198.4375 C 129.4375 197.609375 129.402344 196.789062 129.363281 195.972656 C 129.117188 189.410156 130.054688 183.011719 131.636719 177.03125 C 133.316406 171.074219 135.734375 165.539062 138.667969 160.589844 C 141.640625 155.644531 145.09375 151.355469 148.847656 147.65625 C 152.589844 143.976562 156.609375 140.980469 160.640625 138.582031 C 168.71875 133.769531 176.703125 131.339844 183.351562 130.195312 C 190.023438 129.070312 195.402344 129.101562 198.992188 129.359375 C 200.789062 129.441406 202.191406 129.65625 203.132812 129.773438 C 203.476562 129.820312 203.746094 129.851562 203.964844 129.882812 C 203.710938 130.277344 203.449219 130.679688 203.1875 131.078125 L 203.191406 131.066406 C 203.191406 131.066406 202.683594 130.921875 201.699219 130.640625 C 200.699219 130.367188 199.117188 130.042969 197.113281 129.820312 C 193.089844 129.441406 187.03125 129.585938 179.816406 131.90625 C 176.242188 133.085938 172.316406 134.828125 168.636719 137.539062 C 164.882812 140.28125 161.414062 144.082031 159.074219 148.9375 C 156.734375 153.769531 155.4375 159.453125 155.484375 165.410156 C 155.523438 171.457031 157.03125 177.640625 159.507812 183.628906 C 161.976562 189.636719 165.347656 195.46875 169.164062 201.214844 C 172.914062 206.960938 177.125 212.78125 181.703125 218.484375 C 190.890625 229.894531 201.6875 241.082031 214.066406 251.214844 C 226.429688 261.347656 240.265625 270.546875 255.238281 278.160156 C 270.175781 285.820312 286.25 291.859375 302.808594 295.96875 C 311.082031 298.007812 319.625 299.53125 328.28125 299.382812 C 332.59375 299.3125 336.925781 298.792969 341.117188 297.726562 C 345.347656 296.632812 349.359375 294.925781 353.058594 292.675781 C 356.738281 290.410156 360.09375 287.585938 362.789062 284.199219 C 365.496094 280.839844 367.53125 276.867188 368.5625 272.734375 C 369.632812 268.527344 369.746094 264.234375 369.230469 260.089844 C 368.714844 255.945312 367.59375 251.964844 366.183594 248.171875 C 364.761719 244.378906 363.050781 240.757812 361.203125 237.28125 C 360.28125 235.53125 359.289062 233.84375 358.359375 232.167969 C 357.390625 230.488281 356.375 228.820312 355.386719 227.167969 C 351.335938 220.632812 347.003906 214.464844 342.492188 208.699219 C 333.472656 197.171875 323.75 187.226562 314.058594 178.921875 C 304.363281 170.609375 294.753906 163.863281 285.882812 158.511719 C 276.992188 153.171875 268.875 149.15625 262.027344 146.246094 C 255.183594 143.328125 249.660156 141.394531 245.859375 140.199219 C 243.972656 139.566406 242.492188 139.175781 241.507812 138.867188 C 241.410156 138.839844 241.339844 138.820312 241.25 138.792969 C 241.410156 138.296875 241.582031 137.800781 241.730469 137.300781 C 243.566406 131.179688 244.753906 124.824219 245 118.5 C 245.257812 112.167969 244.519531 105.925781 243.089844 100.101562 C 241.675781 94.265625 239.535156 88.824219 236.894531 84.003906 C 234.273438 79.175781 231.183594 74.960938 227.933594 71.449219 C 224.679688 67.941406 221.296875 65.109375 218.050781 62.984375 C 214.824219 60.84375 211.800781 59.3125 209.253906 58.222656 C 206.699219 57.15625 204.625 56.488281 203.203125 56.082031 C 201.773438 55.691406 201.011719 55.488281 201.011719 55.488281 C 201.011719 55.488281 201.757812 55.730469 203.167969 56.191406 C 204.5625 56.667969 206.589844 57.453125 209.082031 58.605469 C 211.570312 59.785156 214.492188 61.421875 217.582031 63.664062 C 220.679688 65.894531 223.90625 68.773438 227 72.289062 C 230.074219 75.816406 232.972656 80.023438 235.390625 84.796875 C 237.800781 89.574219 239.800781 94.890625 241.082031 100.578125 C 242.375 106.257812 242.988281 112.292969 242.636719 118.386719 C 242.289062 124.476562 241.039062 130.601562 239.25 136.558594 C 237.4375 142.527344 235.085938 148.308594 232.4375 153.894531 C 229.828125 159.480469 226.96875 164.84375 223.941406 169.871094 C 220.9375 174.914062 217.816406 179.660156 214.660156 184.019531 C 211.480469 188.367188 208.289062 192.332031 205.230469 195.894531 C 202.113281 199.410156 199.226562 202.609375 196.511719 205.296875 C 195.171875 206.660156 193.898438 207.910156 192.683594 209.039062 C 191.492188 210.175781 190.382812 211.21875 189.355469 212.113281 C 187.335938 213.949219 185.695312 215.371094 184.558594 216.320312 C 184.445312 216.414062 184.359375 216.480469 184.261719 216.566406 C 184.234375 216.542969 184.210938 216.511719 184.1875 216.480469 C 182.816406 214.789062 181.496094 213.09375 180.199219 211.398438 C 180.535156 211.152344 180.925781 210.863281 181.378906 210.53125 C 182.171875 209.945312 183.144531 209.230469 184.253906 208.410156 C 184.8125 208 185.40625 207.566406 186.03125 207.105469 C 186.628906 206.589844 187.257812 206.046875 187.910156 205.476562 C 189.222656 204.347656 190.636719 203.113281 192.132812 201.820312 C 192.898438 201.191406 193.597656 200.453125 194.324219 199.722656 C 195.050781 198.984375 195.792969 198.238281 196.542969 197.472656 C 198.054688 195.945312 199.652344 194.410156 201.058594 192.648438 C 202.519531 190.945312 204.003906 189.207031 205.484375 187.472656 C 206.839844 185.636719 208.195312 183.800781 209.53125 181.996094 C 210.917969 180.230469 212.046875 178.332031 213.195312 176.53125 C 214.308594 174.714844 215.511719 173.03125 216.421875 171.296875 C 217.34375 169.574219 218.214844 167.949219 219.023438 166.445312 C 219.425781 165.691406 219.8125 164.976562 220.179688 164.292969 C 220.492188 163.582031 220.792969 162.910156 221.074219 162.273438 C 221.632812 161.007812 222.121094 159.90625 222.523438 159 C 223.328125 157.1875 223.789062 156.152344 223.789062 156.152344 C 223.789062 156.152344 223.285156 157.167969 222.398438 158.941406 C 221.960938 159.832031 221.425781 160.910156 220.808594 162.148438 C 220.5 162.761719 220.175781 163.417969 219.832031 164.109375 C 219.433594 164.777344 219.015625 165.480469 218.585938 166.207031 C 217.714844 167.664062 216.777344 169.242188 215.78125 170.914062 C 214.808594 172.597656 213.539062 174.214844 212.355469 175.96875 C 211.140625 177.703125 209.9375 179.53125 208.488281 181.214844 C 207.089844 182.941406 205.675781 184.699219 204.253906 186.449219 C 202.714844 188.101562 201.179688 189.746094 199.671875 191.363281 C 198.207031 193.03125 196.566406 194.476562 195.023438 195.910156 C 194.25 196.621094 193.488281 197.328125 192.746094 198.015625 C 192 198.703125 191.289062 199.394531 190.515625 199.964844 C 189.019531 201.15625 187.597656 202.285156 186.292969 203.320312 C 185.640625 203.839844 185.011719 204.335938 184.417969 204.8125 C 183.777344 205.242188 183.167969 205.652344 182.589844 206.039062 C 181.441406 206.804688 180.441406 207.476562 179.617188 208.03125 C 179.117188 208.367188 178.6875 208.652344 178.320312 208.894531 C 176.015625 205.78125 173.820312 202.65625 171.742188 199.515625 C 171.421875 199.03125 171.109375 198.550781 170.792969 198.070312 C 171.425781 197.589844 172.515625 196.765625 174.003906 195.640625 C 175.230469 194.746094 176.683594 193.566406 178.335938 192.179688 C 179.167969 191.496094 180.046875 190.769531 180.976562 190.003906 C 181.871094 189.203125 182.816406 188.363281 183.800781 187.480469 C 184.769531 186.59375 185.8125 185.703125 186.835938 184.71875 C 187.855469 183.726562 188.902344 182.699219 189.980469 181.648438 C 191.082031 180.613281 192.148438 179.492188 193.226562 178.328125 C 194.308594 177.171875 195.4375 176.011719 196.539062 174.792969 C 198.6875 172.300781 200.964844 169.78125 203.074219 167.046875 C 205.273438 164.386719 207.285156 161.515625 209.375 158.699219 C 211.3125 155.78125 213.335938 152.921875 215.082031 149.953125 C 216.933594 147.042969 218.53125 144.050781 220.140625 141.191406 C 220.910156 139.75 221.617188 138.300781 222.335938 136.890625 C 223.058594 135.492188 223.746094 134.109375 224.34375 132.730469 C 224.964844 131.363281 225.570312 130.03125 226.152344 128.746094 C 226.726562 127.453125 227.207031 126.179688 227.707031 124.96875 C 228.191406 123.75 228.660156 122.589844 229.105469 121.480469 C 229.5 120.351562 229.882812 119.285156 230.238281 118.285156 C 230.964844 116.28125 231.574219 114.53125 231.992188 113.0625 C 232.894531 110.144531 233.40625 108.480469 233.40625 108.480469 C 233.40625 108.480469 232.855469 110.136719 231.878906 113.023438 C 231.425781 114.484375 230.773438 116.21875 229.996094 118.195312 C 229.613281 119.1875 229.214844 120.238281 228.785156 121.351562 C 228.3125 122.445312 227.820312 123.597656 227.304688 124.800781 C 226.777344 125.992188 226.265625 127.257812 225.664062 128.527344 C 225.050781 129.792969 224.414062 131.105469 223.757812 132.453125 C 223.132812 133.808594 222.414062 135.164062 221.65625 136.542969 C 220.90625 137.925781 220.175781 139.347656 219.367188 140.769531 C 217.695312 143.570312 216.039062 146.503906 214.125 149.34375 C 212.316406 152.25 210.238281 155.046875 208.242188 157.882812 C 206.105469 160.628906 204.042969 163.421875 201.796875 166 C 199.640625 168.65625 197.320312 171.09375 195.140625 173.5 C 194.023438 174.683594 192.875 175.800781 191.78125 176.917969 C 190.691406 178.035156 189.601562 179.113281 188.492188 180.113281 C 187.40625 181.128906 186.34375 182.113281 185.320312 183.066406 C 184.28125 184.011719 183.230469 184.867188 182.246094 185.714844 C 181.257812 186.558594 180.3125 187.363281 179.410156 188.125 C 178.484375 188.855469 177.605469 189.542969 176.777344 190.191406 C 175.136719 191.496094 173.683594 192.621094 172.421875 193.496094 C 171.011719 194.503906 169.957031 195.261719 169.304688 195.734375 C 167.5 192.859375 165.839844 189.984375 164.363281 187.097656 C 177.800781 175.667969 189.230469 164.03125 200.363281 150.203125 C 211.910156 135.851562 220.261719 118.835938 222.246094 100.515625 C 223.347656 90.308594 222.015625 80.886719 216.824219 72.027344 C 213.699219 66.675781 209.84375 62.195312 205.042969 59.21875 C 183.113281 43.804688 122.28125 58.3125 76.375 99.765625 C 49.429688 124.101562 17.144531 159.390625 16.382812 189.332031 C 16.117188 199.761719 19.738281 208.808594 27.140625 216.210938 C 33.097656 222.167969 43.675781 225.023438 56.699219 225.023438 C 76.941406 225.023438 103.066406 218.109375 126.867188 205.265625 L 127.085938 206.417969 C 127.429688 208.167969 127.75 209.9375 128.121094 211.699219 C 128.574219 213.421875 129.03125 215.148438 129.488281 216.886719 C 129.960938 218.617188 130.566406 220.316406 131.105469 222.046875 L 131.523438 223.339844 L 131.632812 223.664062 L 131.753906 224.015625 L 131.992188 224.648438 L 132.933594 227.179688 L 133.875 229.722656 C 134.207031 230.570312 134.589844 231.421875 134.945312 232.277344 C 135.683594 233.972656 136.355469 235.722656 137.179688 237.386719 C 138.644531 240.566406 140.242188 243.714844 141.949219 246.835938 C 141.601562 246.949219 141.207031 247.089844 140.695312 247.257812 C 139.179688 247.773438 136.949219 248.523438 134.09375 249.421875 C 131.25 250.347656 127.753906 251.332031 123.753906 252.46875 C 119.742188 253.574219 115.191406 254.726562 110.191406 255.761719 C 105.1875 256.773438 99.75 257.796875 93.953125 258.46875 C 92.503906 258.636719 91.035156 258.761719 89.546875 258.914062 C 88.058594 259.011719 86.550781 259.113281 85.027344 259.214844 C 83.507812 259.246094 82 259.320312 80.429688 259.324219 C 78.878906 259.300781 77.191406 259.320312 75.703125 259.25 C 69.402344 259.039062 62.90625 258.066406 56.527344 256.28125 C 50.152344 254.492188 43.898438 251.847656 38.207031 248.285156 C 32.523438 244.71875 27.429688 240.214844 23.449219 234.96875 C 19.480469 229.710938 16.578125 223.785156 14.820312 217.714844 C 13.070312 211.636719 12.363281 205.484375 12.433594 199.664062 C 12.511719 193.851562 13.40625 188.332031 14.648438 183.390625 C 17.175781 173.460938 21.210938 165.78125 24.242188 160.632812 C 25.753906 158.042969 27.082031 156.082031 27.980469 154.75 C 28.898438 153.429688 29.394531 152.726562 29.394531 152.726562 C 29.394531 152.726562 28.871094 153.40625 27.890625 154.683594 C 26.925781 155.980469 25.519531 157.878906 23.886719 160.410156 C 20.652344 165.46875 16.3125 173.042969 13.375 183.046875 C 11.90625 188.046875 10.898438 193.609375 10.648438 199.613281 C 10.425781 205.59375 10.988281 211.957031 12.648438 218.316406 C 14.320312 224.65625 17.160156 230.988281 21.265625 236.59375 C 25.390625 242.191406 30.679688 247.011719 36.585938 250.832031 C 42.496094 254.65625 48.984375 257.507812 55.605469 259.476562 C 62.226562 261.429688 68.976562 262.542969 75.550781 262.859375 C 77.277344 262.96875 78.789062 262.914062 80.398438 262.945312 C 81.996094 262.933594 83.617188 262.855469 85.199219 262.8125 C 86.765625 262.703125 88.320312 262.597656 89.851562 262.488281 C 91.378906 262.332031 92.890625 262.199219 94.371094 262.019531 C 100.308594 261.289062 105.875 260.328125 110.929688 259.101562 C 115.988281 257.90625 120.574219 256.613281 124.609375 255.386719 C 128.640625 254.15625 132.089844 252.898438 134.929688 251.855469 C 137.765625 250.796875 139.972656 249.941406 141.460938 249.304688 C 142.109375 249.03125 142.601562 248.828125 142.980469 248.671875 C 148.320312 258.132812 154.722656 267.238281 162.070312 275.707031 C 172.386719 287.445312 184.496094 297.875 198.027344 306.304688 C 201.40625 308.304688 204.714844 310.371094 208.148438 312.308594 L 213.328125 315.1875 L 215.921875 316.617188 L 218.558594 317.945312 L 223.820312 320.59375 C 225.566406 321.484375 227.378906 322.238281 229.15625 323.066406 C 230.941406 323.867188 232.707031 324.703125 234.5 325.472656 C 236.3125 326.199219 238.121094 326.929688 239.925781 327.65625 C 247.136719 330.578125 254.503906 332.929688 261.84375 335.007812 C 263.675781 335.558594 265.542969 335.917969 267.382812 336.378906 C 269.246094 336.820312 271.101562 337.257812 272.953125 337.695312 C 276.636719 338.320312 280.234375 339.058594 284.019531 339.375 C 287.75 339.890625 291.4375 339.910156 295.097656 340.101562 C 296.925781 340.066406 298.746094 340.035156 300.5625 340 C 301.464844 339.96875 302.371094 339.984375 303.273438 339.914062 C 304.167969 339.832031 305.066406 339.746094 305.957031 339.667969 C 313.128906 339.203125 320.042969 337.632812 326.578125 335.621094 C 328.195312 335.046875 329.800781 334.480469 331.394531 333.914062 L 331.988281 333.703125 L 332.136719 333.648438 L 332.316406 333.570312 L 332.601562 333.445312 L 333.734375 332.941406 C 334.488281 332.59375 335.234375 332.308594 335.992188 331.902344 C 339.050781 330.425781 341.820312 328.699219 344.507812 326.894531 C 349.769531 323.144531 354.386719 318.882812 358.132812 314.222656 C 361.890625 309.585938 364.945312 304.691406 367.160156 299.722656 C 369.40625 294.753906 370.847656 289.808594 371.722656 285.039062 C 373.441406 275.515625 372.886719 266.996094 371.59375 260.238281 "/></g><path style=" stroke:none;fill-rule:nonzero;fill:#000000;fill-opacity:1;" d="M 301.292969 322.816406 C 297.523438 322.605469 293.285156 322.191406 288.691406 321.582031 C 284.09375 320.972656 279.152344 320.054688 273.96875 318.929688 C 268.789062 317.804688 263.382812 316.328125 257.863281 314.625 C 252.335938 312.925781 246.722656 310.875 241.117188 308.5625 C 235.519531 306.25 229.921875 303.621094 224.566406 300.691406 C 221.820312 299.195312 219.25 297.617188 216.589844 296.054688 C 214.011719 294.402344 211.414062 292.789062 208.953125 291.027344 C 203.984375 287.574219 199.226562 283.960938 194.824219 280.21875 C 190.398438 276.503906 186.296875 272.695312 182.53125 268.960938 C 181.589844 268.023438 180.664062 267.09375 179.761719 266.179688 C 178.875 265.238281 178.007812 264.308594 177.152344 263.398438 C 175.40625 261.605469 173.839844 259.769531 172.28125 258.046875 C 170.746094 256.3125 169.34375 254.582031 167.96875 252.96875 C 166.636719 251.316406 165.375 249.753906 164.1875 248.285156 C 161.890625 245.277344 159.882812 242.65625 158.316406 240.441406 C 156.703125 238.25 155.503906 236.472656 154.667969 235.273438 C 153.835938 234.078125 153.390625 233.433594 153.390625 233.433594 C 153.390625 233.433594 153.765625 234.117188 154.472656 235.398438 C 155.1875 236.667969 156.171875 238.574219 157.613281 240.898438 C 158.996094 243.257812 160.78125 246.054688 162.890625 249.226562 C 163.980469 250.792969 165.140625 252.453125 166.363281 254.210938 C 167.660156 255.910156 168.980469 257.738281 170.433594 259.578125 C 173.351562 263.261719 176.585938 267.203125 180.300781 271.117188 C 182.097656 273.132812 184.09375 275.050781 186.070312 277.089844 C 188.144531 279.015625 190.210938 281.054688 192.449219 282.96875 C 194.632812 284.953125 196.964844 286.835938 199.304688 288.765625 C 201.707031 290.617188 204.132812 292.511719 206.691406 294.261719 C 209.199219 296.082031 211.839844 297.753906 214.46875 299.472656 C 217.136719 301.078125 219.867188 302.757812 222.613281 304.214844 C 228.199219 307.214844 233.902344 309.839844 239.652344 312.164062 C 245.414062 314.4375 251.191406 316.378906 256.859375 317.992188 C 262.515625 319.628906 268.085938 320.84375 273.390625 321.824219 C 278.691406 322.808594 283.761719 323.429688 288.445312 323.828125 C 293.132812 324.234375 297.445312 324.339844 301.257812 324.316406 C 305.078125 324.296875 308.394531 324.050781 311.121094 323.8125 C 313.839844 323.566406 315.964844 323.238281 317.410156 323.015625 C 318.851562 322.777344 319.621094 322.648438 319.621094 322.648438 C 319.621094 322.648438 318.84375 322.703125 317.386719 322.808594 C 315.933594 322.90625 313.789062 322.988281 311.074219 323.035156 C 308.359375 323.066406 305.066406 323.019531 301.292969 322.816406 "/><path style=" stroke:none;fill-rule:nonzero;fill:#000000;fill-opacity:1;" d="M 134.320312 184.570312 C 134.796875 182.480469 135.144531 180.367188 135.730469 178.34375 C 136.210938 176.285156 136.929688 174.335938 137.53125 172.421875 C 137.898438 171.488281 138.253906 170.5625 138.609375 169.664062 C 138.777344 169.214844 138.949219 168.769531 139.117188 168.328125 C 139.3125 167.894531 139.5 167.46875 139.6875 167.042969 C 140.058594 166.203125 140.425781 165.382812 140.777344 164.589844 C 141.171875 163.8125 141.550781 163.066406 141.917969 162.347656 C 142.628906 160.902344 143.371094 159.628906 144.023438 158.492188 C 144.664062 157.34375 145.25 156.359375 145.785156 155.578125 C 146.804688 153.980469 147.382812 153.070312 147.382812 153.070312 C 147.382812 153.070312 146.71875 153.921875 145.550781 155.417969 C 144.960938 156.152344 144.296875 157.085938 143.570312 158.195312 C 143.199219 158.746094 142.804688 159.328125 142.386719 159.941406 C 141.980469 160.570312 141.617188 161.257812 141.199219 161.957031 C 140.800781 162.664062 140.378906 163.402344 139.945312 164.167969 C 139.550781 164.957031 139.144531 165.765625 138.722656 166.601562 C 137.828125 168.25 137.175781 170.125 136.382812 172.003906 C 135.734375 173.9375 134.980469 175.914062 134.457031 177.996094 C 133.828125 180.050781 133.417969 182.195312 132.992188 184.332031 C 132.699219 186.492188 132.332031 188.644531 132.226562 190.789062 C 132.003906 192.925781 132.03125 195.039062 131.984375 197.082031 C 132.003906 198.101562 132.085938 199.105469 132.132812 200.089844 C 132.160156 200.574219 132.183594 201.0625 132.214844 201.535156 C 132.269531 202.015625 132.324219 202.488281 132.378906 202.953125 C 132.488281 203.882812 132.597656 204.78125 132.695312 205.652344 C 132.828125 206.523438 132.996094 207.359375 133.136719 208.160156 C 133.378906 209.769531 133.761719 211.214844 134.097656 212.492188 C 134.410156 213.777344 134.71875 214.882812 135.035156 215.78125 C 135.632812 217.574219 135.972656 218.605469 135.972656 218.605469 C 135.972656 218.605469 135.722656 217.550781 135.28125 215.710938 C 135.027344 214.804688 134.796875 213.683594 134.574219 212.386719 C 134.449219 211.746094 134.328125 211.058594 134.1875 210.328125 C 134.066406 209.609375 133.992188 208.835938 133.871094 208.039062 C 133.769531 207.238281 133.632812 206.414062 133.539062 205.546875 C 133.476562 204.683594 133.40625 203.785156 133.335938 202.867188 C 133.140625 201.03125 133.238281 199.085938 133.164062 197.078125 C 133.238281 195.074219 133.234375 192.992188 133.484375 190.898438 C 133.621094 188.792969 134.011719 186.6875 134.320312 184.570312 "/><path style=" stroke:none;fill-rule:nonzero;fill:#000000;fill-opacity:1;" d="M 362.019531 288.828125 C 361.820312 289.050781 361.628906 289.277344 361.414062 289.5 C 358.496094 292.667969 354.195312 295.835938 348.652344 298.101562 C 343.105469 300.394531 336.363281 301.660156 329.007812 301.765625 C 321.632812 301.878906 313.664062 300.738281 305.429688 298.738281 C 297.203125 296.691406 288.613281 294.0625 279.953125 290.792969 C 271.273438 287.574219 262.496094 283.734375 253.847656 279.296875 C 245.207031 274.847656 236.691406 269.824219 228.527344 264.28125 C 220.355469 258.734375 212.542969 252.675781 205.179688 246.347656 C 197.8125 240.015625 190.964844 233.3125 184.730469 226.476562 C 181.59375 223.070312 178.664062 219.585938 175.832031 216.152344 C 173.074219 212.699219 170.359375 209.203125 167.871094 205.804688 C 162.875 198.964844 158.6875 192.097656 155.960938 185.261719 C 153.226562 178.4375 151.976562 171.707031 152.179688 165.742188 C 152.335938 159.769531 153.785156 154.632812 155.613281 150.746094 C 157.4375 146.839844 159.628906 144.175781 161.226562 142.507812 C 162.039062 141.683594 162.699219 141.085938 163.160156 140.699219 C 163.625 140.316406 163.859375 140.121094 163.859375 140.121094 C 163.859375 140.121094 163.613281 140.308594 163.132812 140.667969 C 162.652344 141.03125 161.964844 141.597656 161.105469 142.390625 C 159.429688 143.992188 157.074219 146.574219 155.097656 150.5 C 153.109375 154.386719 151.449219 159.570312 151.078125 165.691406 C 150.621094 171.820312 151.8125 178.808594 154.464844 185.84375 C 157.109375 192.914062 161.238281 200.003906 166.148438 207.03125 C 171.046875 214.050781 176.730469 221.121094 182.96875 228.070312 C 189.226562 235.015625 196.089844 241.835938 203.492188 248.289062 C 208.53125 252.730469 213.875 256.941406 219.382812 260.949219 C 219.308594 260.90625 219.234375 260.855469 219.160156 260.8125 C 235.738281 273.453125 250.367188 283.9375 269.390625 292.464844 C 288.414062 300.988281 309.0625 306.710938 329.914062 306.585938 C 338.75 306.53125 348.359375 304.605469 356.089844 300.308594 C 363.773438 296.027344 368.351562 286.789062 368.433594 277.992188 C 368.433594 277.988281 368.4375 277.976562 368.4375 277.976562 C 368.4375 277.976562 368.433594 277.988281 368.433594 277.988281 C 368.433594 277.949219 368.4375 277.902344 368.4375 277.859375 C 366.824219 281.792969 364.679688 285.542969 362.019531 288.828125 "/><path style=" stroke:none;fill-rule:nonzero;fill:#000000;fill-opacity:1;" d="M 259.199219 188.046875 C 261.398438 189.542969 263.894531 191.207031 266.625 193.007812 C 269.332031 194.847656 272.191406 196.941406 275.246094 199.105469 C 276.800781 200.15625 278.277344 201.394531 279.851562 202.574219 C 281.40625 203.765625 283.003906 204.988281 284.628906 206.226562 C 287.824219 208.761719 290.984375 211.5625 294.265625 214.3125 C 295.808594 215.789062 297.371094 217.28125 298.933594 218.777344 C 300.46875 220.308594 302.164062 221.691406 303.582031 223.335938 C 305.066406 224.929688 306.546875 226.519531 308.019531 228.109375 C 308.746094 228.910156 309.507812 229.675781 310.199219 230.496094 C 310.871094 231.339844 311.539062 232.179688 312.207031 233.015625 C 313.542969 234.691406 314.867188 236.347656 316.175781 237.984375 C 317.5 239.585938 318.640625 241.355469 319.859375 243 C 322.210938 246.34375 324.441406 249.578125 326.40625 252.765625 C 327.445312 254.324219 328.304688 255.925781 329.191406 257.449219 C 329.625 258.210938 330.054688 258.964844 330.476562 259.699219 C 330.855469 260.457031 331.234375 261.203125 331.597656 261.929688 C 333.132812 264.8125 334.289062 267.574219 335.347656 270.007812 C 336.320312 272.472656 337.035156 274.679688 337.675781 276.480469 C 338.671875 280.164062 339.234375 282.269531 339.234375 282.269531 C 339.234375 282.269531 338.773438 280.132812 337.96875 276.390625 C 337.398438 274.570312 336.773438 272.320312 335.890625 269.796875 C 334.914062 267.316406 333.898438 264.46875 332.40625 261.53125 C 332.054688 260.789062 331.691406 260.027344 331.328125 259.253906 C 330.921875 258.503906 330.507812 257.738281 330.085938 256.957031 C 329.234375 255.398438 328.398438 253.761719 327.402344 252.164062 C 325.492188 248.917969 323.339844 245.554688 321.015625 242.179688 C 319.804688 240.515625 318.707031 238.769531 317.355469 237.109375 C 316.050781 235.441406 314.726562 233.757812 313.390625 232.054688 C 312.722656 231.203125 312.054688 230.347656 311.382812 229.492188 C 310.691406 228.652344 309.921875 227.875 309.195312 227.058594 C 307.71875 225.449219 306.238281 223.824219 304.753906 222.203125 C 303.320312 220.539062 301.65625 219.101562 300.082031 217.585938 C 298.484375 216.089844 296.898438 214.597656 295.324219 213.125 C 291.992188 210.378906 288.78125 207.589844 285.539062 205.0625 C 282.234375 202.628906 279.117188 200.152344 275.988281 198.066406 C 272.859375 195.976562 269.929688 193.960938 267.164062 192.183594 C 264.382812 190.449219 261.824219 188.863281 259.542969 187.480469 C 257.273438 186.09375 255.230469 184.980469 253.585938 184.011719 C 250.261719 182.121094 248.359375 181.042969 248.359375 181.042969 C 248.359375 181.042969 250.191406 182.230469 253.40625 184.308594 C 255.007812 185.34375 256.996094 186.550781 259.199219 188.046875 "/></g></svg>