<svg xmlns="http://www.w3.org/2000/svg" xmlns:xlink="http://www.w3.org/1999/xlink" width="512" zoomAndPan="magnify" viewBox="0 0 384 383.999986" height="512" preserveAspectRatio="xMidYMid meet" version="1.2"><defs><clipPath id="fa8519a4f3"><path d="M 13.921875 272 L 369.769531 272 L 369.769531 361.398438 L 13.921875 361.398438 Z M 13.921875 272 "/></clipPath><clipPath id="a3fb6aad75"><path d="M 114.375 359.359375 L 217.375 359.359375 L 217.375 375.722656 L 114.375 375.722656 Z M 114.375 359.359375 "/></clipPath><clipPath id="3848417e04"><path d="M 13.921875 272 L 369.769531 272 L 369.769531 361.398438 L 13.921875 361.398438 Z M 13.921875 272 "/></clipPath><clipPath id="8f660b4b0f"><path d="M 114.375 359.359375 L 217.375 359.359375 L 217.375 375.722656 L 114.375 375.722656 Z M 114.375 359.359375 "/></clipPath></defs><g id="c9bc459ede"><path style=" stroke:none;fill-rule:nonzero;fill:#000000;fill-opacity:1;" d="M 200.21875 161.859375 C 220.347656 150.296875 226.507812 143.304688 226.632812 133.558594 C 226.910156 111.714844 183.570312 102.863281 180.28125 89.949219 C 178.0625 81.238281 249.332031 84.730469 249.332031 53.460938 C 249.332031 29.90625 206.351562 7.984375 203.933594 12.773438 C 202.148438 16.3125 246.667969 36.820312 246.667969 54.382812 C 246.667969 77.9375 179.089844 66.3125 179.089844 89.871094 C 179.089844 113 217.640625 112.144531 217.640625 135.269531 C 217.640625 149.402344 200.398438 155.777344 188.835938 163.058594 L 200.21875 161.859375 "/><g clip-rule="nonzero" clip-path="url(#fa8519a4f3)"><path style=" stroke:none;fill-rule:nonzero;fill:#000000;fill-opacity:1;" d="M 99.394531 272 C 62.132812 274.570312 8.101562 284.972656 14.429688 311.652344 C 33.800781 393.328125 365.808594 359.558594 369.699219 314.148438 C 372.195312 285.035156 305.808594 278.457031 263.664062 279.25 L 264.453125 281.746094 C 306.601562 284.242188 364.136719 286.464844 357.582031 314.941406 C 350.332031 346.429688 33.007812 377.125 24.175781 310.859375 C 20.550781 283.679688 62.925781 277.859375 100.1875 275.289062 L 99.394531 272 "/></g><path style=" stroke:none;fill-rule:nonzero;fill:#000000;fill-opacity:1;" d="M 247.648438 231.5 C 264.453125 274.496094 227.675781 311.578125 198.976562 314.148438 L 199.769531 317.316406 C 228.464844 314.746094 271.824219 278.457031 258 238.804688 L 247.648438 231.5 "/><path style=" stroke:none;fill-rule:nonzero;fill:#000000;fill-opacity:1;" d="M 286.378906 250.140625 C 315.503906 250.140625 333.398438 242.105469 333.398438 212.980469 C 333.398438 187.28125 299.074219 180.535156 290.683594 186.425781 L 290.925781 174.082031 C 316.625 177.933594 337.355469 187.28125 337.355469 212.980469 C 337.355469 242.105469 313.199219 254.171875 284.074219 254.171875 L 286.378906 250.140625 "/><path style=" stroke:none;fill-rule:evenodd;fill:#000000;fill-opacity:1;" d="M 288.082031 242.09375 C 300.65625 251.765625 334.980469 238.132812 329.316406 218.648438 C 334.980469 238.132812 302.246094 245.308594 289.671875 235.640625 L 288.082031 242.09375 "/><path style=" stroke:none;fill-rule:nonzero;fill:#000000;fill-opacity:1;" d="M 265.109375 192.996094 C 236.414062 194.28125 95.984375 196.964844 97.019531 177.289062 C 97.769531 163.058594 155.675781 159.460938 180.945312 159.460938 C 155.675781 159.460938 86.488281 160.0625 87.273438 180.578125 C 88.03125 200.269531 234.964844 198.066406 263.664062 196.78125 L 265.109375 192.996094 "/><path style=" stroke:none;fill-rule:nonzero;fill:#000000;fill-opacity:1;" d="M 231.265625 163.203125 C 259.839844 164.414062 283.753906 167.714844 284.09375 175.042969 C 284.652344 187.070312 180.957031 185.453125 139.839844 185.453125 L 145.503906 182.160156 C 186.621094 182.160156 280.597656 186.464844 279.902344 174.441406 C 279.566406 168.628906 257.15625 165.636719 230.066406 164.28125 L 231.265625 163.203125 "/><path style=" stroke:none;fill-rule:nonzero;fill:#000000;fill-opacity:1;" d="M 286.324219 205.613281 C 286.324219 269.003906 242.878906 330.347656 179.488281 330.347656 C 122.953125 330.347656 81.730469 271.878906 85.691406 194.285156 L 88.859375 190.324219 C 84.898438 267.921875 125.003906 325.796875 181.539062 325.796875 C 244.929688 325.796875 282.621094 261.121094 282.621094 197.730469 L 286.324219 205.613281 "/><path style=" stroke:none;fill-rule:evenodd;fill:#000000;fill-opacity:1;" d="M 109.738281 308.078125 C 102.875 333.667969 178.648438 341.699219 227.105469 334.023438 C 156.480469 346.390625 102.875 333.667969 109.738281 308.078125 "/><g clip-rule="nonzero" clip-path="url(#a3fb6aad75)"><path style=" stroke:none;fill-rule:nonzero;fill:#000000;fill-opacity:1;" d="M 114.40625 360.527344 C 124.945312 382.394531 217.160156 374.234375 217.160156 374.234375 L 216.242188 371.0625 C 216.242188 371.0625 130.488281 381.601562 119.953125 359.738281 L 114.40625 360.527344 "/></g><path style=" stroke:none;fill-rule:evenodd;fill:#000000;fill-opacity:1;" d="M 199.769531 29.226562 C 233.753906 64.796875 173.824219 51.699219 173.824219 77.828125 C 173.824219 51.699219 245.878906 69.667969 199.769531 29.226562 "/><path style=" stroke:none;fill-rule:evenodd;fill:#000000;fill-opacity:1;" d="M 219.140625 104.566406 C 250.75 130.390625 244.292969 143.304688 227.300781 161.089844 C 244.292969 146.59375 258.789062 118.273438 219.140625 104.566406 "/><path style=" stroke:none;fill-rule:nonzero;fill:#000000;fill-opacity:1;" d="M 200.21875 161.859375 C 220.347656 150.296875 226.507812 143.304688 226.632812 133.558594 C 226.910156 111.714844 183.570312 102.863281 180.28125 89.949219 C 178.0625 81.238281 249.332031 84.730469 249.332031 53.460938 C 249.332031 29.90625 206.351562 7.984375 203.933594 12.773438 C 202.148438 16.3125 246.667969 36.820312 246.667969 54.382812 C 246.667969 77.9375 179.089844 66.3125 179.089844 89.871094 C 179.089844 113 217.640625 112.144531 217.640625 135.269531 C 217.640625 149.402344 200.398438 155.777344 188.835938 163.058594 L 200.21875 161.859375 "/><g clip-rule="nonzero" clip-path="url(#3848417e04)"><path style=" stroke:none;fill-rule:nonzero;fill:#000000;fill-opacity:1;" d="M 99.394531 272 C 62.132812 274.570312 8.101562 284.972656 14.429688 311.652344 C 33.800781 393.328125 365.808594 359.558594 369.699219 314.148438 C 372.195312 285.035156 305.808594 278.457031 263.664062 279.25 L 264.453125 281.746094 C 306.601562 284.242188 364.136719 286.464844 357.582031 314.941406 C 350.332031 346.429688 33.007812 377.125 24.175781 310.859375 C 20.550781 283.679688 62.925781 277.859375 100.1875 275.289062 L 99.394531 272 "/></g><path style=" stroke:none;fill-rule:nonzero;fill:#000000;fill-opacity:1;" d="M 247.648438 231.5 C 264.453125 274.496094 227.675781 311.578125 198.976562 314.148438 L 199.769531 317.316406 C 228.464844 314.746094 271.824219 278.457031 258 238.804688 L 247.648438 231.5 "/><path style=" stroke:none;fill-rule:nonzero;fill:#000000;fill-opacity:1;" d="M 286.378906 250.140625 C 315.503906 250.140625 333.398438 242.105469 333.398438 212.980469 C 333.398438 187.28125 299.074219 180.535156 290.683594 186.425781 L 290.925781 174.082031 C 316.625 177.933594 337.355469 187.28125 337.355469 212.980469 C 337.355469 242.105469 313.199219 254.171875 284.074219 254.171875 L 286.378906 250.140625 "/><path style=" stroke:none;fill-rule:evenodd;fill:#000000;fill-opacity:1;" d="M 288.082031 242.09375 C 300.65625 251.765625 334.980469 238.132812 329.316406 218.648438 C 334.980469 238.132812 302.246094 245.308594 289.671875 235.640625 L 288.082031 242.09375 "/><path style=" stroke:none;fill-rule:nonzero;fill:#000000;fill-opacity:1;" d="M 265.109375 192.996094 C 236.414062 194.28125 95.984375 196.964844 97.019531 177.289062 C 97.769531 163.058594 155.675781 159.460938 180.945312 159.460938 C 155.675781 159.460938 86.488281 160.0625 87.273438 180.578125 C 88.03125 200.269531 234.964844 198.066406 263.664062 196.78125 L 265.109375 192.996094 "/><path style=" stroke:none;fill-rule:nonzero;fill:#000000;fill-opacity:1;" d="M 231.265625 163.203125 C 259.839844 164.414062 283.753906 167.714844 284.09375 175.042969 C 284.652344 187.070312 180.957031 185.453125 139.839844 185.453125 L 145.503906 182.160156 C 186.621094 182.160156 280.597656 186.464844 279.902344 174.441406 C 279.566406 168.628906 257.15625 165.636719 230.066406 164.28125 L 231.265625 163.203125 "/><path style=" stroke:none;fill-rule:nonzero;fill:#000000;fill-opacity:1;" d="M 286.324219 205.613281 C 286.324219 269.003906 242.878906 330.347656 179.488281 330.347656 C 122.953125 330.347656 81.730469 271.878906 85.691406 194.285156 L 88.859375 190.324219 C 84.898438 267.921875 125.003906 325.796875 181.539062 325.796875 C 244.929688 325.796875 282.621094 261.121094 282.621094 197.730469 L 286.324219 205.613281 "/><path style=" stroke:none;fill-rule:evenodd;fill:#000000;fill-opacity:1;" d="M 109.738281 308.078125 C 102.875 333.667969 178.648438 341.699219 227.105469 334.023438 C 156.480469 346.390625 102.875 333.667969 109.738281 308.078125 "/><g clip-rule="nonzero" clip-path="url(#8f660b4b0f)"><path style=" stroke:none;fill-rule:nonzero;fill:#000000;fill-opacity:1;" d="M 114.40625 360.527344 C 124.945312 382.394531 217.160156 374.234375 217.160156 374.234375 L 216.242188 371.0625 C 216.242188 371.0625 130.488281 381.601562 119.953125 359.738281 L 114.40625 360.527344 "/></g><path style=" stroke:none;fill-rule:evenodd;fill:#000000;fill-opacity:1;" d="M 199.769531 29.226562 C 233.753906 64.796875 173.824219 51.699219 173.824219 77.828125 C 173.824219 51.699219 245.878906 69.667969 199.769531 29.226562 "/><path style=" stroke:none;fill-rule:evenodd;fill:#000000;fill-opacity:1;" d="M 219.140625 104.566406 C 250.75 130.390625 244.292969 143.304688 227.300781 161.089844 C 244.292969 146.59375 258.789062 118.273438 219.140625 104.566406 "/></g></svg>