<svg xmlns="http://www.w3.org/2000/svg" xmlns:xlink="http://www.w3.org/1999/xlink" width="512" zoomAndPan="magnify" viewBox="0 0 384 383.999986" height="512" preserveAspectRatio="xMidYMid meet" version="1.2"><defs><clipPath id="844760af7c"><path d="M 24.410156 356 L 359.660156 356 L 359.660156 378.539062 L 24.410156 378.539062 Z M 24.410156 356 "/></clipPath><clipPath id="fe2a73ba73"><path d="M 189 5.789062 L 194 5.789062 L 194 68 L 189 68 Z M 189 5.789062 "/></clipPath><clipPath id="5c5eab3f9f"><path d="M 24.410156 356 L 359.660156 356 L 359.660156 378.539062 L 24.410156 378.539062 Z M 24.410156 356 "/></clipPath><clipPath id="cf5089e6c7"><path d="M 189 5.789062 L 194 5.789062 L 194 68 L 189 68 Z M 189 5.789062 "/></clipPath></defs><g id="88c7086b8c"><path style="fill:none;stroke-width:3;stroke-linecap:round;stroke-linejoin:round;stroke:#000000;stroke-opacity:1;stroke-miterlimit:4;" d="M 251.279329 176.521196 C 251.279329 176.521196 260.222189 162.689197 269.279819 173.672217 C 278.980159 185.380098 249.098703 207.199331 249.098703 207.199331 C 249.098703 207.199331 221.168333 186.939926 230.349915 174.387903 C 239.191777 162.349705 251.279329 176.521196 251.279329 176.521196 Z M 251.279329 176.521196 " transform="matrix(0.850888,0,0,0.851456,-20.685641,-24.487599)"/><g clip-rule="nonzero" clip-path="url(#844760af7c)"><path style="fill:none;stroke-width:4;stroke-linecap:round;stroke-linejoin:round;stroke:#000000;stroke-opacity:1;stroke-miterlimit:4;" d="M 59.829589 449.000106 L 440.158226 449.000106 C 440.479581 449.000106 440.791755 449.03222 441.103929 449.091861 C 441.420693 449.156089 441.723685 449.247843 442.017496 449.367124 C 442.311307 449.490993 442.591345 449.642388 442.85302 449.816721 C 443.119286 449.995643 443.362598 450.197503 443.587546 450.422302 C 443.812495 450.6471 444.01449 450.89025 444.193531 451.156338 C 444.367981 451.422426 444.519477 451.69769 444.638837 451.995892 C 444.762789 452.289507 444.854605 452.592297 444.918876 452.904262 C 444.978556 453.216228 445.010692 453.532781 445.010692 453.849334 L 445.010692 466.181146 C 445.010692 466.497699 444.978556 466.814253 444.918876 467.126218 C 444.854605 467.438183 444.762789 467.740974 444.638837 468.034588 C 444.519477 468.328203 444.367981 468.608054 444.193531 468.874142 C 444.01449 469.14023 443.812495 469.38338 443.587546 469.608179 C 443.362598 469.832977 443.119286 470.034837 442.85302 470.213759 C 442.591345 470.388092 442.311307 470.539487 442.017496 470.658768 C 441.723685 470.782637 441.420693 470.874392 441.103929 470.93862 C 440.791755 470.99826 440.479581 471.030374 440.158226 471.030374 L 59.829589 471.030374 C 59.512824 471.030374 59.19606 470.99826 58.883886 470.93862 C 58.571712 470.874392 58.26872 470.782637 57.97491 470.658768 C 57.681099 470.539487 57.401061 470.388092 57.134795 470.213759 C 56.868529 470.034837 56.625217 469.832977 56.400268 469.608179 C 56.17532 469.38338 55.973325 469.14023 55.798875 468.874142 C 55.619834 468.608054 55.472929 468.328203 55.348977 468.034588 C 55.225026 467.740974 55.13321 467.438183 55.07353 467.126218 C 55.009259 466.814253 54.981714 466.497699 54.981714 466.181146 L 54.981714 453.849334 C 54.981714 453.532781 55.009259 453.216228 55.07353 452.904262 C 55.13321 452.592297 55.225026 452.289507 55.348977 451.995892 C 55.472929 451.69769 55.619834 451.422426 55.798875 451.156338 C 55.973325 450.89025 56.17532 450.6471 56.400268 450.422302 C 56.625217 450.197503 56.868529 449.995643 57.134795 449.816721 C 57.401061 449.642388 57.681099 449.490993 57.97491 449.367124 C 58.26872 449.247843 58.571712 449.156089 58.883886 449.091861 C 59.19606 449.03222 59.512824 449.000106 59.829589 449.000106 Z M 59.829589 449.000106 " transform="matrix(0.850888,0,0,0.851456,-20.685641,-24.487599)"/></g><path style="fill:none;stroke-width:4;stroke-linecap:round;stroke-linejoin:round;stroke:#000000;stroke-opacity:1;stroke-miterlimit:4;" d="M 65.861888 428.598481 L 432.771644 428.598481 L 432.771644 449.000106 L 65.861888 449.000106 Z M 65.861888 428.598481 " transform="matrix(0.850888,0,0,0.851456,-20.685641,-24.487599)"/><path style="fill:none;stroke-width:4;stroke-linecap:round;stroke-linejoin:round;stroke:#000000;stroke-opacity:1;stroke-miterlimit:4;" d="M 341.121101 318.451727 L 432.780825 361.691061 L 432.780825 428.598481 L 65.591031 428.598481 L 65.591031 361.691061 L 159.431382 318.988491 " transform="matrix(0.850888,0,0,0.851456,-20.685641,-24.487599)"/><path style="fill:none;stroke-width:4;stroke-linecap:round;stroke-linejoin:round;stroke:#000000;stroke-opacity:1;stroke-miterlimit:4;" d="M 159.431382 428.878332 L 159.431382 281.731555 L 249.181338 231.959297 L 341.391957 281.731555 L 341.391957 428.878332 " transform="matrix(0.850888,0,0,0.851456,-20.685641,-24.487599)"/><path style="fill:none;stroke-width:4;stroke-linecap:round;stroke-linejoin:round;stroke:#000000;stroke-opacity:1;stroke-miterlimit:4;" d="M 196.419381 260.788578 L 196.148525 171.571038 L 249.181338 105.750909 L 303.040493 171.571038 L 303.582206 260.238051 " transform="matrix(0.850888,0,0,0.851456,-20.685641,-24.487599)"/><g clip-rule="nonzero" clip-path="url(#fe2a73ba73)"><path style="fill:none;stroke-width:4;stroke-linecap:round;stroke-linejoin:round;stroke:#000000;stroke-opacity:1;stroke-miterlimit:4;" d="M 249.181338 105.750909 L 249.181338 37.760785 " transform="matrix(0.850888,0,0,0.851456,-20.685641,-24.487599)"/></g><path style="fill:none;stroke-width:4;stroke-linecap:round;stroke-linejoin:round;stroke:#000000;stroke-opacity:1;stroke-miterlimit:4;" d="M 226.342154 64.410895 L 271.487989 64.410895 " transform="matrix(0.850888,0,0,0.851456,-20.685641,-24.487599)"/><path style="fill:none;stroke-width:4;stroke-linecap:round;stroke-linejoin:round;stroke:#000000;stroke-opacity:1;stroke-miterlimit:4;" d="M 244.292146 255.352121 L 323.171109 297.779426 L 322.620215 427.791041 " transform="matrix(0.850888,0,0,0.851456,-20.685641,-24.487599)"/><path style="fill:none;stroke-width:4;stroke-linecap:round;stroke-linejoin:round;stroke:#000000;stroke-opacity:1;stroke-miterlimit:4;" d="M 362.881448 350.538295 L 413.458188 376.651641 L 415.638813 428.327805 " transform="matrix(0.850888,0,0,0.851456,-20.685641,-24.487599)"/><path style="fill:none;stroke-width:4;stroke-linecap:round;stroke-linejoin:round;stroke:#000000;stroke-opacity:1;stroke-miterlimit:4;" d="M 133.318965 352.180701 L 85.450791 376.110289 L 84.899896 428.327805 " transform="matrix(0.850888,0,0,0.851456,-20.685641,-24.487599)"/><path style="fill:none;stroke-width:4;stroke-linecap:round;stroke-linejoin:round;stroke:#000000;stroke-opacity:1;stroke-miterlimit:4;" d="M 202.401181 428.350744 L 202.401181 358.998064 C 202.401181 357.456588 202.474634 355.919699 202.62613 354.387398 C 202.777626 352.855097 203.002575 351.331972 203.305567 349.818021 C 203.603969 348.308659 203.980413 346.81306 204.42572 345.340399 C 204.875618 343.863151 205.394377 342.413429 205.981998 340.991233 C 206.57421 339.569038 207.230693 338.174369 207.956038 336.816401 C 208.681383 335.458434 209.47559 334.137168 210.329477 332.852604 C 211.187955 331.572628 212.106113 330.33853 213.083951 329.14572 C 214.06179 327.952911 215.094717 326.815155 216.182735 325.723276 C 217.275343 324.635984 218.413859 323.599158 219.607465 322.621972 C 220.796479 321.644786 222.031402 320.72724 223.316823 319.869335 C 224.597654 319.016018 225.915211 318.222341 227.274085 317.49748 C 228.63755 316.768031 230.028559 316.111986 231.451704 315.520169 C 232.874849 314.93294 234.325539 314.414527 235.799183 313.96493 C 237.272827 313.51992 238.769424 313.143726 240.279795 312.845524 C 241.790165 312.542734 243.314307 312.317935 244.847631 312.16654 C 246.380955 312.015145 247.91887 311.941742 249.461376 311.941742 C 250.999291 311.941742 252.537205 312.019733 254.070529 312.171128 C 255.599263 312.327111 257.123405 312.55191 258.633775 312.8547 C 260.144145 313.15749 261.636152 313.533683 263.105205 313.978693 C 264.578849 314.42829 266.029539 314.946703 267.452684 315.53852 C 268.871238 316.130337 270.262248 316.79097 271.621122 317.515831 C 272.979996 318.24528 274.297553 319.034369 275.578383 319.892274 C 276.854623 320.750179 278.089546 321.667724 279.278561 322.64491 C 280.472166 323.622096 281.610682 324.654335 282.6987 325.746214 C 283.786717 326.833506 284.819645 327.97585 285.792892 329.164071 C 286.770731 330.356881 287.684298 331.590979 288.542776 332.875543 C 289.396663 334.155519 290.186279 335.472197 290.911624 336.834752 C 291.636969 338.192719 292.293452 339.582801 292.885664 341.004997 C 293.473285 342.427192 293.992044 343.876914 294.437351 345.349575 C 294.882658 346.822235 295.259103 348.317834 295.557504 349.827197 C 295.855905 351.336559 296.080854 352.859685 296.23235 354.391986 C 296.383846 355.924287 296.46189 357.461176 296.46189 358.998064 L 296.46189 428.350744 " transform="matrix(0.850888,0,0,0.851456,-20.685641,-24.487599)"/><path style="fill:none;stroke-width:3;stroke-linecap:round;stroke-linejoin:round;stroke:#000000;stroke-opacity:1;stroke-miterlimit:4;" d="M 251.279329 176.521196 C 251.279329 176.521196 260.222189 162.689197 269.279819 173.672217 C 278.980159 185.380098 249.098703 207.199331 249.098703 207.199331 C 249.098703 207.199331 221.168333 186.939926 230.349915 174.387903 C 239.191777 162.349705 251.279329 176.521196 251.279329 176.521196 Z M 251.279329 176.521196 " transform="matrix(0.850888,0,0,0.851456,-20.685641,-24.487599)"/><g clip-rule="nonzero" clip-path="url(#5c5eab3f9f)"><path style="fill:none;stroke-width:4;stroke-linecap:round;stroke-linejoin:round;stroke:#000000;stroke-opacity:1;stroke-miterlimit:4;" d="M 59.829589 449.000106 L 440.158226 449.000106 C 440.479581 449.000106 440.791755 449.03222 441.103929 449.091861 C 441.420693 449.156089 441.723685 449.247843 442.017496 449.367124 C 442.311307 449.490993 442.591345 449.642388 442.85302 449.816721 C 443.119286 449.995643 443.362598 450.197503 443.587546 450.422302 C 443.812495 450.6471 444.01449 450.89025 444.193531 451.156338 C 444.367981 451.422426 444.519477 451.69769 444.638837 451.995892 C 444.762789 452.289507 444.854605 452.592297 444.918876 452.904262 C 444.978556 453.216228 445.010692 453.532781 445.010692 453.849334 L 445.010692 466.181146 C 445.010692 466.497699 444.978556 466.814253 444.918876 467.126218 C 444.854605 467.438183 444.762789 467.740974 444.638837 468.034588 C 444.519477 468.328203 444.367981 468.608054 444.193531 468.874142 C 444.01449 469.14023 443.812495 469.38338 443.587546 469.608179 C 443.362598 469.832977 443.119286 470.034837 442.85302 470.213759 C 442.591345 470.388092 442.311307 470.539487 442.017496 470.658768 C 441.723685 470.782637 441.420693 470.874392 441.103929 470.93862 C 440.791755 470.99826 440.479581 471.030374 440.158226 471.030374 L 59.829589 471.030374 C 59.512824 471.030374 59.19606 470.99826 58.883886 470.93862 C 58.571712 470.874392 58.26872 470.782637 57.97491 470.658768 C 57.681099 470.539487 57.401061 470.388092 57.134795 470.213759 C 56.868529 470.034837 56.625217 469.832977 56.400268 469.608179 C 56.17532 469.38338 55.973325 469.14023 55.798875 468.874142 C 55.619834 468.608054 55.472929 468.328203 55.348977 468.034588 C 55.225026 467.740974 55.13321 467.438183 55.07353 467.126218 C 55.009259 466.814253 54.981714 466.497699 54.981714 466.181146 L 54.981714 453.849334 C 54.981714 453.532781 55.009259 453.216228 55.07353 452.904262 C 55.13321 452.592297 55.225026 452.289507 55.348977 451.995892 C 55.472929 451.69769 55.619834 451.422426 55.798875 451.156338 C 55.973325 450.89025 56.17532 450.6471 56.400268 450.422302 C 56.625217 450.197503 56.868529 449.995643 57.134795 449.816721 C 57.401061 449.642388 57.681099 449.490993 57.97491 449.367124 C 58.26872 449.247843 58.571712 449.156089 58.883886 449.091861 C 59.19606 449.03222 59.512824 449.000106 59.829589 449.000106 Z M 59.829589 449.000106 " transform="matrix(0.850888,0,0,0.851456,-20.685641,-24.487599)"/></g><path style="fill:none;stroke-width:4;stroke-linecap:round;stroke-linejoin:round;stroke:#000000;stroke-opacity:1;stroke-miterlimit:4;" d="M 65.861888 428.598481 L 432.771644 428.598481 L 432.771644 449.000106 L 65.861888 449.000106 Z M 65.861888 428.598481 " transform="matrix(0.850888,0,0,0.851456,-20.685641,-24.487599)"/><path style="fill:none;stroke-width:4;stroke-linecap:round;stroke-linejoin:round;stroke:#000000;stroke-opacity:1;stroke-miterlimit:4;" d="M 341.121101 318.451727 L 432.780825 361.691061 L 432.780825 428.598481 L 65.591031 428.598481 L 65.591031 361.691061 L 159.431382 318.988491 " transform="matrix(0.850888,0,0,0.851456,-20.685641,-24.487599)"/><path style="fill:none;stroke-width:4;stroke-linecap:round;stroke-linejoin:round;stroke:#000000;stroke-opacity:1;stroke-miterlimit:4;" d="M 159.431382 428.878332 L 159.431382 281.731555 L 249.181338 231.959297 L 341.391957 281.731555 L 341.391957 428.878332 " transform="matrix(0.850888,0,0,0.851456,-20.685641,-24.487599)"/><path style="fill:none;stroke-width:4;stroke-linecap:round;stroke-linejoin:round;stroke:#000000;stroke-opacity:1;stroke-miterlimit:4;" d="M 196.419381 260.788578 L 196.148525 171.571038 L 249.181338 105.750909 L 303.040493 171.571038 L 303.582206 260.238051 " transform="matrix(0.850888,0,0,0.851456,-20.685641,-24.487599)"/><g clip-rule="nonzero" clip-path="url(#cf5089e6c7)"><path style="fill:none;stroke-width:4;stroke-linecap:round;stroke-linejoin:round;stroke:#000000;stroke-opacity:1;stroke-miterlimit:4;" d="M 249.181338 105.750909 L 249.181338 37.760785 " transform="matrix(0.850888,0,0,0.851456,-20.685641,-24.487599)"/></g><path style="fill:none;stroke-width:4;stroke-linecap:round;stroke-linejoin:round;stroke:#000000;stroke-opacity:1;stroke-miterlimit:4;" d="M 226.342154 64.410895 L 271.487989 64.410895 " transform="matrix(0.850888,0,0,0.851456,-20.685641,-24.487599)"/><path style="fill:none;stroke-width:4;stroke-linecap:round;stroke-linejoin:round;stroke:#000000;stroke-opacity:1;stroke-miterlimit:4;" d="M 244.292146 255.352121 L 323.171109 297.779426 L 322.620215 427.791041 " transform="matrix(0.850888,0,0,0.851456,-20.685641,-24.487599)"/><path style="fill:none;stroke-width:4;stroke-linecap:round;stroke-linejoin:round;stroke:#000000;stroke-opacity:1;stroke-miterlimit:4;" d="M 362.881448 350.538295 L 413.458188 376.651641 L 415.638813 428.327805 " transform="matrix(0.850888,0,0,0.851456,-20.685641,-24.487599)"/><path style="fill:none;stroke-width:4;stroke-linecap:round;stroke-linejoin:round;stroke:#000000;stroke-opacity:1;stroke-miterlimit:4;" d="M 133.318965 352.180701 L 85.450791 376.110289 L 84.899896 428.327805 " transform="matrix(0.850888,0,0,0.851456,-20.685641,-24.487599)"/><path style="fill:none;stroke-width:4;stroke-linecap:round;stroke-linejoin:round;stroke:#000000;stroke-opacity:1;stroke-miterlimit:4;" d="M 202.401181 428.350744 L 202.401181 358.998064 C 202.401181 357.456588 202.474634 355.919699 202.62613 354.387398 C 202.777626 352.855097 203.002575 351.331972 203.305567 349.818021 C 203.603969 348.308659 203.980413 346.81306 204.42572 345.340399 C 204.875618 343.863151 205.394377 342.413429 205.981998 340.991233 C 206.57421 339.569038 207.230693 338.174369 207.956038 336.816401 C 208.681383 335.458434 209.47559 334.137168 210.329477 332.852604 C 211.187955 331.572628 212.106113 330.33853 213.083951 329.14572 C 214.06179 327.952911 215.094717 326.815155 216.182735 325.723276 C 217.275343 324.635984 218.413859 323.599158 219.607465 322.621972 C 220.796479 321.644786 222.031402 320.72724 223.316823 319.869335 C 224.597654 319.016018 225.915211 318.222341 227.274085 317.49748 C 228.63755 316.768031 230.028559 316.111986 231.451704 315.520169 C 232.874849 314.93294 234.325539 314.414527 235.799183 313.96493 C 237.272827 313.51992 238.769424 313.143726 240.279795 312.845524 C 241.790165 312.542734 243.314307 312.317935 244.847631 312.16654 C 246.380955 312.015145 247.91887 311.941742 249.461376 311.941742 C 250.999291 311.941742 252.537205 312.019733 254.070529 312.171128 C 255.599263 312.327111 257.123405 312.55191 258.633775 312.8547 C 260.144145 313.15749 261.636152 313.533683 263.105205 313.978693 C 264.578849 314.42829 266.029539 314.946703 267.452684 315.53852 C 268.871238 316.130337 270.262248 316.79097 271.621122 317.515831 C 272.979996 318.24528 274.297553 319.034369 275.578383 319.892274 C 276.854623 320.750179 278.089546 321.667724 279.278561 322.64491 C 280.472166 323.622096 281.610682 324.654335 282.6987 325.746214 C 283.786717 326.833506 284.819645 327.97585 285.792892 329.164071 C 286.770731 330.356881 287.684298 331.590979 288.542776 332.875543 C 289.396663 334.155519 290.186279 335.472197 290.911624 336.834752 C 291.636969 338.192719 292.293452 339.582801 292.885664 341.004997 C 293.473285 342.427192 293.992044 343.876914 294.437351 345.349575 C 294.882658 346.822235 295.259103 348.317834 295.557504 349.827197 C 295.855905 351.336559 296.080854 352.859685 296.23235 354.391986 C 296.383846 355.924287 296.46189 357.461176 296.46189 358.998064 L 296.46189 428.350744 " transform="matrix(0.850888,0,0,0.851456,-20.685641,-24.487599)"/></g></svg>