<svg xmlns="http://www.w3.org/2000/svg" xmlns:xlink="http://www.w3.org/1999/xlink" width="512" zoomAndPan="magnify" viewBox="0 0 384 383.999986" height="512" preserveAspectRatio="xMidYMid meet" version="1.2"><defs><clipPath id="0cf5317bd5"><path d="M 36 7.101562 L 339 7.101562 L 339 371 L 36 371 Z M 36 7.101562 "/></clipPath><clipPath id="99f361377c"><path d="M 36 7.101562 L 339 7.101562 L 339 371 L 36 371 Z M 36 7.101562 "/></clipPath></defs><g id="6a22f03326"><path style=" stroke:none;fill-rule:nonzero;fill:#000000;fill-opacity:1;" d="M 311.019531 344.261719 C 322.53125 352.894531 259.949219 361.214844 267.660156 352.027344 C 257.984375 363.914062 325.230469 355.21875 311.019531 344.261719 Z M 311.019531 344.261719 "/><g clip-rule="nonzero" clip-path="url(#0cf5317bd5)"><path style=" stroke:none;fill-rule:nonzero;fill:#000000;fill-opacity:1;" d="M 338.765625 346.964844 C 336.230469 340.308594 327.949219 342.664062 322.4375 342.074219 C 299.523438 341.699219 290.105469 317.039062 287.839844 297.5 C 283.738281 275.546875 279.15625 251.585938 275.519531 229.714844 C 265.769531 181.796875 295.726562 203.324219 295.464844 143.539062 C 293.546875 105.003906 280.347656 68.082031 268.214844 31.789062 C 265.875 25.96875 264.007812 19.308594 260.601562 14.269531 C 250.855469 12.019531 240.503906 15.402344 230.90625 17.351562 C 240.394531 16.28125 250.570312 13.550781 259.929688 15.851562 C 247.539062 23.5625 231.753906 25.128906 217.550781 27.574219 C 185.6875 31.085938 221.226562 19.402344 230.90625 17.339844 C 190.871094 26.074219 215.625 26.152344 174.730469 15.644531 C 183.460938 18.644531 192.234375 21.492188 200.777344 24.957031 C 182.832031 20.757812 165.164062 15.613281 147.773438 9.515625 C 156.839844 11.195312 165.769531 13.492188 174.730469 15.644531 C 164.773438 12.449219 154.785156 8.984375 144.421875 7.324219 C 143.671875 7.414062 142.980469 7.101562 142.59375 8.074219 C 126.265625 45.574219 110.976562 84.246094 103.335938 124.699219 C 91.441406 170.074219 125.140625 191.714844 110.097656 234.769531 C 101.746094 256.730469 91.171875 331.925781 63.441406 331.21875 C 57.132812 332.660156 40.375 329.433594 37.320312 333.664062 C 32.605469 343.886719 55.941406 346.886719 62.195312 350.023438 C 81.617188 356.488281 101.519531 362.339844 121.945312 364.503906 C 129.714844 365.945312 136.621094 360.851562 128.492188 354.664062 C 119.765625 350.472656 111.246094 345.914062 104.714844 338.617188 C 95.25 313.496094 106.664062 284.203125 113.9375 259.324219 C 122.058594 239.164062 124.550781 215.261719 139.066406 198.523438 C 149.617188 188.472656 164.082031 180.839844 171.230469 167.292969 C 190.832031 132.433594 195.128906 91.542969 201.871094 52.761719 C 205.027344 93.753906 205.890625 157.617188 236.554688 187.558594 C 253.335938 201.171875 257.769531 203.097656 261.992188 225.449219 C 266.917969 249.089844 269.917969 273.34375 274.417969 297.140625 C 276.664062 310.324219 279.148438 324.222656 275.578125 337.324219 C 272.316406 348.125 260.796875 352.992188 251.289062 357.101562 C 248.289062 357.921875 244.855469 358.40625 243.355469 361.601562 C 243.226562 376.820312 273.222656 368.441406 282.730469 368.300781 C 293.824219 366.351562 341.15625 362.074219 338.765625 346.964844 Z M 198.742188 58.964844 C 189.960938 98.179688 185.296875 153.929688 153.898438 181.707031 C 144.953125 188.59375 135.152344 195.089844 129.304688 205.152344 C 121.738281 222.335938 116.9375 240.652344 111.171875 258.492188 C 103.199219 284.292969 95.941406 312.003906 103.078125 338.824219 C 109.078125 346.558594 117.328125 352.046875 125.960938 356.382812 C 127.757812 357.296875 129.109375 358.257812 129.046875 360.253906 C 124.550781 363.679688 111.800781 359.179688 105.996094 358.421875 C 88.042969 354.613281 70.226562 348.859375 52.753906 343.167969 C 49.695312 341.75 38.289062 339.53125 40.007812 335.195312 C 47.828125 333.304688 57.253906 334.777344 65.414062 333.101562 C 94.007812 322.550781 97.132812 282.417969 106.988281 257.277344 C 124.828125 203.421875 117.582031 206.382812 104.902344 155.464844 C 103.148438 134.277344 109.148438 112.984375 114.328125 92.5625 C 122.523438 64.429688 131.980469 36.574219 143.460938 9.574219 C 160.515625 17.152344 178.847656 21.742188 196.945312 26.121094 C 199.195312 26.871094 202.058594 26.121094 202.34375 28.722656 C 202.816406 36.882812 200.5 50.914062 198.742188 58.984375 Z M 205.246094 71.894531 C 203.476562 57.832031 203.597656 43.648438 203.519531 29.496094 C 220.84375 31.378906 246.378906 26.414062 261.171875 17.179688 C 270.777344 41.21875 276.988281 66.628906 283.730469 91.574219 C 271.378906 89.636719 258.722656 90.246094 246.234375 90.304688 C 258.449219 90.792969 270.800781 90.636719 282.898438 92.554688 C 258.457031 94.8125 234.019531 94.8125 209.578125 92.554688 C 221.675781 90.664062 234.019531 90.816406 246.234375 90.304688 C 233.589844 90.671875 219.800781 88.753906 207.71875 92.234375 C 206.820312 85.484375 205.996094 78.710938 205.246094 71.914062 Z M 335.976562 349.558594 C 336.769531 359.308594 225.558594 376.683594 249.257812 359.984375 C 262.003906 356.089844 275.292969 347.234375 277.984375 333.269531 C 281.675781 304.949219 272.414062 276.808594 269.625 248.71875 C 259.289062 153.996094 224.015625 228.140625 207.847656 93.035156 C 226.421875 97.046875 246.371094 95.179688 265.402344 95.179688 C 271.003906 94.910156 276.652344 94.777344 282.171875 93.90625 C 285.296875 92.40625 284.539062 96.394531 285.417969 98.539062 C 291.542969 128.375 299.164062 165.289062 277.820312 190.789062 C 275.257812 193.789062 272.144531 197.039062 271.320312 201.117188 C 267.164062 226.078125 277.175781 250.964844 280.769531 275.511719 C 285.542969 293.871094 285.867188 314.652344 297.585938 330.359375 C 303.847656 336.679688 312.121094 342.171875 320.945312 343.796875 C 325.347656 345.089844 337.21875 342.246094 335.976562 349.558594 Z M 335.976562 349.558594 "/></g><path style=" stroke:none;fill-rule:nonzero;fill:#000000;fill-opacity:1;" d="M 282.320312 180.84375 C 288.371094 173.945312 291.011719 164.285156 290.570312 155.242188 C 290.71875 179.636719 266.25 195.941406 244.511719 183.566406 C 232.828125 176.511719 227.425781 163.199219 221.203125 151.527344 C 226.210938 163.910156 231.492188 177.914062 243.414062 185.390625 C 255.367188 192.726562 272.488281 190.957031 282.320312 180.84375 Z M 282.320312 180.84375 "/><path style=" stroke:none;fill-rule:nonzero;fill:#000000;fill-opacity:1;" d="M 219.832031 31.664062 C 230.855469 30.605469 242.328125 28.8125 251.980469 23.015625 C 238.414062 28.753906 223.332031 31.046875 208.679688 31.527344 C 212.355469 32.179688 216.132812 31.886719 219.832031 31.664062 Z M 219.832031 31.664062 "/><path style=" stroke:none;fill-rule:nonzero;fill:#000000;fill-opacity:1;" d="M 193.503906 73.550781 C 181.839844 71.023438 169.503906 72.050781 157.605469 72.003906 C 169.101562 72.484375 180.722656 72.335938 192.101562 74.253906 C 169.121094 76.511719 146.140625 76.511719 123.160156 74.253906 C 134.515625 72.359375 146.144531 72.523438 157.621094 72.003906 C 152.183594 72.425781 122.023438 70.242188 121.488281 74.742188 C 138.953125 78.65625 157.738281 76.894531 175.640625 76.851562 C 178.21875 76.324219 195.675781 77.074219 193.503906 73.550781 Z M 193.503906 73.550781 "/><path style=" stroke:none;fill-rule:nonzero;fill:#000000;fill-opacity:1;" d="M 93.21875 348.875 C 85.71875 346.21875 64.363281 342.125 61.101562 335.757812 C 59.742188 342.6875 118.234375 360.652344 109.4375 346.476562 C 113.789062 354.464844 96.804688 349.535156 93.21875 348.875 Z M 93.21875 348.875 "/><path style=" stroke:none;fill-rule:nonzero;fill:#000000;fill-opacity:1;" d="M 99.105469 344.960938 C 90.105469 343.878906 78.671875 341.804688 72.386719 335.210938 C 75.695312 341.871094 94.132812 347.652344 100.882812 344.457031 C 100.355469 344.855469 99.761719 345.023438 99.105469 344.960938 Z M 99.105469 344.960938 "/><path style=" stroke:none;fill-rule:nonzero;fill:#000000;fill-opacity:1;" d="M 171.164062 21.957031 C 178.417969 24.121094 185.816406 25.566406 193.351562 26.292969 C 178.746094 22.746094 164.339844 18.574219 150.105469 13.746094 C 156.855469 17.171875 163.875 19.90625 171.164062 21.957031 Z M 171.164062 21.957031 "/><path style=" stroke:none;fill-rule:nonzero;fill:#000000;fill-opacity:1;" d="M 166.640625 162.792969 C 154.109375 185.773438 118.582031 192.371094 109.347656 163.296875 C 103.589844 142.492188 109.527344 120.441406 113.945312 99.875 C 108.367188 123.207031 98.796875 151.582031 112.976562 173.488281 C 124.730469 189.769531 148.972656 186.042969 160.917969 171.988281 C 171.066406 161.367188 174.703125 146.734375 178.917969 133.117188 C 175.265625 143.171875 172.339844 153.636719 166.640625 162.792969 Z M 166.640625 162.792969 "/><path style=" stroke:none;fill-rule:nonzero;fill:#000000;fill-opacity:1;" d="M 243.371094 111.140625 C 246.003906 112.25 246.296875 107.609375 243.582031 108.351562 C 243.285156 108.441406 243.039062 108.605469 242.84375 108.847656 C 242.652344 109.089844 242.542969 109.363281 242.519531 109.671875 C 242.496094 109.984375 242.5625 110.269531 242.71875 110.539062 C 242.875 110.808594 243.089844 111.007812 243.371094 111.140625 Z M 243.371094 111.140625 "/><path style=" stroke:none;fill-rule:nonzero;fill:#000000;fill-opacity:1;" d="M 240.214844 122.210938 C 242.507812 122.171875 241.90625 118.574219 239.742188 119.277344 C 239.382812 119.386719 239.105469 119.601562 238.910156 119.921875 C 238.714844 120.238281 238.644531 120.582031 238.703125 120.949219 C 238.761719 121.316406 238.9375 121.621094 239.222656 121.863281 C 239.511719 122.101562 239.839844 122.21875 240.214844 122.210938 Z M 240.214844 122.210938 "/><path style=" stroke:none;fill-rule:nonzero;fill:#000000;fill-opacity:1;" d="M 248.761719 123.636719 C 250.507812 123.636719 250.066406 120.832031 248.394531 121.386719 C 248.136719 121.484375 247.9375 121.652344 247.796875 121.890625 C 247.660156 122.132812 247.613281 122.386719 247.65625 122.660156 C 247.699219 122.933594 247.828125 123.164062 248.035156 123.347656 C 248.242188 123.527344 248.484375 123.625 248.761719 123.636719 Z M 248.761719 123.636719 "/><path style=" stroke:none;fill-rule:nonzero;fill:#000000;fill-opacity:1;" d="M 246.289062 132.082031 C 246.496094 132.183594 246.714844 132.21875 246.949219 132.1875 C 247.179688 132.160156 247.382812 132.066406 247.558594 131.914062 C 247.730469 131.761719 247.851562 131.570312 247.910156 131.347656 C 247.972656 131.121094 247.964844 130.898438 247.890625 130.679688 C 247.089844 128.667969 244.421875 131.007812 246.289062 132.082031 Z M 246.289062 132.082031 "/><path style=" stroke:none;fill-rule:nonzero;fill:#000000;fill-opacity:1;" d="M 261.863281 155.691406 C 260.421875 156.125 261.179688 158.390625 262.613281 157.871094 C 264.046875 157.355469 263.273438 155.171875 261.863281 155.691406 Z M 261.863281 155.691406 "/><path style=" stroke:none;fill-rule:nonzero;fill:#000000;fill-opacity:1;" d="M 266.617188 168.507812 C 266.472656 168.558594 266.339844 168.632812 266.226562 168.734375 C 266.109375 168.835938 266.015625 168.957031 265.949219 169.097656 C 265.882812 169.234375 265.84375 169.382812 265.832031 169.535156 C 265.824219 169.6875 265.84375 169.839844 265.890625 169.984375 C 265.941406 170.128906 266.019531 170.261719 266.121094 170.378906 C 266.222656 170.492188 266.339844 170.585938 266.480469 170.652344 C 266.617188 170.722656 266.761719 170.761719 266.917969 170.773438 C 267.070312 170.78125 267.222656 170.761719 267.367188 170.714844 C 267.511719 170.664062 267.644531 170.585938 267.757812 170.484375 C 267.875 170.382812 267.964844 170.261719 268.035156 170.125 C 268.101562 169.984375 268.140625 169.839844 268.152344 169.6875 C 268.160156 169.53125 268.140625 169.382812 268.089844 169.238281 C 268.042969 169.089844 267.964844 168.960938 267.863281 168.84375 C 267.761719 168.726562 267.644531 168.636719 267.503906 168.566406 C 267.367188 168.5 267.222656 168.460938 267.066406 168.449219 C 266.914062 168.4375 266.761719 168.457031 266.617188 168.507812 Z M 266.617188 168.507812 "/><path style=" stroke:none;fill-rule:nonzero;fill:#000000;fill-opacity:1;" d="M 263.617188 179.824219 C 263.378906 179.703125 263.132812 179.683594 262.878906 179.769531 C 262.625 179.851562 262.4375 180.011719 262.316406 180.25 C 262.195312 180.488281 262.175781 180.734375 262.257812 180.988281 C 262.339844 181.242188 262.503906 181.429688 262.738281 181.550781 C 262.976562 181.671875 263.222656 181.691406 263.476562 181.609375 C 263.734375 181.523438 263.921875 181.363281 264.042969 181.125 C 264.164062 180.886719 264.179688 180.640625 264.097656 180.386719 C 264.015625 180.132812 263.855469 179.945312 263.617188 179.824219 Z M 263.617188 179.824219 "/><path style=" stroke:none;fill-rule:nonzero;fill:#000000;fill-opacity:1;" d="M 266.917969 146.511719 C 268.679688 146.511719 268.238281 143.707031 266.566406 144.261719 C 266.3125 144.363281 266.121094 144.53125 265.988281 144.769531 C 265.855469 145.003906 265.808594 145.257812 265.851562 145.523438 C 265.890625 145.792969 266.011719 146.019531 266.210938 146.203125 C 266.410156 146.386719 266.648438 146.488281 266.917969 146.511719 Z M 266.917969 146.511719 "/><path style=" stroke:none;fill-rule:nonzero;fill:#000000;fill-opacity:1;" d="M 241.34375 133.601562 C 240.039062 132.851562 238.953125 135.019531 240.3125 135.65625 C 241.667969 136.296875 242.710938 134.226562 241.34375 133.601562 Z M 241.34375 133.601562 "/><path style=" stroke:none;fill-rule:nonzero;fill:#000000;fill-opacity:1;" d="M 242.507812 144.777344 C 242.71875 144.875 242.9375 144.910156 243.167969 144.878906 C 243.398438 144.847656 243.601562 144.753906 243.777344 144.601562 C 243.949219 144.453125 244.070312 144.265625 244.136719 144.042969 C 244.203125 143.820312 244.203125 143.597656 244.136719 143.375 C 243.316406 141.367188 240.671875 143.707031 242.507812 144.777344 Z M 242.507812 144.777344 "/><path style=" stroke:none;fill-rule:nonzero;fill:#000000;fill-opacity:1;" d="M 249.265625 151.109375 C 247.570312 150.3125 246.878906 153.28125 248.753906 153.304688 C 249.019531 153.300781 249.257812 153.214844 249.464844 153.046875 C 249.671875 152.878906 249.808594 152.664062 249.867188 152.40625 C 249.929688 152.144531 249.902344 151.894531 249.789062 151.652344 C 249.675781 151.410156 249.503906 151.230469 249.265625 151.109375 Z M 249.265625 151.109375 "/><path style=" stroke:none;fill-rule:nonzero;fill:#000000;fill-opacity:1;" d="M 261.929688 146.179688 C 261.503906 144.742188 259.230469 145.496094 259.742188 146.929688 C 259.789062 147.074219 259.867188 147.207031 259.96875 147.320312 C 260.070312 147.4375 260.1875 147.527344 260.328125 147.59375 C 260.464844 147.660156 260.609375 147.699219 260.761719 147.710938 C 260.914062 147.71875 261.066406 147.699219 261.210938 147.648438 C 261.355469 147.601562 261.484375 147.523438 261.601562 147.421875 C 261.714844 147.320312 261.808594 147.203125 261.875 147.0625 C 261.941406 146.925781 261.980469 146.78125 261.988281 146.628906 C 262 146.476562 261.980469 146.324219 261.929688 146.179688 Z M 261.929688 146.179688 "/><path style=" stroke:none;fill-rule:nonzero;fill:#000000;fill-opacity:1;" d="M 251.792969 166.429688 C 253.785156 167.324219 254.042969 163.730469 251.949219 164.308594 C 251.730469 164.386719 251.554688 164.515625 251.414062 164.699219 C 251.273438 164.882812 251.195312 165.089844 251.179688 165.316406 C 251.160156 165.546875 251.207031 165.761719 251.320312 165.964844 C 251.429688 166.167969 251.589844 166.324219 251.792969 166.429688 Z M 251.792969 166.429688 "/><path style=" stroke:none;fill-rule:nonzero;fill:#000000;fill-opacity:1;" d="M 258.046875 111.890625 C 260.296875 111.890625 259.726562 108.222656 257.566406 108.949219 C 255.9375 109.421875 256.417969 111.941406 258.046875 111.890625 Z M 258.046875 111.890625 "/><path style=" stroke:none;fill-rule:nonzero;fill:#000000;fill-opacity:1;" d="M 252.585938 121.324219 C 254.3125 122.21875 255.683594 119.480469 253.9375 118.625 C 252.1875 117.769531 250.800781 120.523438 252.585938 121.324219 Z M 252.585938 121.324219 "/><path style=" stroke:none;fill-rule:nonzero;fill:#000000;fill-opacity:1;" d="M 260.207031 123.574219 C 261.546875 124.273438 262.613281 122.144531 261.242188 121.511719 C 261.105469 121.453125 260.960938 121.417969 260.8125 121.414062 C 260.664062 121.40625 260.519531 121.429688 260.382812 121.480469 C 260.242188 121.53125 260.117188 121.605469 260.003906 121.703125 C 259.894531 121.800781 259.804688 121.917969 259.738281 122.050781 C 259.671875 122.183594 259.632812 122.324219 259.617188 122.472656 C 259.605469 122.621094 259.621094 122.765625 259.664062 122.90625 C 259.710938 123.046875 259.777344 123.175781 259.871094 123.292969 C 259.964844 123.410156 260.074219 123.503906 260.207031 123.574219 Z M 260.207031 123.574219 "/><path style=" stroke:none;fill-rule:nonzero;fill:#000000;fill-opacity:1;" d="M 251.851562 138.476562 C 252.0625 138.578125 252.28125 138.613281 252.511719 138.585938 C 252.742188 138.554688 252.945312 138.464844 253.121094 138.3125 C 253.296875 138.160156 253.417969 137.972656 253.484375 137.75 C 253.546875 137.527344 253.546875 137.304688 253.480469 137.082031 C 252.667969 135.066406 249.96875 137.40625 251.851562 138.476562 Z M 251.851562 138.476562 "/><path style=" stroke:none;fill-rule:nonzero;fill:#000000;fill-opacity:1;" d="M 227.007812 115.394531 C 228.769531 115.394531 228.320312 112.601562 226.640625 113.144531 C 226.378906 113.242188 226.183594 113.410156 226.042969 113.648438 C 225.902344 113.886719 225.855469 114.144531 225.902344 114.417969 C 225.945312 114.691406 226.074219 114.921875 226.28125 115.101562 C 226.488281 115.285156 226.730469 115.382812 227.007812 115.394531 Z M 227.007812 115.394531 "/><path style=" stroke:none;fill-rule:nonzero;fill:#000000;fill-opacity:1;" d="M 258.796875 174.800781 C 258.554688 174.679688 258.308594 174.664062 258.054688 174.746094 C 257.800781 174.832031 257.613281 174.992188 257.496094 175.230469 C 257.375 175.472656 257.355469 175.71875 257.441406 175.972656 C 257.523438 176.226562 257.6875 176.414062 257.925781 176.53125 C 258.164062 176.652344 258.410156 176.671875 258.664062 176.585938 C 258.917969 176.503906 259.105469 176.339844 259.226562 176.101562 C 259.347656 175.863281 259.363281 175.617188 259.28125 175.363281 C 259.195312 175.109375 259.035156 174.921875 258.796875 174.800781 Z M 258.796875 174.800781 "/><path style=" stroke:none;fill-rule:nonzero;fill:#000000;fill-opacity:1;" d="M 234.371094 117.695312 C 234.582031 117.796875 234.800781 117.835938 235.03125 117.804688 C 235.261719 117.777344 235.464844 117.6875 235.644531 117.535156 C 235.820312 117.386719 235.941406 117.199219 236.007812 116.976562 C 236.074219 116.753906 236.074219 116.53125 236.007812 116.308594 C 235.210938 114.277344 232.503906 116.609375 234.371094 117.695312 Z M 234.371094 117.695312 "/><path style=" stroke:none;fill-rule:nonzero;fill:#000000;fill-opacity:1;" d="M 260.804688 130.84375 C 259.375 131.277344 260.136719 133.558594 261.554688 133.039062 C 261.699219 132.992188 261.832031 132.914062 261.945312 132.8125 C 262.0625 132.710938 262.152344 132.589844 262.222656 132.453125 C 262.289062 132.316406 262.328125 132.167969 262.335938 132.015625 C 262.347656 131.863281 262.328125 131.710938 262.277344 131.566406 C 262.226562 131.421875 262.152344 131.292969 262.050781 131.175781 C 261.949219 131.058594 261.828125 130.96875 261.691406 130.902344 C 261.554688 130.832031 261.40625 130.792969 261.253906 130.785156 C 261.101562 130.773438 260.949219 130.792969 260.804688 130.84375 Z M 260.804688 130.84375 "/><path style=" stroke:none;fill-rule:nonzero;fill:#000000;fill-opacity:1;" d="M 242.328125 116.1875 C 244.074219 116.1875 243.617188 113.367188 241.96875 113.9375 C 241.699219 114.027344 241.492188 114.195312 241.347656 114.433594 C 241.199219 114.675781 241.148438 114.9375 241.195312 115.214844 C 241.238281 115.496094 241.367188 115.726562 241.582031 115.910156 C 241.796875 116.09375 242.046875 116.1875 242.328125 116.1875 Z M 242.328125 116.1875 "/><path style=" stroke:none;fill-rule:nonzero;fill:#000000;fill-opacity:1;" d="M 254.597656 153.441406 C 255.046875 154.886719 257.289062 154.109375 256.792969 152.691406 C 256.738281 152.550781 256.660156 152.429688 256.554688 152.320312 C 256.453125 152.214844 256.335938 152.128906 256.199219 152.066406 C 256.0625 152.003906 255.921875 151.96875 255.773438 151.960938 C 255.625 151.953125 255.480469 151.972656 255.339844 152.023438 C 255.199219 152.070312 255.070312 152.140625 254.957031 152.238281 C 254.84375 152.335938 254.753906 152.449219 254.683594 152.582031 C 254.617188 152.714844 254.574219 152.855469 254.558594 153.003906 C 254.542969 153.152344 254.554688 153.296875 254.597656 153.441406 Z M 254.597656 153.441406 "/><path style=" stroke:none;fill-rule:nonzero;fill:#000000;fill-opacity:1;" d="M 259.359375 158.929688 C 259.308594 158.785156 259.230469 158.652344 259.128906 158.539062 C 259.027344 158.421875 258.910156 158.328125 258.769531 158.261719 C 258.632812 158.195312 258.484375 158.15625 258.332031 158.144531 C 258.175781 158.136719 258.027344 158.15625 257.882812 158.203125 C 257.734375 158.253906 257.605469 158.328125 257.488281 158.429688 C 257.371094 158.535156 257.28125 158.652344 257.210938 158.792969 C 257.144531 158.929688 257.105469 159.078125 257.09375 159.230469 C 257.085938 159.382812 257.105469 159.535156 257.152344 159.679688 C 257.632812 161.074219 259.851562 160.324219 259.359375 158.929688 Z M 259.359375 158.929688 "/><path style=" stroke:none;fill-rule:nonzero;fill:#000000;fill-opacity:1;" d="M 263.167969 165.839844 C 263.601562 167.285156 265.851562 166.511719 265.363281 165.089844 C 265.316406 164.941406 265.238281 164.8125 265.136719 164.699219 C 265.035156 164.582031 264.914062 164.492188 264.777344 164.421875 C 264.640625 164.355469 264.492188 164.316406 264.339844 164.308594 C 264.1875 164.296875 264.039062 164.316406 263.890625 164.367188 C 263.746094 164.417969 263.617188 164.492188 263.5 164.59375 C 263.386719 164.695312 263.292969 164.816406 263.226562 164.953125 C 263.15625 165.089844 263.117188 165.234375 263.109375 165.390625 C 263.097656 165.542969 263.117188 165.691406 263.167969 165.839844 Z M 263.167969 165.839844 "/><path style=" stroke:none;fill-rule:nonzero;fill:#000000;fill-opacity:1;" d="M 155.488281 98.886719 C 153.644531 98.246094 152.648438 101.136719 154.546875 101.757812 C 156.441406 102.378906 157.335938 99.476562 155.488281 98.886719 Z M 155.488281 98.886719 "/><path style=" stroke:none;fill-rule:nonzero;fill:#000000;fill-opacity:1;" d="M 160.273438 111.710938 C 160.941406 109.867188 158.023438 108.898438 157.410156 110.765625 C 156.792969 112.632812 159.683594 113.601562 160.273438 111.710938 Z M 160.273438 111.710938 "/><path style=" stroke:none;fill-rule:nonzero;fill:#000000;fill-opacity:1;" d="M 150.683594 111.921875 C 150.539062 111.871094 150.390625 111.851562 150.238281 111.859375 C 150.085938 111.871094 149.941406 111.910156 149.804688 111.976562 C 149.664062 112.042969 149.546875 112.132812 149.445312 112.25 C 149.34375 112.363281 149.269531 112.492188 149.21875 112.636719 C 149.167969 112.78125 149.148438 112.929688 149.160156 113.082031 C 149.167969 113.234375 149.207031 113.378906 149.273438 113.519531 C 149.339844 113.65625 149.429688 113.773438 149.546875 113.875 C 149.660156 113.976562 149.789062 114.054688 149.933594 114.101562 C 151.34375 114.621094 152.117188 112.324219 150.683594 111.921875 Z M 150.683594 111.921875 "/><path style=" stroke:none;fill-rule:nonzero;fill:#000000;fill-opacity:1;" d="M 151.898438 122.675781 C 153.316406 123.171875 154.066406 120.914062 152.648438 120.476562 C 152.503906 120.429688 152.351562 120.410156 152.199219 120.417969 C 152.046875 120.429688 151.898438 120.46875 151.761719 120.535156 C 151.625 120.601562 151.503906 120.695312 151.402344 120.8125 C 151.300781 120.925781 151.226562 121.058594 151.175781 121.203125 C 151.125 121.347656 151.105469 121.496094 151.117188 121.652344 C 151.125 121.804688 151.164062 121.949219 151.230469 122.089844 C 151.300781 122.226562 151.390625 122.347656 151.507812 122.449219 C 151.621094 122.550781 151.753906 122.625 151.898438 122.675781 Z M 151.898438 122.675781 "/><path style=" stroke:none;fill-rule:nonzero;fill:#000000;fill-opacity:1;" d="M 135.746094 146.960938 C 135.242188 148.363281 137.492188 149.105469 137.941406 147.710938 C 138.390625 146.316406 136.164062 145.519531 135.746094 146.960938 Z M 135.746094 146.960938 "/><path style=" stroke:none;fill-rule:nonzero;fill:#000000;fill-opacity:1;" d="M 131.058594 160.65625 C 131.164062 160.863281 131.320312 161.023438 131.523438 161.136719 C 131.722656 161.25 131.941406 161.296875 132.171875 161.28125 C 132.402344 161.265625 132.613281 161.1875 132.796875 161.046875 C 132.980469 160.90625 133.113281 160.726562 133.1875 160.503906 C 133.757812 158.398438 130.1875 158.675781 131.058594 160.65625 Z M 131.058594 160.65625 "/><path style=" stroke:none;fill-rule:nonzero;fill:#000000;fill-opacity:1;" d="M 136.1875 170.261719 C 135.933594 170.179688 135.6875 170.199219 135.449219 170.316406 C 135.210938 170.4375 135.050781 170.625 134.964844 170.878906 C 134.882812 171.132812 134.902344 171.378906 135.019531 171.617188 C 135.140625 171.855469 135.328125 172.015625 135.582031 172.101562 C 135.832031 172.183594 136.078125 172.164062 136.316406 172.046875 C 136.554688 171.925781 136.71875 171.738281 136.800781 171.484375 C 136.886719 171.230469 136.867188 170.984375 136.746094 170.746094 C 136.628906 170.507812 136.441406 170.347656 136.1875 170.261719 Z M 136.1875 170.261719 "/><path style=" stroke:none;fill-rule:nonzero;fill:#000000;fill-opacity:1;" d="M 131.769531 136.96875 C 133.179688 137.496094 133.945312 135.207031 132.519531 134.773438 C 132.378906 134.730469 132.230469 134.71875 132.082031 134.734375 C 131.933594 134.75 131.796875 134.792969 131.664062 134.859375 C 131.53125 134.929688 131.417969 135.019531 131.320312 135.132812 C 131.222656 135.246094 131.148438 135.375 131.101562 135.515625 C 131.054688 135.65625 131.035156 135.800781 131.042969 135.949219 C 131.050781 136.097656 131.082031 136.242188 131.144531 136.375 C 131.207031 136.511719 131.292969 136.632812 131.402344 136.734375 C 131.507812 136.835938 131.632812 136.914062 131.769531 136.96875 Z M 131.769531 136.96875 "/><path style=" stroke:none;fill-rule:nonzero;fill:#000000;fill-opacity:1;" d="M 157.867188 126.253906 C 158.011719 126.296875 158.15625 126.308594 158.304688 126.296875 C 158.453125 126.28125 158.589844 126.238281 158.722656 126.171875 C 158.855469 126.101562 158.96875 126.011719 159.066406 125.902344 C 159.164062 125.789062 159.238281 125.660156 159.285156 125.519531 C 159.335938 125.378906 159.355469 125.234375 159.347656 125.085938 C 159.339844 124.9375 159.304688 124.796875 159.242188 124.660156 C 159.179688 124.527344 159.09375 124.40625 158.988281 124.304688 C 158.878906 124.203125 158.753906 124.125 158.617188 124.070312 C 157.183594 123.574219 156.425781 125.824219 157.867188 126.253906 Z M 157.867188 126.253906 "/><path style=" stroke:none;fill-rule:nonzero;fill:#000000;fill-opacity:1;" d="M 156.390625 133.175781 C 156.246094 133.125 156.09375 133.105469 155.941406 133.117188 C 155.789062 133.125 155.640625 133.164062 155.503906 133.230469 C 155.363281 133.300781 155.246094 133.390625 155.144531 133.507812 C 155.042969 133.621094 154.964844 133.753906 154.917969 133.898438 C 154.867188 134.046875 154.847656 134.195312 154.855469 134.347656 C 154.867188 134.5 154.90625 134.648438 154.972656 134.785156 C 155.039062 134.925781 155.132812 135.042969 155.25 135.144531 C 155.363281 135.246094 155.496094 135.324219 155.640625 135.371094 C 155.785156 135.421875 155.933594 135.441406 156.089844 135.433594 C 156.242188 135.421875 156.386719 135.382812 156.527344 135.316406 C 156.664062 135.25 156.785156 135.15625 156.886719 135.042969 C 156.988281 134.925781 157.0625 134.796875 157.113281 134.648438 C 157.164062 134.503906 157.183594 134.355469 157.171875 134.199219 C 157.164062 134.046875 157.125 133.902344 157.058594 133.761719 C 156.988281 133.625 156.898438 133.503906 156.78125 133.402344 C 156.667969 133.300781 156.535156 133.226562 156.390625 133.175781 Z M 156.390625 133.175781 "/><path style=" stroke:none;fill-rule:nonzero;fill:#000000;fill-opacity:1;" d="M 150.683594 141.574219 C 150.539062 141.527344 150.386719 141.507812 150.234375 141.515625 C 150.078125 141.527344 149.933594 141.566406 149.796875 141.632812 C 149.65625 141.703125 149.535156 141.792969 149.433594 141.910156 C 149.332031 142.027344 149.257812 142.15625 149.207031 142.304688 C 149.160156 142.449219 149.136719 142.601562 149.148438 142.753906 C 149.160156 142.90625 149.199219 143.054688 149.265625 143.191406 C 149.332031 143.332031 149.425781 143.449219 149.539062 143.550781 C 149.65625 143.65625 149.789062 143.730469 149.933594 143.78125 C 150.078125 143.828125 150.230469 143.847656 150.382812 143.839844 C 150.539062 143.828125 150.683594 143.789062 150.820312 143.722656 C 150.960938 143.652344 151.078125 143.5625 151.179688 143.445312 C 151.28125 143.328125 151.359375 143.199219 151.410156 143.050781 C 151.457031 142.90625 151.476562 142.757812 151.46875 142.601562 C 151.457031 142.449219 151.417969 142.300781 151.351562 142.164062 C 151.285156 142.027344 151.191406 141.90625 151.074219 141.804688 C 150.960938 141.703125 150.828125 141.625 150.683594 141.574219 Z M 150.683594 141.574219 "/><path style=" stroke:none;fill-rule:nonzero;fill:#000000;fill-opacity:1;" d="M 138.585938 135.972656 C 138.441406 135.921875 138.292969 135.902344 138.136719 135.914062 C 137.984375 135.925781 137.835938 135.964844 137.699219 136.03125 C 137.5625 136.101562 137.441406 136.191406 137.339844 136.308594 C 137.238281 136.425781 137.160156 136.554688 137.113281 136.703125 C 137.0625 136.847656 137.042969 136.996094 137.050781 137.152344 C 137.0625 137.304688 137.101562 137.453125 137.167969 137.589844 C 137.238281 137.726562 137.328125 137.847656 137.445312 137.949219 C 137.5625 138.050781 137.691406 138.128906 137.835938 138.179688 C 137.984375 138.226562 138.132812 138.246094 138.289062 138.238281 C 138.441406 138.226562 138.585938 138.1875 138.726562 138.117188 C 138.863281 138.050781 138.984375 137.957031 139.085938 137.84375 C 139.1875 137.726562 139.261719 137.597656 139.3125 137.449219 C 139.363281 137.304688 139.382812 137.152344 139.371094 137 C 139.363281 136.847656 139.324219 136.699219 139.253906 136.5625 C 139.1875 136.421875 139.09375 136.304688 138.980469 136.199219 C 138.863281 136.097656 138.734375 136.023438 138.585938 135.972656 Z M 138.585938 135.972656 "/><path style=" stroke:none;fill-rule:nonzero;fill:#000000;fill-opacity:1;" d="M 147.113281 154.835938 C 146.96875 154.785156 146.820312 154.765625 146.664062 154.777344 C 146.511719 154.785156 146.367188 154.824219 146.226562 154.894531 C 146.089844 154.960938 145.972656 155.054688 145.871094 155.167969 C 145.769531 155.285156 145.691406 155.414062 145.640625 155.558594 C 145.59375 155.707031 145.574219 155.855469 145.582031 156.007812 C 145.59375 156.160156 145.632812 156.308594 145.699219 156.445312 C 145.765625 156.582031 145.859375 156.703125 145.972656 156.804688 C 146.089844 156.90625 146.21875 156.984375 146.363281 157.03125 C 147.796875 157.511719 148.546875 155.277344 147.113281 154.835938 Z M 147.113281 154.835938 "/><path style=" stroke:none;fill-rule:nonzero;fill:#000000;fill-opacity:1;" d="M 141.496094 99.484375 C 139.667969 98.808594 138.683594 101.734375 140.550781 102.335938 C 142.417969 102.933594 143.386719 100.046875 141.496094 99.484375 Z M 141.496094 99.484375 "/><path style=" stroke:none;fill-rule:nonzero;fill:#000000;fill-opacity:1;" d="M 146.289062 109.101562 C 144.445312 108.464844 143.460938 111.351562 145.335938 111.957031 C 147.210938 112.566406 148.132812 109.679688 146.289062 109.101562 Z M 146.289062 109.101562 "/><path style=" stroke:none;fill-rule:nonzero;fill:#000000;fill-opacity:1;" d="M 139.367188 112.558594 C 138.707031 111.207031 136.59375 112.289062 137.296875 113.601562 C 137.453125 113.859375 137.679688 114.03125 137.96875 114.113281 C 138.261719 114.199219 138.542969 114.171875 138.8125 114.035156 C 139.085938 113.898438 139.273438 113.6875 139.378906 113.40625 C 139.484375 113.121094 139.480469 112.839844 139.367188 112.558594 Z M 139.367188 112.558594 "/><path style=" stroke:none;fill-rule:nonzero;fill:#000000;fill-opacity:1;" d="M 147.046875 126.875 C 146.902344 126.824219 146.75 126.804688 146.597656 126.816406 C 146.445312 126.828125 146.296875 126.867188 146.160156 126.933594 C 146.023438 127 145.902344 127.09375 145.800781 127.207031 C 145.699219 127.324219 145.625 127.453125 145.574219 127.601562 C 145.527344 127.746094 145.503906 127.894531 145.515625 128.046875 C 145.523438 128.203125 145.5625 128.347656 145.632812 128.484375 C 145.699219 128.625 145.789062 128.742188 145.90625 128.84375 C 146.019531 128.945312 146.152344 129.023438 146.296875 129.074219 C 146.441406 129.121094 146.589844 129.140625 146.746094 129.132812 C 146.898438 129.121094 147.042969 129.082031 147.183594 129.015625 C 147.320312 128.945312 147.4375 128.855469 147.539062 128.738281 C 147.640625 128.625 147.71875 128.492188 147.765625 128.347656 C 147.816406 128.203125 147.835938 128.054688 147.828125 127.898438 C 147.816406 127.746094 147.777344 127.601562 147.710938 127.460938 C 147.644531 127.324219 147.550781 127.203125 147.4375 127.101562 C 147.320312 127 147.191406 126.925781 147.046875 126.875 Z M 147.046875 126.875 "/><path style=" stroke:none;fill-rule:nonzero;fill:#000000;fill-opacity:1;" d="M 171.679688 105.867188 C 171.824219 105.917969 171.976562 105.9375 172.128906 105.929688 C 172.28125 105.917969 172.429688 105.878906 172.566406 105.8125 C 172.707031 105.742188 172.824219 105.652344 172.925781 105.535156 C 173.027344 105.421875 173.105469 105.289062 173.152344 105.144531 C 173.203125 105 173.222656 104.847656 173.214844 104.695312 C 173.203125 104.542969 173.164062 104.394531 173.097656 104.257812 C 173.03125 104.121094 172.9375 104 172.820312 103.898438 C 172.707031 103.796875 172.574219 103.71875 172.429688 103.671875 C 172.285156 103.621094 172.136719 103.601562 171.980469 103.609375 C 171.828125 103.621094 171.683594 103.660156 171.542969 103.726562 C 171.40625 103.796875 171.285156 103.886719 171.183594 104.003906 C 171.082031 104.117188 171.007812 104.25 170.957031 104.394531 C 170.90625 104.539062 170.886719 104.691406 170.898438 104.84375 C 170.90625 104.996094 170.945312 105.144531 171.011719 105.28125 C 171.082031 105.417969 171.171875 105.539062 171.289062 105.640625 C 171.402344 105.742188 171.535156 105.816406 171.679688 105.867188 Z M 171.679688 105.867188 "/><path style=" stroke:none;fill-rule:nonzero;fill:#000000;fill-opacity:1;" d="M 141.007812 165.289062 C 140.765625 165.230469 140.53125 165.261719 140.3125 165.386719 C 140.09375 165.507812 139.945312 165.6875 139.863281 165.925781 C 139.785156 166.164062 139.796875 166.398438 139.902344 166.628906 C 140.003906 166.859375 140.171875 167.023438 140.402344 167.121094 C 140.648438 167.179688 140.878906 167.148438 141.097656 167.027344 C 141.316406 166.902344 141.46875 166.722656 141.546875 166.484375 C 141.625 166.246094 141.613281 166.011719 141.511719 165.78125 C 141.40625 165.554688 141.242188 165.390625 141.007812 165.289062 Z M 141.007812 165.289062 "/><path style=" stroke:none;fill-rule:nonzero;fill:#000000;fill-opacity:1;" d="M 164.179688 108.351562 C 164.464844 108.347656 164.710938 108.257812 164.925781 108.070312 C 165.140625 107.886719 165.269531 107.65625 165.3125 107.378906 C 165.359375 107.097656 165.308594 106.839844 165.160156 106.597656 C 165.015625 106.355469 164.808594 106.191406 164.542969 106.101562 C 162.863281 105.574219 162.402344 108.34375 164.179688 108.351562 Z M 164.179688 108.351562 "/><path style=" stroke:none;fill-rule:nonzero;fill:#000000;fill-opacity:1;" d="M 136.789062 122.113281 C 136.742188 122.257812 136.722656 122.40625 136.734375 122.558594 C 136.746094 122.714844 136.789062 122.859375 136.859375 122.992188 C 136.925781 123.128906 137.019531 123.25 137.136719 123.347656 C 137.253906 123.445312 137.382812 123.519531 137.53125 123.566406 C 137.675781 123.613281 137.824219 123.632812 137.976562 123.621094 C 138.128906 123.609375 138.273438 123.566406 138.410156 123.496094 C 138.546875 123.429688 138.664062 123.335938 138.765625 123.21875 C 138.863281 123.101562 138.9375 122.972656 138.984375 122.824219 C 139.488281 121.402344 137.230469 120.679688 136.789062 122.113281 Z M 136.789062 122.113281 "/><path style=" stroke:none;fill-rule:nonzero;fill:#000000;fill-opacity:1;" d="M 157.09375 104.464844 C 155.699219 103.941406 154.941406 106.226562 156.34375 106.65625 C 157.746094 107.082031 158.558594 104.878906 157.09375 104.464844 Z M 157.09375 104.464844 "/><path style=" stroke:none;fill-rule:nonzero;fill:#000000;fill-opacity:1;" d="M 143.730469 142.496094 C 143.582031 142.449219 143.429688 142.429688 143.273438 142.441406 C 143.117188 142.453125 142.96875 142.492188 142.828125 142.5625 C 142.6875 142.632812 142.5625 142.726562 142.460938 142.847656 C 142.359375 142.964844 142.28125 143.097656 142.230469 143.246094 C 142.183594 143.398438 142.164062 143.550781 142.175781 143.707031 C 142.183594 143.863281 142.226562 144.011719 142.296875 144.152344 C 142.367188 144.292969 142.460938 144.414062 142.578125 144.519531 C 142.699219 144.621094 142.832031 144.699219 142.980469 144.746094 C 143.132812 144.796875 143.285156 144.816406 143.441406 144.804688 C 143.597656 144.792969 143.746094 144.753906 143.886719 144.683594 C 144.027344 144.613281 144.148438 144.519531 144.253906 144.398438 C 144.355469 144.28125 144.433594 144.148438 144.480469 143.996094 C 144.53125 143.847656 144.550781 143.695312 144.539062 143.539062 C 144.527344 143.382812 144.488281 143.234375 144.417969 143.09375 C 144.347656 142.953125 144.253906 142.832031 144.132812 142.726562 C 144.015625 142.625 143.878906 142.546875 143.730469 142.496094 Z M 143.730469 142.496094 "/><path style=" stroke:none;fill-rule:nonzero;fill:#000000;fill-opacity:1;" d="M 141.910156 150.179688 C 141.980469 149.882812 141.9375 149.605469 141.789062 149.339844 C 141.640625 149.078125 141.421875 148.898438 141.136719 148.804688 C 140.847656 148.710938 140.566406 148.730469 140.292969 148.855469 C 140.015625 148.984375 139.820312 149.1875 139.703125 149.464844 C 139.636719 149.761719 139.675781 150.039062 139.824219 150.304688 C 139.972656 150.566406 140.191406 150.746094 140.480469 150.835938 C 140.765625 150.929688 141.046875 150.914062 141.324219 150.789062 C 141.597656 150.660156 141.792969 150.457031 141.910156 150.179688 Z M 141.910156 150.179688 "/><path style=" stroke:none;fill-rule:nonzero;fill:#000000;fill-opacity:1;" d="M 135.136719 154.910156 C 133.726562 154.40625 132.984375 156.644531 134.386719 157.109375 C 135.789062 157.574219 136.585938 155.339844 135.136719 154.910156 Z M 135.136719 154.910156 "/><path style=" stroke:none;fill-rule:nonzero;fill:#000000;fill-opacity:1;" d="M 311.019531 344.261719 C 322.53125 352.894531 259.949219 361.214844 267.660156 352.027344 C 257.984375 363.914062 325.230469 355.21875 311.019531 344.261719 Z M 311.019531 344.261719 "/><g clip-rule="nonzero" clip-path="url(#99f361377c)"><path style=" stroke:none;fill-rule:nonzero;fill:#000000;fill-opacity:1;" d="M 338.765625 346.964844 C 336.230469 340.308594 327.949219 342.664062 322.4375 342.074219 C 299.523438 341.699219 290.105469 317.039062 287.839844 297.5 C 283.738281 275.546875 279.15625 251.585938 275.519531 229.714844 C 265.769531 181.796875 295.726562 203.324219 295.464844 143.539062 C 293.546875 105.003906 280.347656 68.082031 268.214844 31.789062 C 265.875 25.96875 264.007812 19.308594 260.601562 14.269531 C 250.855469 12.019531 240.503906 15.402344 230.90625 17.351562 C 240.394531 16.28125 250.570312 13.550781 259.929688 15.851562 C 247.539062 23.5625 231.753906 25.128906 217.550781 27.574219 C 185.6875 31.085938 221.226562 19.402344 230.90625 17.339844 C 190.871094 26.074219 215.625 26.152344 174.730469 15.644531 C 183.460938 18.644531 192.234375 21.492188 200.777344 24.957031 C 182.832031 20.757812 165.164062 15.613281 147.773438 9.515625 C 156.839844 11.195312 165.769531 13.492188 174.730469 15.644531 C 164.773438 12.449219 154.785156 8.984375 144.421875 7.324219 C 143.671875 7.414062 142.980469 7.101562 142.59375 8.074219 C 126.265625 45.574219 110.976562 84.246094 103.335938 124.699219 C 91.441406 170.074219 125.140625 191.714844 110.097656 234.769531 C 101.746094 256.730469 91.171875 331.925781 63.441406 331.21875 C 57.132812 332.660156 40.375 329.433594 37.320312 333.664062 C 32.605469 343.886719 55.941406 346.886719 62.195312 350.023438 C 81.617188 356.488281 101.519531 362.339844 121.945312 364.503906 C 129.714844 365.945312 136.621094 360.851562 128.492188 354.664062 C 119.765625 350.472656 111.246094 345.914062 104.714844 338.617188 C 95.25 313.496094 106.664062 284.203125 113.9375 259.324219 C 122.058594 239.164062 124.550781 215.261719 139.066406 198.523438 C 149.617188 188.472656 164.082031 180.839844 171.230469 167.292969 C 190.832031 132.433594 195.128906 91.542969 201.871094 52.761719 C 205.027344 93.753906 205.890625 157.617188 236.554688 187.558594 C 253.335938 201.171875 257.769531 203.097656 261.992188 225.449219 C 266.917969 249.089844 269.917969 273.34375 274.417969 297.140625 C 276.664062 310.324219 279.148438 324.222656 275.578125 337.324219 C 272.316406 348.125 260.796875 352.992188 251.289062 357.101562 C 248.289062 357.921875 244.855469 358.40625 243.355469 361.601562 C 243.226562 376.820312 273.222656 368.441406 282.730469 368.300781 C 293.824219 366.351562 341.15625 362.074219 338.765625 346.964844 Z M 198.742188 58.964844 C 189.960938 98.179688 185.296875 153.929688 153.898438 181.707031 C 144.953125 188.59375 135.152344 195.089844 129.304688 205.152344 C 121.738281 222.335938 116.9375 240.652344 111.171875 258.492188 C 103.199219 284.292969 95.941406 312.003906 103.078125 338.824219 C 109.078125 346.558594 117.328125 352.046875 125.960938 356.382812 C 127.757812 357.296875 129.109375 358.257812 129.046875 360.253906 C 124.550781 363.679688 111.800781 359.179688 105.996094 358.421875 C 88.042969 354.613281 70.226562 348.859375 52.753906 343.167969 C 49.695312 341.75 38.289062 339.53125 40.007812 335.195312 C 47.828125 333.304688 57.253906 334.777344 65.414062 333.101562 C 94.007812 322.550781 97.132812 282.417969 106.988281 257.277344 C 124.828125 203.421875 117.582031 206.382812 104.902344 155.464844 C 103.148438 134.277344 109.148438 112.984375 114.328125 92.5625 C 122.523438 64.429688 131.980469 36.574219 143.460938 9.574219 C 160.515625 17.152344 178.847656 21.742188 196.945312 26.121094 C 199.195312 26.871094 202.058594 26.121094 202.34375 28.722656 C 202.816406 36.882812 200.5 50.914062 198.742188 58.984375 Z M 205.246094 71.894531 C 203.476562 57.832031 203.597656 43.648438 203.519531 29.496094 C 220.84375 31.378906 246.378906 26.414062 261.171875 17.179688 C 270.777344 41.21875 276.988281 66.628906 283.730469 91.574219 C 271.378906 89.636719 258.722656 90.246094 246.234375 90.304688 C 258.449219 90.792969 270.800781 90.636719 282.898438 92.554688 C 258.457031 94.8125 234.019531 94.8125 209.578125 92.554688 C 221.675781 90.664062 234.019531 90.816406 246.234375 90.304688 C 233.589844 90.671875 219.800781 88.753906 207.71875 92.234375 C 206.820312 85.484375 205.996094 78.710938 205.246094 71.914062 Z M 335.976562 349.558594 C 336.769531 359.308594 225.558594 376.683594 249.257812 359.984375 C 262.003906 356.089844 275.292969 347.234375 277.984375 333.269531 C 281.675781 304.949219 272.414062 276.808594 269.625 248.71875 C 259.289062 153.996094 224.015625 228.140625 207.847656 93.035156 C 226.421875 97.046875 246.371094 95.179688 265.402344 95.179688 C 271.003906 94.910156 276.652344 94.777344 282.171875 93.90625 C 285.296875 92.40625 284.539062 96.394531 285.417969 98.539062 C 291.542969 128.375 299.164062 165.289062 277.820312 190.789062 C 275.257812 193.789062 272.144531 197.039062 271.320312 201.117188 C 267.164062 226.078125 277.175781 250.964844 280.769531 275.511719 C 285.542969 293.871094 285.867188 314.652344 297.585938 330.359375 C 303.847656 336.679688 312.121094 342.171875 320.945312 343.796875 C 325.347656 345.089844 337.21875 342.246094 335.976562 349.558594 Z M 335.976562 349.558594 "/></g><path style=" stroke:none;fill-rule:nonzero;fill:#000000;fill-opacity:1;" d="M 282.320312 180.84375 C 288.371094 173.945312 291.011719 164.285156 290.570312 155.242188 C 290.71875 179.636719 266.25 195.941406 244.511719 183.566406 C 232.828125 176.511719 227.425781 163.199219 221.203125 151.527344 C 226.210938 163.910156 231.492188 177.914062 243.414062 185.390625 C 255.367188 192.726562 272.488281 190.957031 282.320312 180.84375 Z M 282.320312 180.84375 "/><path style=" stroke:none;fill-rule:nonzero;fill:#000000;fill-opacity:1;" d="M 219.832031 31.664062 C 230.855469 30.605469 242.328125 28.8125 251.980469 23.015625 C 238.414062 28.753906 223.332031 31.046875 208.679688 31.527344 C 212.355469 32.179688 216.132812 31.886719 219.832031 31.664062 Z M 219.832031 31.664062 "/><path style=" stroke:none;fill-rule:nonzero;fill:#000000;fill-opacity:1;" d="M 193.503906 73.550781 C 181.839844 71.023438 169.503906 72.050781 157.605469 72.003906 C 169.101562 72.484375 180.722656 72.335938 192.101562 74.253906 C 169.121094 76.511719 146.140625 76.511719 123.160156 74.253906 C 134.515625 72.359375 146.144531 72.523438 157.621094 72.003906 C 152.183594 72.425781 122.023438 70.242188 121.488281 74.742188 C 138.953125 78.65625 157.738281 76.894531 175.640625 76.851562 C 178.21875 76.324219 195.675781 77.074219 193.503906 73.550781 Z M 193.503906 73.550781 "/><path style=" stroke:none;fill-rule:nonzero;fill:#000000;fill-opacity:1;" d="M 93.21875 348.875 C 85.71875 346.21875 64.363281 342.125 61.101562 335.757812 C 59.742188 342.6875 118.234375 360.652344 109.4375 346.476562 C 113.789062 354.464844 96.804688 349.535156 93.21875 348.875 Z M 93.21875 348.875 "/><path style=" stroke:none;fill-rule:nonzero;fill:#000000;fill-opacity:1;" d="M 99.105469 344.960938 C 90.105469 343.878906 78.671875 341.804688 72.386719 335.210938 C 75.695312 341.871094 94.132812 347.652344 100.882812 344.457031 C 100.355469 344.855469 99.761719 345.023438 99.105469 344.960938 Z M 99.105469 344.960938 "/><path style=" stroke:none;fill-rule:nonzero;fill:#000000;fill-opacity:1;" d="M 171.164062 21.957031 C 178.417969 24.121094 185.816406 25.566406 193.351562 26.292969 C 178.746094 22.746094 164.339844 18.574219 150.105469 13.746094 C 156.855469 17.171875 163.875 19.90625 171.164062 21.957031 Z M 171.164062 21.957031 "/><path style=" stroke:none;fill-rule:nonzero;fill:#000000;fill-opacity:1;" d="M 166.640625 162.792969 C 154.109375 185.773438 118.582031 192.371094 109.347656 163.296875 C 103.589844 142.492188 109.527344 120.441406 113.945312 99.875 C 108.367188 123.207031 98.796875 151.582031 112.976562 173.488281 C 124.730469 189.769531 148.972656 186.042969 160.917969 171.988281 C 171.066406 161.367188 174.703125 146.734375 178.917969 133.117188 C 175.265625 143.171875 172.339844 153.636719 166.640625 162.792969 Z M 166.640625 162.792969 "/><path style=" stroke:none;fill-rule:nonzero;fill:#000000;fill-opacity:1;" d="M 243.371094 111.140625 C 246.003906 112.25 246.296875 107.609375 243.582031 108.351562 C 243.285156 108.441406 243.039062 108.605469 242.84375 108.847656 C 242.652344 109.089844 242.542969 109.363281 242.519531 109.671875 C 242.496094 109.984375 242.5625 110.269531 242.71875 110.539062 C 242.875 110.808594 243.089844 111.007812 243.371094 111.140625 Z M 243.371094 111.140625 "/><path style=" stroke:none;fill-rule:nonzero;fill:#000000;fill-opacity:1;" d="M 240.214844 122.210938 C 242.507812 122.171875 241.90625 118.574219 239.742188 119.277344 C 239.382812 119.386719 239.105469 119.601562 238.910156 119.921875 C 238.714844 120.238281 238.644531 120.582031 238.703125 120.949219 C 238.761719 121.316406 238.9375 121.621094 239.222656 121.863281 C 239.511719 122.101562 239.839844 122.21875 240.214844 122.210938 Z M 240.214844 122.210938 "/><path style=" stroke:none;fill-rule:nonzero;fill:#000000;fill-opacity:1;" d="M 248.761719 123.636719 C 250.507812 123.636719 250.066406 120.832031 248.394531 121.386719 C 248.136719 121.484375 247.9375 121.652344 247.796875 121.890625 C 247.660156 122.132812 247.613281 122.386719 247.65625 122.660156 C 247.699219 122.933594 247.828125 123.164062 248.035156 123.347656 C 248.242188 123.527344 248.484375 123.625 248.761719 123.636719 Z M 248.761719 123.636719 "/><path style=" stroke:none;fill-rule:nonzero;fill:#000000;fill-opacity:1;" d="M 246.289062 132.082031 C 246.496094 132.183594 246.714844 132.21875 246.949219 132.1875 C 247.179688 132.160156 247.382812 132.066406 247.558594 131.914062 C 247.730469 131.761719 247.851562 131.570312 247.910156 131.347656 C 247.972656 131.121094 247.964844 130.898438 247.890625 130.679688 C 247.089844 128.667969 244.421875 131.007812 246.289062 132.082031 Z M 246.289062 132.082031 "/><path style=" stroke:none;fill-rule:nonzero;fill:#000000;fill-opacity:1;" d="M 261.863281 155.691406 C 260.421875 156.125 261.179688 158.390625 262.613281 157.871094 C 264.046875 157.355469 263.273438 155.171875 261.863281 155.691406 Z M 261.863281 155.691406 "/><path style=" stroke:none;fill-rule:nonzero;fill:#000000;fill-opacity:1;" d="M 266.617188 168.507812 C 266.472656 168.558594 266.339844 168.632812 266.226562 168.734375 C 266.109375 168.835938 266.015625 168.957031 265.949219 169.097656 C 265.882812 169.234375 265.84375 169.382812 265.832031 169.535156 C 265.824219 169.6875 265.84375 169.839844 265.890625 169.984375 C 265.941406 170.128906 266.019531 170.261719 266.121094 170.378906 C 266.222656 170.492188 266.339844 170.585938 266.480469 170.652344 C 266.617188 170.722656 266.761719 170.761719 266.917969 170.773438 C 267.070312 170.78125 267.222656 170.761719 267.367188 170.714844 C 267.511719 170.664062 267.644531 170.585938 267.757812 170.484375 C 267.875 170.382812 267.964844 170.261719 268.035156 170.125 C 268.101562 169.984375 268.140625 169.839844 268.152344 169.6875 C 268.160156 169.53125 268.140625 169.382812 268.089844 169.238281 C 268.042969 169.089844 267.964844 168.960938 267.863281 168.84375 C 267.761719 168.726562 267.644531 168.636719 267.503906 168.566406 C 267.367188 168.5 267.222656 168.460938 267.066406 168.449219 C 266.914062 168.4375 266.761719 168.457031 266.617188 168.507812 Z M 266.617188 168.507812 "/><path style=" stroke:none;fill-rule:nonzero;fill:#000000;fill-opacity:1;" d="M 263.617188 179.824219 C 263.378906 179.703125 263.132812 179.683594 262.878906 179.769531 C 262.625 179.851562 262.4375 180.011719 262.316406 180.25 C 262.195312 180.488281 262.175781 180.734375 262.257812 180.988281 C 262.339844 181.242188 262.503906 181.429688 262.738281 181.550781 C 262.976562 181.671875 263.222656 181.691406 263.476562 181.609375 C 263.734375 181.523438 263.921875 181.363281 264.042969 181.125 C 264.164062 180.886719 264.179688 180.640625 264.097656 180.386719 C 264.015625 180.132812 263.855469 179.945312 263.617188 179.824219 Z M 263.617188 179.824219 "/><path style=" stroke:none;fill-rule:nonzero;fill:#000000;fill-opacity:1;" d="M 266.917969 146.511719 C 268.679688 146.511719 268.238281 143.707031 266.566406 144.261719 C 266.3125 144.363281 266.121094 144.53125 265.988281 144.769531 C 265.855469 145.003906 265.808594 145.257812 265.851562 145.523438 C 265.890625 145.792969 266.011719 146.019531 266.210938 146.203125 C 266.410156 146.386719 266.648438 146.488281 266.917969 146.511719 Z M 266.917969 146.511719 "/><path style=" stroke:none;fill-rule:nonzero;fill:#000000;fill-opacity:1;" d="M 241.34375 133.601562 C 240.039062 132.851562 238.953125 135.019531 240.3125 135.65625 C 241.667969 136.296875 242.710938 134.226562 241.34375 133.601562 Z M 241.34375 133.601562 "/><path style=" stroke:none;fill-rule:nonzero;fill:#000000;fill-opacity:1;" d="M 242.507812 144.777344 C 242.71875 144.875 242.9375 144.910156 243.167969 144.878906 C 243.398438 144.847656 243.601562 144.753906 243.777344 144.601562 C 243.949219 144.453125 244.070312 144.265625 244.136719 144.042969 C 244.203125 143.820312 244.203125 143.597656 244.136719 143.375 C 243.316406 141.367188 240.671875 143.707031 242.507812 144.777344 Z M 242.507812 144.777344 "/><path style=" stroke:none;fill-rule:nonzero;fill:#000000;fill-opacity:1;" d="M 249.265625 151.109375 C 247.570312 150.3125 246.878906 153.28125 248.753906 153.304688 C 249.019531 153.300781 249.257812 153.214844 249.464844 153.046875 C 249.671875 152.878906 249.808594 152.664062 249.867188 152.40625 C 249.929688 152.144531 249.902344 151.894531 249.789062 151.652344 C 249.675781 151.410156 249.503906 151.230469 249.265625 151.109375 Z M 249.265625 151.109375 "/><path style=" stroke:none;fill-rule:nonzero;fill:#000000;fill-opacity:1;" d="M 261.929688 146.179688 C 261.503906 144.742188 259.230469 145.496094 259.742188 146.929688 C 259.789062 147.074219 259.867188 147.207031 259.96875 147.320312 C 260.070312 147.4375 260.1875 147.527344 260.328125 147.59375 C 260.464844 147.660156 260.609375 147.699219 260.761719 147.710938 C 260.914062 147.71875 261.066406 147.699219 261.210938 147.648438 C 261.355469 147.601562 261.484375 147.523438 261.601562 147.421875 C 261.714844 147.320312 261.808594 147.203125 261.875 147.0625 C 261.941406 146.925781 261.980469 146.78125 261.988281 146.628906 C 262 146.476562 261.980469 146.324219 261.929688 146.179688 Z M 261.929688 146.179688 "/><path style=" stroke:none;fill-rule:nonzero;fill:#000000;fill-opacity:1;" d="M 251.792969 166.429688 C 253.785156 167.324219 254.042969 163.730469 251.949219 164.308594 C 251.730469 164.386719 251.554688 164.515625 251.414062 164.699219 C 251.273438 164.882812 251.195312 165.089844 251.179688 165.316406 C 251.160156 165.546875 251.207031 165.761719 251.320312 165.964844 C 251.429688 166.167969 251.589844 166.324219 251.792969 166.429688 Z M 251.792969 166.429688 "/><path style=" stroke:none;fill-rule:nonzero;fill:#000000;fill-opacity:1;" d="M 258.046875 111.890625 C 260.296875 111.890625 259.726562 108.222656 257.566406 108.949219 C 255.9375 109.421875 256.417969 111.941406 258.046875 111.890625 Z M 258.046875 111.890625 "/><path style=" stroke:none;fill-rule:nonzero;fill:#000000;fill-opacity:1;" d="M 252.585938 121.324219 C 254.3125 122.21875 255.683594 119.480469 253.9375 118.625 C 252.1875 117.769531 250.800781 120.523438 252.585938 121.324219 Z M 252.585938 121.324219 "/><path style=" stroke:none;fill-rule:nonzero;fill:#000000;fill-opacity:1;" d="M 260.207031 123.574219 C 261.546875 124.273438 262.613281 122.144531 261.242188 121.511719 C 261.105469 121.453125 260.960938 121.417969 260.8125 121.414062 C 260.664062 121.40625 260.519531 121.429688 260.382812 121.480469 C 260.242188 121.53125 260.117188 121.605469 260.003906 121.703125 C 259.894531 121.800781 259.804688 121.917969 259.738281 122.050781 C 259.671875 122.183594 259.632812 122.324219 259.617188 122.472656 C 259.605469 122.621094 259.621094 122.765625 259.664062 122.90625 C 259.710938 123.046875 259.777344 123.175781 259.871094 123.292969 C 259.964844 123.410156 260.074219 123.503906 260.207031 123.574219 Z M 260.207031 123.574219 "/><path style=" stroke:none;fill-rule:nonzero;fill:#000000;fill-opacity:1;" d="M 251.851562 138.476562 C 252.0625 138.578125 252.28125 138.613281 252.511719 138.585938 C 252.742188 138.554688 252.945312 138.464844 253.121094 138.3125 C 253.296875 138.160156 253.417969 137.972656 253.484375 137.75 C 253.546875 137.527344 253.546875 137.304688 253.480469 137.082031 C 252.667969 135.066406 249.96875 137.40625 251.851562 138.476562 Z M 251.851562 138.476562 "/><path style=" stroke:none;fill-rule:nonzero;fill:#000000;fill-opacity:1;" d="M 227.007812 115.394531 C 228.769531 115.394531 228.320312 112.601562 226.640625 113.144531 C 226.378906 113.242188 226.183594 113.410156 226.042969 113.648438 C 225.902344 113.886719 225.855469 114.144531 225.902344 114.417969 C 225.945312 114.691406 226.074219 114.921875 226.28125 115.101562 C 226.488281 115.285156 226.730469 115.382812 227.007812 115.394531 Z M 227.007812 115.394531 "/><path style=" stroke:none;fill-rule:nonzero;fill:#000000;fill-opacity:1;" d="M 258.796875 174.800781 C 258.554688 174.679688 258.308594 174.664062 258.054688 174.746094 C 257.800781 174.832031 257.613281 174.992188 257.496094 175.230469 C 257.375 175.472656 257.355469 175.71875 257.441406 175.972656 C 257.523438 176.226562 257.6875 176.414062 257.925781 176.53125 C 258.164062 176.652344 258.410156 176.671875 258.664062 176.585938 C 258.917969 176.503906 259.105469 176.339844 259.226562 176.101562 C 259.347656 175.863281 259.363281 175.617188 259.28125 175.363281 C 259.195312 175.109375 259.035156 174.921875 258.796875 174.800781 Z M 258.796875 174.800781 "/><path style=" stroke:none;fill-rule:nonzero;fill:#000000;fill-opacity:1;" d="M 234.371094 117.695312 C 234.582031 117.796875 234.800781 117.835938 235.03125 117.804688 C 235.261719 117.777344 235.464844 117.6875 235.644531 117.535156 C 235.820312 117.386719 235.941406 117.199219 236.007812 116.976562 C 236.074219 116.753906 236.074219 116.53125 236.007812 116.308594 C 235.210938 114.277344 232.503906 116.609375 234.371094 117.695312 Z M 234.371094 117.695312 "/><path style=" stroke:none;fill-rule:nonzero;fill:#000000;fill-opacity:1;" d="M 260.804688 130.84375 C 259.375 131.277344 260.136719 133.558594 261.554688 133.039062 C 261.699219 132.992188 261.832031 132.914062 261.945312 132.8125 C 262.0625 132.710938 262.152344 132.589844 262.222656 132.453125 C 262.289062 132.316406 262.328125 132.167969 262.335938 132.015625 C 262.347656 131.863281 262.328125 131.710938 262.277344 131.566406 C 262.226562 131.421875 262.152344 131.292969 262.050781 131.175781 C 261.949219 131.058594 261.828125 130.96875 261.691406 130.902344 C 261.554688 130.832031 261.40625 130.792969 261.253906 130.785156 C 261.101562 130.773438 260.949219 130.792969 260.804688 130.84375 Z M 260.804688 130.84375 "/><path style=" stroke:none;fill-rule:nonzero;fill:#000000;fill-opacity:1;" d="M 242.328125 116.1875 C 244.074219 116.1875 243.617188 113.367188 241.96875 113.9375 C 241.699219 114.027344 241.492188 114.195312 241.347656 114.433594 C 241.199219 114.675781 241.148438 114.9375 241.195312 115.214844 C 241.238281 115.496094 241.367188 115.726562 241.582031 115.910156 C 241.796875 116.09375 242.046875 116.1875 242.328125 116.1875 Z M 242.328125 116.1875 "/><path style=" stroke:none;fill-rule:nonzero;fill:#000000;fill-opacity:1;" d="M 254.597656 153.441406 C 255.046875 154.886719 257.289062 154.109375 256.792969 152.691406 C 256.738281 152.550781 256.660156 152.429688 256.554688 152.320312 C 256.453125 152.214844 256.335938 152.128906 256.199219 152.066406 C 256.0625 152.003906 255.921875 151.96875 255.773438 151.960938 C 255.625 151.953125 255.480469 151.972656 255.339844 152.023438 C 255.199219 152.070312 255.070312 152.140625 254.957031 152.238281 C 254.84375 152.335938 254.753906 152.449219 254.683594 152.582031 C 254.617188 152.714844 254.574219 152.855469 254.558594 153.003906 C 254.542969 153.152344 254.554688 153.296875 254.597656 153.441406 Z M 254.597656 153.441406 "/><path style=" stroke:none;fill-rule:nonzero;fill:#000000;fill-opacity:1;" d="M 259.359375 158.929688 C 259.308594 158.785156 259.230469 158.652344 259.128906 158.539062 C 259.027344 158.421875 258.910156 158.328125 258.769531 158.261719 C 258.632812 158.195312 258.484375 158.15625 258.332031 158.144531 C 258.175781 158.136719 258.027344 158.15625 257.882812 158.203125 C 257.734375 158.253906 257.605469 158.328125 257.488281 158.429688 C 257.371094 158.535156 257.28125 158.652344 257.210938 158.792969 C 257.144531 158.929688 257.105469 159.078125 257.09375 159.230469 C 257.085938 159.382812 257.105469 159.535156 257.152344 159.679688 C 257.632812 161.074219 259.851562 160.324219 259.359375 158.929688 Z M 259.359375 158.929688 "/><path style=" stroke:none;fill-rule:nonzero;fill:#000000;fill-opacity:1;" d="M 263.167969 165.839844 C 263.601562 167.285156 265.851562 166.511719 265.363281 165.089844 C 265.316406 164.941406 265.238281 164.8125 265.136719 164.699219 C 265.035156 164.582031 264.914062 164.492188 264.777344 164.421875 C 264.640625 164.355469 264.492188 164.316406 264.339844 164.308594 C 264.1875 164.296875 264.039062 164.316406 263.890625 164.367188 C 263.746094 164.417969 263.617188 164.492188 263.5 164.59375 C 263.386719 164.695312 263.292969 164.816406 263.226562 164.953125 C 263.15625 165.089844 263.117188 165.234375 263.109375 165.390625 C 263.097656 165.542969 263.117188 165.691406 263.167969 165.839844 Z M 263.167969 165.839844 "/><path style=" stroke:none;fill-rule:nonzero;fill:#000000;fill-opacity:1;" d="M 155.488281 98.886719 C 153.644531 98.246094 152.648438 101.136719 154.546875 101.757812 C 156.441406 102.378906 157.335938 99.476562 155.488281 98.886719 Z M 155.488281 98.886719 "/><path style=" stroke:none;fill-rule:nonzero;fill:#000000;fill-opacity:1;" d="M 160.273438 111.710938 C 160.941406 109.867188 158.023438 108.898438 157.410156 110.765625 C 156.792969 112.632812 159.683594 113.601562 160.273438 111.710938 Z M 160.273438 111.710938 "/><path style=" stroke:none;fill-rule:nonzero;fill:#000000;fill-opacity:1;" d="M 150.683594 111.921875 C 150.539062 111.871094 150.390625 111.851562 150.238281 111.859375 C 150.085938 111.871094 149.941406 111.910156 149.804688 111.976562 C 149.664062 112.042969 149.546875 112.132812 149.445312 112.25 C 149.34375 112.363281 149.269531 112.492188 149.21875 112.636719 C 149.167969 112.78125 149.148438 112.929688 149.160156 113.082031 C 149.167969 113.234375 149.207031 113.378906 149.273438 113.519531 C 149.339844 113.65625 149.429688 113.773438 149.546875 113.875 C 149.660156 113.976562 149.789062 114.054688 149.933594 114.101562 C 151.34375 114.621094 152.117188 112.324219 150.683594 111.921875 Z M 150.683594 111.921875 "/><path style=" stroke:none;fill-rule:nonzero;fill:#000000;fill-opacity:1;" d="M 151.898438 122.675781 C 153.316406 123.171875 154.066406 120.914062 152.648438 120.476562 C 152.503906 120.429688 152.351562 120.410156 152.199219 120.417969 C 152.046875 120.429688 151.898438 120.46875 151.761719 120.535156 C 151.625 120.601562 151.503906 120.695312 151.402344 120.8125 C 151.300781 120.925781 151.226562 121.058594 151.175781 121.203125 C 151.125 121.347656 151.105469 121.496094 151.117188 121.652344 C 151.125 121.804688 151.164062 121.949219 151.230469 122.089844 C 151.300781 122.226562 151.390625 122.347656 151.507812 122.449219 C 151.621094 122.550781 151.753906 122.625 151.898438 122.675781 Z M 151.898438 122.675781 "/><path style=" stroke:none;fill-rule:nonzero;fill:#000000;fill-opacity:1;" d="M 135.746094 146.960938 C 135.242188 148.363281 137.492188 149.105469 137.941406 147.710938 C 138.390625 146.316406 136.164062 145.519531 135.746094 146.960938 Z M 135.746094 146.960938 "/><path style=" stroke:none;fill-rule:nonzero;fill:#000000;fill-opacity:1;" d="M 131.058594 160.65625 C 131.164062 160.863281 131.320312 161.023438 131.523438 161.136719 C 131.722656 161.25 131.941406 161.296875 132.171875 161.28125 C 132.402344 161.265625 132.613281 161.1875 132.796875 161.046875 C 132.980469 160.90625 133.113281 160.726562 133.1875 160.503906 C 133.757812 158.398438 130.1875 158.675781 131.058594 160.65625 Z M 131.058594 160.65625 "/><path style=" stroke:none;fill-rule:nonzero;fill:#000000;fill-opacity:1;" d="M 136.1875 170.261719 C 135.933594 170.179688 135.6875 170.199219 135.449219 170.316406 C 135.210938 170.4375 135.050781 170.625 134.964844 170.878906 C 134.882812 171.132812 134.902344 171.378906 135.019531 171.617188 C 135.140625 171.855469 135.328125 172.015625 135.582031 172.101562 C 135.832031 172.183594 136.078125 172.164062 136.316406 172.046875 C 136.554688 171.925781 136.71875 171.738281 136.800781 171.484375 C 136.886719 171.230469 136.867188 170.984375 136.746094 170.746094 C 136.628906 170.507812 136.441406 170.347656 136.1875 170.261719 Z M 136.1875 170.261719 "/><path style=" stroke:none;fill-rule:nonzero;fill:#000000;fill-opacity:1;" d="M 131.769531 136.96875 C 133.179688 137.496094 133.945312 135.207031 132.519531 134.773438 C 132.378906 134.730469 132.230469 134.71875 132.082031 134.734375 C 131.933594 134.75 131.796875 134.792969 131.664062 134.859375 C 131.53125 134.929688 131.417969 135.019531 131.320312 135.132812 C 131.222656 135.246094 131.148438 135.375 131.101562 135.515625 C 131.054688 135.65625 131.035156 135.800781 131.042969 135.949219 C 131.050781 136.097656 131.082031 136.242188 131.144531 136.375 C 131.207031 136.511719 131.292969 136.632812 131.402344 136.734375 C 131.507812 136.835938 131.632812 136.914062 131.769531 136.96875 Z M 131.769531 136.96875 "/><path style=" stroke:none;fill-rule:nonzero;fill:#000000;fill-opacity:1;" d="M 157.867188 126.253906 C 158.011719 126.296875 158.15625 126.308594 158.304688 126.296875 C 158.453125 126.28125 158.589844 126.238281 158.722656 126.171875 C 158.855469 126.101562 158.96875 126.011719 159.066406 125.902344 C 159.164062 125.789062 159.238281 125.660156 159.285156 125.519531 C 159.335938 125.378906 159.355469 125.234375 159.347656 125.085938 C 159.339844 124.9375 159.304688 124.796875 159.242188 124.660156 C 159.179688 124.527344 159.09375 124.40625 158.988281 124.304688 C 158.878906 124.203125 158.753906 124.125 158.617188 124.070312 C 157.183594 123.574219 156.425781 125.824219 157.867188 126.253906 Z M 157.867188 126.253906 "/><path style=" stroke:none;fill-rule:nonzero;fill:#000000;fill-opacity:1;" d="M 156.390625 133.175781 C 156.246094 133.125 156.09375 133.105469 155.941406 133.117188 C 155.789062 133.125 155.640625 133.164062 155.503906 133.230469 C 155.363281 133.300781 155.246094 133.390625 155.144531 133.507812 C 155.042969 133.621094 154.964844 133.753906 154.917969 133.898438 C 154.867188 134.046875 154.847656 134.195312 154.855469 134.347656 C 154.867188 134.5 154.90625 134.648438 154.972656 134.785156 C 155.039062 134.925781 155.132812 135.042969 155.25 135.144531 C 155.363281 135.246094 155.496094 135.324219 155.640625 135.371094 C 155.785156 135.421875 155.933594 135.441406 156.089844 135.433594 C 156.242188 135.421875 156.386719 135.382812 156.527344 135.316406 C 156.664062 135.25 156.785156 135.15625 156.886719 135.042969 C 156.988281 134.925781 157.0625 134.796875 157.113281 134.648438 C 157.164062 134.503906 157.183594 134.355469 157.171875 134.199219 C 157.164062 134.046875 157.125 133.902344 157.058594 133.761719 C 156.988281 133.625 156.898438 133.503906 156.78125 133.402344 C 156.667969 133.300781 156.535156 133.226562 156.390625 133.175781 Z M 156.390625 133.175781 "/><path style=" stroke:none;fill-rule:nonzero;fill:#000000;fill-opacity:1;" d="M 150.683594 141.574219 C 150.539062 141.527344 150.386719 141.507812 150.234375 141.515625 C 150.078125 141.527344 149.933594 141.566406 149.796875 141.632812 C 149.65625 141.703125 149.535156 141.792969 149.433594 141.910156 C 149.332031 142.027344 149.257812 142.15625 149.207031 142.304688 C 149.160156 142.449219 149.136719 142.601562 149.148438 142.753906 C 149.160156 142.90625 149.199219 143.054688 149.265625 143.191406 C 149.332031 143.332031 149.425781 143.449219 149.539062 143.550781 C 149.65625 143.65625 149.789062 143.730469 149.933594 143.78125 C 150.078125 143.828125 150.230469 143.847656 150.382812 143.839844 C 150.539062 143.828125 150.683594 143.789062 150.820312 143.722656 C 150.960938 143.652344 151.078125 143.5625 151.179688 143.445312 C 151.28125 143.328125 151.359375 143.199219 151.410156 143.050781 C 151.457031 142.90625 151.476562 142.757812 151.46875 142.601562 C 151.457031 142.449219 151.417969 142.300781 151.351562 142.164062 C 151.285156 142.027344 151.191406 141.90625 151.074219 141.804688 C 150.960938 141.703125 150.828125 141.625 150.683594 141.574219 Z M 150.683594 141.574219 "/><path style=" stroke:none;fill-rule:nonzero;fill:#000000;fill-opacity:1;" d="M 138.585938 135.972656 C 138.441406 135.921875 138.292969 135.902344 138.136719 135.914062 C 137.984375 135.925781 137.835938 135.964844 137.699219 136.03125 C 137.5625 136.101562 137.441406 136.191406 137.339844 136.308594 C 137.238281 136.425781 137.160156 136.554688 137.113281 136.703125 C 137.0625 136.847656 137.042969 136.996094 137.050781 137.152344 C 137.0625 137.304688 137.101562 137.453125 137.167969 137.589844 C 137.238281 137.726562 137.328125 137.847656 137.445312 137.949219 C 137.5625 138.050781 137.691406 138.128906 137.835938 138.179688 C 137.984375 138.226562 138.132812 138.246094 138.289062 138.238281 C 138.441406 138.226562 138.585938 138.1875 138.726562 138.117188 C 138.863281 138.050781 138.984375 137.957031 139.085938 137.84375 C 139.1875 137.726562 139.261719 137.597656 139.3125 137.449219 C 139.363281 137.304688 139.382812 137.152344 139.371094 137 C 139.363281 136.847656 139.324219 136.699219 139.253906 136.5625 C 139.1875 136.421875 139.09375 136.304688 138.980469 136.199219 C 138.863281 136.097656 138.734375 136.023438 138.585938 135.972656 Z M 138.585938 135.972656 "/><path style=" stroke:none;fill-rule:nonzero;fill:#000000;fill-opacity:1;" d="M 147.113281 154.835938 C 146.96875 154.785156 146.820312 154.765625 146.664062 154.777344 C 146.511719 154.785156 146.367188 154.824219 146.226562 154.894531 C 146.089844 154.960938 145.972656 155.054688 145.871094 155.167969 C 145.769531 155.285156 145.691406 155.414062 145.640625 155.558594 C 145.59375 155.707031 145.574219 155.855469 145.582031 156.007812 C 145.59375 156.160156 145.632812 156.308594 145.699219 156.445312 C 145.765625 156.582031 145.859375 156.703125 145.972656 156.804688 C 146.089844 156.90625 146.21875 156.984375 146.363281 157.03125 C 147.796875 157.511719 148.546875 155.277344 147.113281 154.835938 Z M 147.113281 154.835938 "/><path style=" stroke:none;fill-rule:nonzero;fill:#000000;fill-opacity:1;" d="M 141.496094 99.484375 C 139.667969 98.808594 138.683594 101.734375 140.550781 102.335938 C 142.417969 102.933594 143.386719 100.046875 141.496094 99.484375 Z M 141.496094 99.484375 "/><path style=" stroke:none;fill-rule:nonzero;fill:#000000;fill-opacity:1;" d="M 146.289062 109.101562 C 144.445312 108.464844 143.460938 111.351562 145.335938 111.957031 C 147.210938 112.566406 148.132812 109.679688 146.289062 109.101562 Z M 146.289062 109.101562 "/><path style=" stroke:none;fill-rule:nonzero;fill:#000000;fill-opacity:1;" d="M 139.367188 112.558594 C 138.707031 111.207031 136.59375 112.289062 137.296875 113.601562 C 137.453125 113.859375 137.679688 114.03125 137.96875 114.113281 C 138.261719 114.199219 138.542969 114.171875 138.8125 114.035156 C 139.085938 113.898438 139.273438 113.6875 139.378906 113.40625 C 139.484375 113.121094 139.480469 112.839844 139.367188 112.558594 Z M 139.367188 112.558594 "/><path style=" stroke:none;fill-rule:nonzero;fill:#000000;fill-opacity:1;" d="M 147.046875 126.875 C 146.902344 126.824219 146.75 126.804688 146.597656 126.816406 C 146.445312 126.828125 146.296875 126.867188 146.160156 126.933594 C 146.023438 127 145.902344 127.09375 145.800781 127.207031 C 145.699219 127.324219 145.625 127.453125 145.574219 127.601562 C 145.527344 127.746094 145.503906 127.894531 145.515625 128.046875 C 145.523438 128.203125 145.5625 128.347656 145.632812 128.484375 C 145.699219 128.625 145.789062 128.742188 145.90625 128.84375 C 146.019531 128.945312 146.152344 129.023438 146.296875 129.074219 C 146.441406 129.121094 146.589844 129.140625 146.746094 129.132812 C 146.898438 129.121094 147.042969 129.082031 147.183594 129.015625 C 147.320312 128.945312 147.4375 128.855469 147.539062 128.738281 C 147.640625 128.625 147.71875 128.492188 147.765625 128.347656 C 147.816406 128.203125 147.835938 128.054688 147.828125 127.898438 C 147.816406 127.746094 147.777344 127.601562 147.710938 127.460938 C 147.644531 127.324219 147.550781 127.203125 147.4375 127.101562 C 147.320312 127 147.191406 126.925781 147.046875 126.875 Z M 147.046875 126.875 "/><path style=" stroke:none;fill-rule:nonzero;fill:#000000;fill-opacity:1;" d="M 171.679688 105.867188 C 171.824219 105.917969 171.976562 105.9375 172.128906 105.929688 C 172.28125 105.917969 172.429688 105.878906 172.566406 105.8125 C 172.707031 105.742188 172.824219 105.652344 172.925781 105.535156 C 173.027344 105.421875 173.105469 105.289062 173.152344 105.144531 C 173.203125 105 173.222656 104.847656 173.214844 104.695312 C 173.203125 104.542969 173.164062 104.394531 173.097656 104.257812 C 173.03125 104.121094 172.9375 104 172.820312 103.898438 C 172.707031 103.796875 172.574219 103.71875 172.429688 103.671875 C 172.285156 103.621094 172.136719 103.601562 171.980469 103.609375 C 171.828125 103.621094 171.683594 103.660156 171.542969 103.726562 C 171.40625 103.796875 171.285156 103.886719 171.183594 104.003906 C 171.082031 104.117188 171.007812 104.25 170.957031 104.394531 C 170.90625 104.539062 170.886719 104.691406 170.898438 104.84375 C 170.90625 104.996094 170.945312 105.144531 171.011719 105.28125 C 171.082031 105.417969 171.171875 105.539062 171.289062 105.640625 C 171.402344 105.742188 171.535156 105.816406 171.679688 105.867188 Z M 171.679688 105.867188 "/><path style=" stroke:none;fill-rule:nonzero;fill:#000000;fill-opacity:1;" d="M 141.007812 165.289062 C 140.765625 165.230469 140.53125 165.261719 140.3125 165.386719 C 140.09375 165.507812 139.945312 165.6875 139.863281 165.925781 C 139.785156 166.164062 139.796875 166.398438 139.902344 166.628906 C 140.003906 166.859375 140.171875 167.023438 140.402344 167.121094 C 140.648438 167.179688 140.878906 167.148438 141.097656 167.027344 C 141.316406 166.902344 141.46875 166.722656 141.546875 166.484375 C 141.625 166.246094 141.613281 166.011719 141.511719 165.78125 C 141.40625 165.554688 141.242188 165.390625 141.007812 165.289062 Z M 141.007812 165.289062 "/><path style=" stroke:none;fill-rule:nonzero;fill:#000000;fill-opacity:1;" d="M 164.179688 108.351562 C 164.464844 108.347656 164.710938 108.257812 164.925781 108.070312 C 165.140625 107.886719 165.269531 107.65625 165.3125 107.378906 C 165.359375 107.097656 165.308594 106.839844 165.160156 106.597656 C 165.015625 106.355469 164.808594 106.191406 164.542969 106.101562 C 162.863281 105.574219 162.402344 108.34375 164.179688 108.351562 Z M 164.179688 108.351562 "/><path style=" stroke:none;fill-rule:nonzero;fill:#000000;fill-opacity:1;" d="M 136.789062 122.113281 C 136.742188 122.257812 136.722656 122.40625 136.734375 122.558594 C 136.746094 122.714844 136.789062 122.859375 136.859375 122.992188 C 136.925781 123.128906 137.019531 123.25 137.136719 123.347656 C 137.253906 123.445312 137.382812 123.519531 137.53125 123.566406 C 137.675781 123.613281 137.824219 123.632812 137.976562 123.621094 C 138.128906 123.609375 138.273438 123.566406 138.410156 123.496094 C 138.546875 123.429688 138.664062 123.335938 138.765625 123.21875 C 138.863281 123.101562 138.9375 122.972656 138.984375 122.824219 C 139.488281 121.402344 137.230469 120.679688 136.789062 122.113281 Z M 136.789062 122.113281 "/><path style=" stroke:none;fill-rule:nonzero;fill:#000000;fill-opacity:1;" d="M 157.09375 104.464844 C 155.699219 103.941406 154.941406 106.226562 156.34375 106.65625 C 157.746094 107.082031 158.558594 104.878906 157.09375 104.464844 Z M 157.09375 104.464844 "/><path style=" stroke:none;fill-rule:nonzero;fill:#000000;fill-opacity:1;" d="M 143.730469 142.496094 C 143.582031 142.449219 143.429688 142.429688 143.273438 142.441406 C 143.117188 142.453125 142.96875 142.492188 142.828125 142.5625 C 142.6875 142.632812 142.5625 142.726562 142.460938 142.847656 C 142.359375 142.964844 142.28125 143.097656 142.230469 143.246094 C 142.183594 143.398438 142.164062 143.550781 142.175781 143.707031 C 142.183594 143.863281 142.226562 144.011719 142.296875 144.152344 C 142.367188 144.292969 142.460938 144.414062 142.578125 144.519531 C 142.699219 144.621094 142.832031 144.699219 142.980469 144.746094 C 143.132812 144.796875 143.285156 144.816406 143.441406 144.804688 C 143.597656 144.792969 143.746094 144.753906 143.886719 144.683594 C 144.027344 144.613281 144.148438 144.519531 144.253906 144.398438 C 144.355469 144.28125 144.433594 144.148438 144.480469 143.996094 C 144.53125 143.847656 144.550781 143.695312 144.539062 143.539062 C 144.527344 143.382812 144.488281 143.234375 144.417969 143.09375 C 144.347656 142.953125 144.253906 142.832031 144.132812 142.726562 C 144.015625 142.625 143.878906 142.546875 143.730469 142.496094 Z M 143.730469 142.496094 "/><path style=" stroke:none;fill-rule:nonzero;fill:#000000;fill-opacity:1;" d="M 141.910156 150.179688 C 141.980469 149.882812 141.9375 149.605469 141.789062 149.339844 C 141.640625 149.078125 141.421875 148.898438 141.136719 148.804688 C 140.847656 148.710938 140.566406 148.730469 140.292969 148.855469 C 140.015625 148.984375 139.820312 149.1875 139.703125 149.464844 C 139.636719 149.761719 139.675781 150.039062 139.824219 150.304688 C 139.972656 150.566406 140.191406 150.746094 140.480469 150.835938 C 140.765625 150.929688 141.046875 150.914062 141.324219 150.789062 C 141.597656 150.660156 141.792969 150.457031 141.910156 150.179688 Z M 141.910156 150.179688 "/><path style=" stroke:none;fill-rule:nonzero;fill:#000000;fill-opacity:1;" d="M 135.136719 154.910156 C 133.726562 154.40625 132.984375 156.644531 134.386719 157.109375 C 135.789062 157.574219 136.585938 155.339844 135.136719 154.910156 Z M 135.136719 154.910156 "/></g></svg>