<svg xmlns="http://www.w3.org/2000/svg" xmlns:xlink="http://www.w3.org/1999/xlink" width="512" zoomAndPan="magnify" viewBox="0 0 384 383.999986" height="512" preserveAspectRatio="xMidYMid meet" version="1.2"><defs><clipPath id="b7182310c4"><path d="M 11.011719 77.296875 L 373.261719 77.296875 L 373.261719 306.796875 L 11.011719 306.796875 Z M 11.011719 77.296875 "/></clipPath></defs><g id="df778ddcb1"><g clip-rule="nonzero" clip-path="url(#b7182310c4)"><path style=" stroke:none;fill-rule:nonzero;fill:#000000;fill-opacity:1;" d="M 373.261719 303.097656 C 373.261719 303.097656 372.039062 84.871094 372.039062 82.140625 C 372.039062 79.40625 369.617188 77.570312 368.070312 77.570312 L 367.644531 77.570312 C 367.398438 77.539062 367.246094 77.425781 366.960938 77.425781 C 364.722656 77.425781 245.832031 77.484375 147.136719 77.570312 L 15.496094 77.570312 C 12.550781 77.570312 12.511719 80.078125 12.464844 82.984375 C 12.4375 84.621094 12.40625 87.015625 12.375 90.066406 C 12.3125 96.15625 12.238281 104.851562 12.160156 115.289062 C 12 136.15625 11.820312 163.980469 11.652344 191.804688 C 11.3125 247.453125 11.011719 303.097656 11.011719 303.117188 C 11.011719 304.3125 11.644531 305.324219 12.558594 305.96875 C 12.648438 306.035156 12.730469 306.09375 12.832031 306.152344 C 13.351562 306.453125 13.921875 306.667969 14.566406 306.667969 L 369.707031 306.667969 C 370.347656 306.667969 370.917969 306.453125 371.4375 306.152344 C 371.539062 306.09375 371.625 306.035156 371.71875 305.964844 C 372.628906 305.316406 373.261719 304.304688 373.261719 303.097656 Z M 359.386719 83.496094 C 340.722656 100.757812 280.820312 153.933594 236.035156 183.949219 C 237.359375 180.484375 238.148438 177.058594 238.09375 173.769531 C 237.992188 167.148438 234.835938 161.671875 228.722656 157.496094 C 223.53125 153.949219 218.28125 152.148438 213.113281 152.148438 C 203.035156 152.148438 195.867188 158.796875 192.136719 163.359375 C 188.40625 158.796875 181.234375 152.148438 171.15625 152.148438 C 165.992188 152.148438 160.742188 153.949219 155.550781 157.496094 C 149.4375 161.671875 146.28125 167.148438 146.175781 173.769531 C 146.121094 177.265625 147.035156 180.921875 148.523438 184.609375 C 110.191406 159.136719 58.683594 115.226562 24 83.667969 C 42.355469 83.605469 92.09375 83.542969 148.167969 83.496094 Z M 18.339844 86.523438 C 38.683594 105.082031 102.3125 162.042969 149.09375 192.09375 C 100.980469 222.691406 34.941406 280.960938 16.96875 297.066406 C 17.339844 228.820312 18.015625 113.429688 18.339844 86.523438 Z M 151.792969 173.855469 C 151.871094 169.097656 154.136719 165.265625 158.722656 162.132812 C 162.960938 159.234375 167.144531 157.765625 171.15625 157.765625 C 181.570312 157.765625 188.496094 167.648438 189.777344 169.628906 L 192.136719 173.269531 L 194.496094 169.628906 C 195.777344 167.648438 202.699219 157.765625 213.113281 157.765625 C 217.128906 157.765625 221.3125 159.234375 225.550781 162.132812 C 230.136719 165.265625 232.402344 169.097656 232.476562 173.855469 C 232.78125 192.8125 199.964844 219.21875 192.136719 225.246094 C 184.308594 219.21875 151.488281 192.8125 151.792969 173.855469 Z M 295.308594 146.664062 C 315.761719 129.980469 334.617188 113.542969 346.832031 102.6875 C 354.105469 96.226562 359.621094 91.214844 362.972656 88.148438 C 364.160156 87.0625 365.125 86.214844 366 85.460938 L 367.296875 297.0625 C 349.265625 280.902344 282.902344 222.351562 234.757812 191.832031 C 251.246094 181.175781 271.414062 166.152344 295.308594 146.664062 Z M 21.722656 300.746094 C 57.179688 268.863281 114.449219 220.652344 154.535156 195.519531 C 167 213.671875 189.175781 230.078125 190.476562 231.03125 L 192.136719 232.246094 L 193.792969 231.03125 C 195.097656 230.078125 217.273438 213.667969 229.738281 195.519531 C 269.824219 220.652344 327.09375 268.863281 362.550781 300.746094 Z M 21.722656 300.746094 "/><path style=" stroke:none;fill-rule:nonzero;fill:#000000;fill-opacity:1;" d="M 373.261719 303.097656 C 373.261719 303.097656 372.039062 84.871094 372.039062 82.140625 C 372.039062 79.40625 369.617188 77.570312 368.070312 77.570312 L 367.644531 77.570312 C 367.398438 77.539062 367.246094 77.425781 366.960938 77.425781 C 364.722656 77.425781 245.832031 77.484375 147.136719 77.570312 L 15.496094 77.570312 C 12.550781 77.570312 12.511719 80.078125 12.464844 82.984375 C 12.4375 84.621094 12.40625 87.015625 12.375 90.066406 C 12.3125 96.15625 12.238281 104.851562 12.160156 115.289062 C 12 136.15625 11.820312 163.980469 11.652344 191.804688 C 11.3125 247.453125 11.011719 303.097656 11.011719 303.117188 C 11.011719 304.3125 11.644531 305.324219 12.558594 305.96875 C 12.648438 306.035156 12.730469 306.09375 12.832031 306.152344 C 13.351562 306.453125 13.921875 306.667969 14.566406 306.667969 L 369.707031 306.667969 C 370.347656 306.667969 370.917969 306.453125 371.4375 306.152344 C 371.539062 306.09375 371.625 306.035156 371.71875 305.964844 C 372.628906 305.316406 373.261719 304.304688 373.261719 303.097656 Z M 359.386719 83.496094 C 340.722656 100.757812 280.820312 153.933594 236.035156 183.949219 C 237.359375 180.484375 238.148438 177.058594 238.09375 173.769531 C 237.992188 167.148438 234.835938 161.671875 228.722656 157.496094 C 223.53125 153.949219 218.28125 152.148438 213.113281 152.148438 C 203.035156 152.148438 195.867188 158.796875 192.136719 163.359375 C 188.40625 158.796875 181.234375 152.148438 171.15625 152.148438 C 165.992188 152.148438 160.742188 153.949219 155.550781 157.496094 C 149.4375 161.671875 146.28125 167.148438 146.175781 173.769531 C 146.121094 177.265625 147.035156 180.921875 148.523438 184.609375 C 110.191406 159.136719 58.683594 115.226562 24 83.667969 C 42.355469 83.605469 92.09375 83.542969 148.167969 83.496094 Z M 18.339844 86.523438 C 38.683594 105.082031 102.3125 162.042969 149.09375 192.09375 C 100.980469 222.691406 34.941406 280.960938 16.96875 297.066406 C 17.339844 228.820312 18.015625 113.429688 18.339844 86.523438 Z M 151.792969 173.855469 C 151.871094 169.097656 154.136719 165.265625 158.722656 162.132812 C 162.960938 159.234375 167.144531 157.765625 171.15625 157.765625 C 181.570312 157.765625 188.496094 167.648438 189.777344 169.628906 L 192.136719 173.269531 L 194.496094 169.628906 C 195.777344 167.648438 202.699219 157.765625 213.113281 157.765625 C 217.128906 157.765625 221.3125 159.234375 225.550781 162.132812 C 230.136719 165.265625 232.402344 169.097656 232.476562 173.855469 C 232.78125 192.8125 199.964844 219.21875 192.136719 225.246094 C 184.308594 219.21875 151.488281 192.8125 151.792969 173.855469 Z M 295.308594 146.664062 C 315.761719 129.980469 334.617188 113.542969 346.832031 102.6875 C 354.105469 96.226562 359.621094 91.214844 362.972656 88.148438 C 364.160156 87.0625 365.125 86.214844 366 85.460938 L 367.296875 297.0625 C 349.265625 280.902344 282.902344 222.351562 234.757812 191.832031 C 251.246094 181.175781 271.414062 166.152344 295.308594 146.664062 Z M 21.722656 300.746094 C 57.179688 268.863281 114.449219 220.652344 154.535156 195.519531 C 167 213.671875 189.175781 230.078125 190.476562 231.03125 L 192.136719 232.246094 L 193.792969 231.03125 C 195.097656 230.078125 217.273438 213.667969 229.738281 195.519531 C 269.824219 220.652344 327.09375 268.863281 362.550781 300.746094 Z M 21.722656 300.746094 "/></g></g></svg>